M48
; DRILL file {KiCad 9.0.3} date 2025-07-21T11:45:39+0530
; FORMAT={-:-/ absolute / metric / decimal}
; #@! TF.CreationDate,2025-07-21T11:45:39+05:30
; #@! TF.GenerationSoftware,Kicad,Pcbnew,9.0.3
; #@! TF.FileFunction,Plated,1,2,PTH
FMAT,2
METRIC
; #@! TA.AperFunction,Plated,PTH,ComponentDrill
T1C0.350
; #@! TA.AperFunction,Plated,PTH,ComponentDrill
T2C0.400
; #@! TA.AperFunction,Plated,PTH,ComponentDrill
T3C0.450
; #@! TA.AperFunction,Plated,PTH,ViaDrill
T4C0.500
; #@! TA.AperFunction,Plated,PTH,ComponentDrill
T5C1.000
%
G90
G05
T1
X130.34Y-83.38
X130.34Y-84.655
X130.34Y-85.93
X130.84Y-51.33
X131.615Y-83.38
X131.615Y-84.655
X131.615Y-85.93
X132.89Y-83.38
X132.89Y-84.655
X132.89Y-85.93
T2
X130.19Y-50.33
X131.49Y-50.33
X132.79Y-50.33
T4
X120.64Y-53.39
X122.74Y-83.98
X127.22Y-61.77
X129.27Y-91.4
X130.32Y-61.6
X130.48Y-72.19
X131.84Y-78.65
X131.9Y-91.34
X132.25Y-57.72
X132.44Y-86.92
X132.617Y-73.32
X133.17Y-77.88
X133.19Y-82.35
X133.64Y-92.89
X134.16Y-97.471
X134.2Y-101.83
X135.96Y-97.75
X136.52Y-73.35
X136.57Y-79.25
X136.87Y-69.05
X136.89Y-67.21
X139.1Y-89.15
T5
X119.74Y-76.92
X119.79Y-56.6
X119.79Y-59.14
X119.79Y-61.68
X119.79Y-64.22
X119.79Y-66.76
X119.79Y-69.3
X119.79Y-71.84
X119.79Y-74.38
X119.79Y-79.46
X119.79Y-82.0
X119.79Y-84.54
X119.79Y-87.08
X119.79Y-89.62
X119.79Y-92.16
X119.79Y-94.7
X119.79Y-97.24
X119.79Y-99.78
X119.79Y-102.32
X119.79Y-104.86
X119.79Y-107.4
X138.367Y-50.506
X140.493Y-51.894
X142.6Y-76.92
X142.65Y-56.6
X142.65Y-59.14
X142.65Y-61.68
X142.65Y-64.22
X142.65Y-66.76
X142.65Y-69.3
X142.65Y-71.84
X142.65Y-74.38
X142.65Y-79.46
X142.65Y-82.0
X142.65Y-84.54
X142.65Y-87.08
X142.65Y-89.62
X142.65Y-92.16
X142.65Y-94.7
X142.65Y-97.24
X142.65Y-99.78
X142.65Y-102.32
X142.65Y-104.86
X142.65Y-107.4
T3
G00X127.91Y-50.085
M15
G01X127.91Y-51.135
M16
G05
G00X135.07Y-50.085
M15
G01X135.07Y-51.135
M16
G05
M30
