%TF.GenerationSoftware,KiCad,Pcbnew,9.0.3*%
%TF.CreationDate,2025-07-21T11:45:29+05:30*%
%TF.ProjectId,RQF 20251,52514620-3230-4323-9531-2e6b69636164,QUBE 20251*%
%TF.SameCoordinates,Original*%
%TF.FileFunction,Copper,L1,Top*%
%TF.FilePolarity,Positive*%
%FSLAX46Y46*%
G04 Gerber Fmt 4.6, Leading zero omitted, Abs format (unit mm)*
G04 Created by KiCad (PCBNEW 9.0.3) date 2025-07-21 11:45:29*
%MOMM*%
%LPD*%
G01*
G04 APERTURE LIST*
G04 Aperture macros list*
%AMRoundRect*
0 Rectangle with rounded corners*
0 $1 Rounding radius*
0 $2 $3 $4 $5 $6 $7 $8 $9 X,Y pos of 4 corners*
0 Add a 4 corners polygon primitive as box body*
4,1,4,$2,$3,$4,$5,$6,$7,$8,$9,$2,$3,0*
0 Add four circle primitives for the rounded corners*
1,1,$1+$1,$2,$3*
1,1,$1+$1,$4,$5*
1,1,$1+$1,$6,$7*
1,1,$1+$1,$8,$9*
0 Add four rect primitives between the rounded corners*
20,1,$1+$1,$2,$3,$4,$5,0*
20,1,$1+$1,$4,$5,$6,$7,0*
20,1,$1+$1,$6,$7,$8,$9,0*
20,1,$1+$1,$8,$9,$2,$3,0*%
%AMHorizOval*
0 Thick line with rounded ends*
0 $1 width*
0 $2 $3 position (X,Y) of the first rounded end (center of the circle)*
0 $4 $5 position (X,Y) of the second rounded end (center of the circle)*
0 Add line between two ends*
20,1,$1,$2,$3,$4,$5,0*
0 Add two circle primitives to create the rounded ends*
1,1,$1,$2,$3*
1,1,$1,$4,$5*%
%AMRotRect*
0 Rectangle, with rotation*
0 The origin of the aperture is its center*
0 $1 length*
0 $2 width*
0 $3 Rotation angle, in degrees counterclockwise*
0 Add horizontal line*
21,1,$1,$2,0,0,$3*%
%AMOutline5P*
0 Free polygon, 5 corners , with rotation*
0 The origin of the aperture is its center*
0 number of corners: always 5*
0 $1 to $10 corner X, Y*
0 $11 Rotation angle, in degrees counterclockwise*
0 create outline with 5 corners*
4,1,5,$1,$2,$3,$4,$5,$6,$7,$8,$9,$10,$1,$2,$11*%
%AMOutline6P*
0 Free polygon, 6 corners , with rotation*
0 The origin of the aperture is its center*
0 number of corners: always 6*
0 $1 to $12 corner X, Y*
0 $13 Rotation angle, in degrees counterclockwise*
0 create outline with 6 corners*
4,1,6,$1,$2,$3,$4,$5,$6,$7,$8,$9,$10,$11,$12,$1,$2,$13*%
%AMOutline7P*
0 Free polygon, 7 corners , with rotation*
0 The origin of the aperture is its center*
0 number of corners: always 7*
0 $1 to $14 corner X, Y*
0 $15 Rotation angle, in degrees counterclockwise*
0 create outline with 7 corners*
4,1,7,$1,$2,$3,$4,$5,$6,$7,$8,$9,$10,$11,$12,$13,$14,$1,$2,$15*%
%AMOutline8P*
0 Free polygon, 8 corners , with rotation*
0 The origin of the aperture is its center*
0 number of corners: always 8*
0 $1 to $16 corner X, Y*
0 $17 Rotation angle, in degrees counterclockwise*
0 create outline with 8 corners*
4,1,8,$1,$2,$3,$4,$5,$6,$7,$8,$9,$10,$11,$12,$13,$14,$15,$16,$1,$2,$17*%
G04 Aperture macros list end*
%TA.AperFunction,SMDPad,CuDef*%
%ADD10RoundRect,0.155000X-0.212500X-0.155000X0.212500X-0.155000X0.212500X0.155000X-0.212500X0.155000X0*%
%TD*%
%TA.AperFunction,SMDPad,CuDef*%
%ADD11RoundRect,0.155000X0.212500X0.155000X-0.212500X0.155000X-0.212500X-0.155000X0.212500X-0.155000X0*%
%TD*%
%TA.AperFunction,SMDPad,CuDef*%
%ADD12RoundRect,0.160000X-0.160000X0.197500X-0.160000X-0.197500X0.160000X-0.197500X0.160000X0.197500X0*%
%TD*%
%TA.AperFunction,SMDPad,CuDef*%
%ADD13RoundRect,0.050000X-0.387500X-0.050000X0.387500X-0.050000X0.387500X0.050000X-0.387500X0.050000X0*%
%TD*%
%TA.AperFunction,SMDPad,CuDef*%
%ADD14RoundRect,0.050000X-0.050000X-0.387500X0.050000X-0.387500X0.050000X0.387500X-0.050000X0.387500X0*%
%TD*%
%TA.AperFunction,ComponentPad*%
%ADD15C,0.600000*%
%TD*%
%TA.AperFunction,SMDPad,CuDef*%
%ADD16RoundRect,0.144000X-1.456000X-1.456000X1.456000X-1.456000X1.456000X1.456000X-1.456000X1.456000X0*%
%TD*%
%TA.AperFunction,SMDPad,CuDef*%
%ADD17RoundRect,0.155000X0.155000X-0.212500X0.155000X0.212500X-0.155000X0.212500X-0.155000X-0.212500X0*%
%TD*%
%TA.AperFunction,SMDPad,CuDef*%
%ADD18RotRect,1.700000X1.400000X33.140000*%
%TD*%
%TA.AperFunction,SMDPad,CuDef*%
%ADD19RoundRect,0.100000X-0.100000X0.217500X-0.100000X-0.217500X0.100000X-0.217500X0.100000X0.217500X0*%
%TD*%
%TA.AperFunction,SMDPad,CuDef*%
%ADD20RoundRect,0.160000X-0.197500X-0.160000X0.197500X-0.160000X0.197500X0.160000X-0.197500X0.160000X0*%
%TD*%
%TA.AperFunction,ComponentPad*%
%ADD21R,2.200000X1.600000*%
%TD*%
%TA.AperFunction,ComponentPad*%
%ADD22O,2.200000X1.600000*%
%TD*%
%TA.AperFunction,SMDPad,CuDef*%
%ADD23RoundRect,0.100000X-0.217500X-0.100000X0.217500X-0.100000X0.217500X0.100000X-0.217500X0.100000X0*%
%TD*%
%TA.AperFunction,SMDPad,CuDef*%
%ADD24R,1.400000X1.200000*%
%TD*%
%TA.AperFunction,SMDPad,CuDef*%
%ADD25R,1.400000X3.500000*%
%TD*%
%TA.AperFunction,SMDPad,CuDef*%
%ADD26RoundRect,0.160000X0.160000X-0.197500X0.160000X0.197500X-0.160000X0.197500X-0.160000X-0.197500X0*%
%TD*%
%TA.AperFunction,ComponentPad*%
%ADD27RotRect,2.000000X2.500000X146.859000*%
%TD*%
%TA.AperFunction,ComponentPad*%
%ADD28HorizOval,2.000000X0.136675X0.209332X-0.136675X-0.209332X0*%
%TD*%
%TA.AperFunction,SMDPad,CuDef*%
%ADD29RoundRect,0.155000X-0.155000X0.212500X-0.155000X-0.212500X0.155000X-0.212500X0.155000X0.212500X0*%
%TD*%
%TA.AperFunction,ComponentPad*%
%ADD30C,0.900000*%
%TD*%
%TA.AperFunction,ComponentPad*%
%ADD31C,0.700000*%
%TD*%
%TA.AperFunction,ComponentPad*%
%ADD32RoundRect,0.250000X-0.250000X-0.800000X0.250000X-0.800000X0.250000X0.800000X-0.250000X0.800000X0*%
%TD*%
%TA.AperFunction,SMDPad,CuDef*%
%ADD33Outline5P,-0.700000X0.600000X0.400000X0.600000X0.700000X0.300000X0.700000X-0.600000X-0.700000X-0.600000X0.000000*%
%TD*%
%TA.AperFunction,SMDPad,CuDef*%
%ADD34RoundRect,0.100000X0.100000X-0.217500X0.100000X0.217500X-0.100000X0.217500X-0.100000X-0.217500X0*%
%TD*%
%TA.AperFunction,SMDPad,CuDef*%
%ADD35R,0.600000X2.200000*%
%TD*%
%TA.AperFunction,SMDPad,CuDef*%
%ADD36O,0.600000X2.200000*%
%TD*%
%TA.AperFunction,SMDPad,CuDef*%
%ADD37RoundRect,0.250000X0.006744X-0.742010X0.676614X-0.304661X-0.006744X0.742010X-0.676614X0.304661X0*%
%TD*%
%TA.AperFunction,SMDPad,CuDef*%
%ADD38R,1.400000X1.800000*%
%TD*%
%TA.AperFunction,ViaPad*%
%ADD39C,1.000000*%
%TD*%
%TA.AperFunction,Conductor*%
%ADD40C,0.200000*%
%TD*%
%TA.AperFunction,Conductor*%
%ADD41C,0.635000*%
%TD*%
%TA.AperFunction,Conductor*%
%ADD42C,0.508000*%
%TD*%
%TA.AperFunction,Conductor*%
%ADD43C,0.381000*%
%TD*%
%TA.AperFunction,Conductor*%
%ADD44C,0.762000*%
%TD*%
%TA.AperFunction,Conductor*%
%ADD45C,0.199898*%
%TD*%
%TA.AperFunction,Profile*%
%ADD46C,0.050000*%
%TD*%
G04 APERTURE END LIST*
D10*
%TO.P,C4,1*%
%TO.N,GND*%
X132230000Y-94770000D03*
%TO.P,C4,2*%
%TO.N,Net-(C4-Pad2)*%
X133365000Y-94770000D03*
%TD*%
D11*
%TO.P,C12,1*%
%TO.N,+3V3*%
X123772500Y-87770000D03*
%TO.P,C12,2*%
%TO.N,GND*%
X122637500Y-87770000D03*
%TD*%
D12*
%TO.P,R3,1*%
%TO.N,USBD-*%
X135550000Y-75352500D03*
%TO.P,R3,2*%
%TO.N,/UD-*%
X135550000Y-76547500D03*
%TD*%
D13*
%TO.P,U2,1,IOVDD*%
%TO.N,+3V3*%
X128177500Y-82055000D03*
%TO.P,U2,2,GPIO0*%
%TO.N,GPIO0*%
X128177500Y-82455000D03*
%TO.P,U2,3,GPIO1*%
%TO.N,GPIO1*%
X128177500Y-82855000D03*
%TO.P,U2,4,GPIO2*%
%TO.N,GPIO2*%
X128177500Y-83255000D03*
%TO.P,U2,5,GPIO3*%
%TO.N,GPIO3*%
X128177500Y-83655000D03*
%TO.P,U2,6,GPIO4*%
%TO.N,GPIO4*%
X128177500Y-84055000D03*
%TO.P,U2,7,GPIO5*%
%TO.N,GPIO5*%
X128177500Y-84455000D03*
%TO.P,U2,8,GPIO6*%
%TO.N,GPIO6*%
X128177500Y-84855000D03*
%TO.P,U2,9,GPIO7*%
%TO.N,GPIO7*%
X128177500Y-85255000D03*
%TO.P,U2,10,IOVDD*%
%TO.N,+3V3*%
X128177500Y-85655000D03*
%TO.P,U2,11,GPIO8*%
%TO.N,GPIO8*%
X128177500Y-86055000D03*
%TO.P,U2,12,GPIO9*%
%TO.N,GPIO9*%
X128177500Y-86455000D03*
%TO.P,U2,13,GPIO10*%
%TO.N,GPIO10*%
X128177500Y-86855000D03*
%TO.P,U2,14,GPIO11*%
%TO.N,GPIO11*%
X128177500Y-87255000D03*
D14*
%TO.P,U2,15,GPIO12*%
%TO.N,GPIO12*%
X129015000Y-88092500D03*
%TO.P,U2,16,GPIO13*%
%TO.N,GPIO13*%
X129415000Y-88092500D03*
%TO.P,U2,17,GPIO14*%
%TO.N,GPIO14*%
X129815000Y-88092500D03*
%TO.P,U2,18,GPIO15*%
%TO.N,GPIO15*%
X130215000Y-88092500D03*
%TO.P,U2,19,TESTEN*%
%TO.N,GND*%
X130615000Y-88092500D03*
%TO.P,U2,20,XIN*%
%TO.N,Net-(U2-XIN)*%
X131015000Y-88092500D03*
%TO.P,U2,21,XOUT*%
%TO.N,Net-(U2-XOUT)*%
X131415000Y-88092500D03*
%TO.P,U2,22,IOVDD*%
%TO.N,+3V3*%
X131815000Y-88092500D03*
%TO.P,U2,23,DVDD*%
%TO.N,+1V1*%
X132215000Y-88092500D03*
%TO.P,U2,24,SWCLK*%
%TO.N,SWCLK*%
X132615000Y-88092500D03*
%TO.P,U2,25,SWD*%
%TO.N,SWD*%
X133015000Y-88092500D03*
%TO.P,U2,26,RUN*%
%TO.N,RUN*%
X133415000Y-88092500D03*
%TO.P,U2,27,GPIO16*%
%TO.N,GPIO16*%
X133815000Y-88092500D03*
%TO.P,U2,28,GPIO17*%
%TO.N,GPIO17*%
X134215000Y-88092500D03*
D13*
%TO.P,U2,29,GPIO18*%
%TO.N,GPIO18*%
X135052500Y-87255000D03*
%TO.P,U2,30,GPIO19*%
%TO.N,GPIO19*%
X135052500Y-86855000D03*
%TO.P,U2,31,GPIO20*%
%TO.N,GPIO20*%
X135052500Y-86455000D03*
%TO.P,U2,32,GPIO21*%
%TO.N,GPIO21*%
X135052500Y-86055000D03*
%TO.P,U2,33,IOVDD*%
%TO.N,+3V3*%
X135052500Y-85655000D03*
%TO.P,U2,34,GPIO22*%
%TO.N,GPIO22*%
X135052500Y-85255000D03*
%TO.P,U2,35,GPIO23*%
%TO.N,GPIO23*%
X135052500Y-84855000D03*
%TO.P,U2,36,GPIO24*%
%TO.N,GPIO24*%
X135052500Y-84455000D03*
%TO.P,U2,37,GPIO25*%
%TO.N,GPIO25*%
X135052500Y-84055000D03*
%TO.P,U2,38,GPIO26_ADC0*%
%TO.N,GPIO26-ADC0*%
X135052500Y-83655000D03*
%TO.P,U2,39,GPIO27_ADC1*%
%TO.N,GPIO27-ADC1*%
X135052500Y-83255000D03*
%TO.P,U2,40,GPIO28_ADC2*%
%TO.N,GPIO28-ADC2*%
X135052500Y-82855000D03*
%TO.P,U2,41,GPIO29_ADC3*%
%TO.N,GPIO29-ADC3*%
X135052500Y-82455000D03*
%TO.P,U2,42,IOVDD*%
%TO.N,+3V3*%
X135052500Y-82055000D03*
D14*
%TO.P,U2,43,ADC_AVDD*%
X134215000Y-81217500D03*
%TO.P,U2,44,VREG_IN*%
X133815000Y-81217500D03*
%TO.P,U2,45,VREG_VOUT*%
%TO.N,+1V1*%
X133415000Y-81217500D03*
%TO.P,U2,46,USB_DM*%
%TO.N,/UD-*%
X133015000Y-81217500D03*
%TO.P,U2,47,USB_DP*%
%TO.N,/UD+*%
X132615000Y-81217500D03*
%TO.P,U2,48,USB_VDD*%
%TO.N,+3V3*%
X132215000Y-81217500D03*
%TO.P,U2,49,IOVDD*%
X131815000Y-81217500D03*
%TO.P,U2,50,DVDD*%
%TO.N,+1V1*%
X131415000Y-81217500D03*
%TO.P,U2,51,QSPI_SD3*%
%TO.N,Net-(U2-QSPI_SD3)*%
X131015000Y-81217500D03*
%TO.P,U2,52,QSPI_SCLK*%
%TO.N,Net-(U2-QSPI_SCLK)*%
X130615000Y-81217500D03*
%TO.P,U2,53,QSPI_SD0*%
%TO.N,Net-(U2-QSPI_SD0)*%
X130215000Y-81217500D03*
%TO.P,U2,54,QSPI_SD2*%
%TO.N,Net-(U2-QSPI_SD2)*%
X129815000Y-81217500D03*
%TO.P,U2,55,QSPI_SD1*%
%TO.N,Net-(U2-QSPI_SD1)*%
X129415000Y-81217500D03*
%TO.P,U2,56,QSPI_SS*%
%TO.N,Net-(U2-QSPI_SS)*%
X129015000Y-81217500D03*
D15*
%TO.P,U2,57,GND*%
%TO.N,GND*%
X130340000Y-83380000D03*
X130340000Y-84655000D03*
X130340000Y-85930000D03*
X131615000Y-83380000D03*
X131615000Y-84655000D03*
D16*
X131615000Y-84655000D03*
D15*
X131615000Y-85930000D03*
X132890000Y-83380000D03*
X132890000Y-84655000D03*
X132890000Y-85930000D03*
%TD*%
D17*
%TO.P,C11,1*%
%TO.N,+3V3*%
X137450000Y-76547500D03*
%TO.P,C11,2*%
%TO.N,GND*%
X137450000Y-75412500D03*
%TD*%
D10*
%TO.P,C13,1*%
%TO.N,+3V3*%
X139062500Y-85390000D03*
%TO.P,C13,2*%
%TO.N,GND*%
X140197500Y-85390000D03*
%TD*%
%TO.P,C10,1*%
%TO.N,+3V3*%
X139065000Y-87320000D03*
%TO.P,C10,2*%
%TO.N,GND*%
X140200000Y-87320000D03*
%TD*%
D18*
%TO.P,LED,1,K*%
%TO.N,GND*%
X122557988Y-52550060D03*
%TO.P,LED,2,A*%
%TO.N,Net-(D1-A)*%
X125070000Y-50910000D03*
%TD*%
D19*
%TO.P,C2,1*%
%TO.N,VBUS1*%
X136525000Y-71145000D03*
%TO.P,C2,2*%
%TO.N,GND*%
X136525000Y-71960000D03*
%TD*%
D20*
%TO.P,R7,1*%
%TO.N,+3V3*%
X131060000Y-100390000D03*
%TO.P,R7,2*%
%TO.N,RUN*%
X132255000Y-100390000D03*
%TD*%
D21*
%TO.P,J5,1,Pin_1*%
%TO.N,+12V*%
X142650000Y-56600000D03*
D22*
%TO.P,J5,2,Pin_2*%
X142650000Y-59140000D03*
%TO.P,J5,3,Pin_3*%
%TO.N,VBUS1*%
X142650000Y-61680000D03*
%TO.P,J5,4,Pin_4*%
%TO.N,VBUS*%
X142650000Y-64220000D03*
%TO.P,J5,5,Pin_5*%
%TO.N,GPIO29-ADC3*%
X142650000Y-66760000D03*
%TO.P,J5,6,Pin_6*%
%TO.N,GPIO28-ADC2*%
X142650000Y-69300000D03*
%TO.P,J5,7,Pin_7*%
%TO.N,GPIO27-ADC1*%
X142650000Y-71840000D03*
%TO.P,J5,8,Pin_8*%
%TO.N,GPIO26-ADC0*%
X142650000Y-74380000D03*
%TO.P,J5,9,Pin_9*%
%TO.N,GPIO25*%
X142600000Y-76920000D03*
%TO.P,J5,10,Pin_10*%
%TO.N,GPIO24*%
X142650000Y-79460000D03*
%TO.P,J5,11,Pin_11*%
%TO.N,GPIO23*%
X142650000Y-82000000D03*
%TO.P,J5,12,Pin_12*%
%TO.N,GPIO22*%
X142650000Y-84540000D03*
%TO.P,J5,13,Pin_13*%
%TO.N,GPIO21*%
X142650000Y-87080000D03*
%TO.P,J5,14,Pin_14*%
%TO.N,GPIO20*%
X142650000Y-89620000D03*
%TO.P,J5,15,Pin_15*%
%TO.N,GPIO19*%
X142650000Y-92160000D03*
%TO.P,J5,16,Pin_16*%
%TO.N,GPIO18*%
X142650000Y-94700000D03*
%TO.P,J5,17,Pin_17*%
%TO.N,GPIO17*%
X142650000Y-97240000D03*
%TO.P,J5,18,Pin_18*%
%TO.N,GPIO16*%
X142650000Y-99780000D03*
%TO.P,J5,19,Pin_19*%
%TO.N,RUN*%
X142650000Y-102320000D03*
%TO.P,J5,20,Pin_20*%
%TO.N,SWD*%
X142650000Y-104860000D03*
%TO.P,J5,21,Pin_21*%
%TO.N,SWCLK*%
X142650000Y-107400000D03*
%TD*%
D23*
%TO.P,C1,1*%
%TO.N,GND*%
X134562500Y-96090000D03*
%TO.P,C1,2*%
%TO.N,+3V3*%
X135377500Y-96090000D03*
%TD*%
D24*
%TO.P,VR,1,G*%
%TO.N,GND*%
X138930000Y-64110000D03*
%TO.P,VR,2,O*%
%TO.N,+3V3*%
X138930000Y-61810000D03*
%TO.P,VR,3,I*%
%TO.N,VBUS1*%
X138930000Y-59510000D03*
D25*
%TO.P,VR,4,O*%
%TO.N,+3V3*%
X132230000Y-61810000D03*
%TD*%
D19*
%TO.P,C8,1*%
%TO.N,+3V3*%
X131820000Y-92480000D03*
%TO.P,C8,2*%
%TO.N,GND*%
X131820000Y-93295000D03*
%TD*%
D21*
%TO.P,J4,1,Pin_1*%
%TO.N,GND*%
X119790000Y-56600000D03*
D22*
%TO.P,J4,2,Pin_2*%
X119790000Y-59140000D03*
%TO.P,J4,3,Pin_3*%
X119790000Y-61680000D03*
%TO.P,J4,4,Pin_4*%
X119790000Y-64220000D03*
%TO.P,J4,5,Pin_5*%
%TO.N,USB-BOOT*%
X119790000Y-66760000D03*
%TO.P,J4,6,Pin_6*%
%TO.N,GPIO0*%
X119790000Y-69300000D03*
%TO.P,J4,7,Pin_7*%
%TO.N,GPIO1*%
X119790000Y-71840000D03*
%TO.P,J4,8,Pin_8*%
%TO.N,GPIO2*%
X119790000Y-74380000D03*
%TO.P,J4,9,Pin_9*%
%TO.N,GPIO3*%
X119740000Y-76920000D03*
%TO.P,J4,10,Pin_10*%
%TO.N,GPIO4*%
X119790000Y-79460000D03*
%TO.P,J4,11,Pin_11*%
%TO.N,GPIO5*%
X119790000Y-82000000D03*
%TO.P,J4,12,Pin_12*%
%TO.N,GPIO6*%
X119790000Y-84540000D03*
%TO.P,J4,13,Pin_13*%
%TO.N,GPIO7*%
X119790000Y-87080000D03*
%TO.P,J4,14,Pin_14*%
%TO.N,GPIO8*%
X119790000Y-89620000D03*
%TO.P,J4,15,Pin_15*%
%TO.N,GPIO9*%
X119790000Y-92160000D03*
%TO.P,J4,16,Pin_16*%
%TO.N,GPIO10*%
X119790000Y-94700000D03*
%TO.P,J4,17,Pin_17*%
%TO.N,GPIO11*%
X119790000Y-97240000D03*
%TO.P,J4,18,Pin_18*%
%TO.N,GPIO12*%
X119790000Y-99780000D03*
%TO.P,J4,19,Pin_19*%
%TO.N,GPIO13*%
X119790000Y-102320000D03*
%TO.P,J4,20,Pin_20*%
%TO.N,GPIO14*%
X119790000Y-104860000D03*
%TO.P,J4,21,Pin_21*%
%TO.N,GPIO15*%
X119790000Y-107400000D03*
%TD*%
D26*
%TO.P,R5,1*%
%TO.N,+3V3*%
X128210000Y-79135000D03*
%TO.P,R5,2*%
%TO.N,Net-(U2-QSPI_SS)*%
X128210000Y-77940000D03*
%TD*%
D27*
%TO.P,EXT SOURCE,1,Pin_1*%
%TO.N,+12V*%
X140493406Y-51894311D03*
D28*
%TO.P,EXT SOURCE,2,Pin_2*%
%TO.N,VBUS1*%
X138366594Y-50505689D03*
%TD*%
D11*
%TO.P,C16,1*%
%TO.N,+3V3*%
X123772500Y-86820000D03*
%TO.P,C16,2*%
%TO.N,GND*%
X122637500Y-86820000D03*
%TD*%
D29*
%TO.P,C6,1*%
%TO.N,GND*%
X136510000Y-75412500D03*
%TO.P,C6,2*%
%TO.N,+1V1*%
X136510000Y-76547500D03*
%TD*%
D10*
%TO.P,C3,1*%
%TO.N,Net-(U2-XIN)*%
X129452500Y-94800000D03*
%TO.P,C3,2*%
%TO.N,GND*%
X130587500Y-94800000D03*
%TD*%
D17*
%TO.P,C15,1*%
%TO.N,+3V3*%
X133620000Y-76557500D03*
%TO.P,C15,2*%
%TO.N,GND*%
X133620000Y-75422500D03*
%TD*%
D11*
%TO.P,C9,1*%
%TO.N,+3V3*%
X123772500Y-85860000D03*
%TO.P,C9,2*%
%TO.N,GND*%
X122637500Y-85860000D03*
%TD*%
D30*
%TO.P,USB,1,VBUS*%
%TO.N,VBUS*%
X130190000Y-50330000D03*
D31*
%TO.P,USB,2,D-*%
%TO.N,USBD-*%
X130840000Y-51330000D03*
D30*
%TO.P,USB,3,D+*%
%TO.N,USBD+*%
X131490000Y-50330000D03*
%TO.P,USB,5,GND*%
%TO.N,GND*%
X132790000Y-50330000D03*
D32*
%TO.P,USB,6,Shield*%
X127910000Y-50610000D03*
%TO.P,USB,7*%
X135070000Y-50610000D03*
%TD*%
D33*
%TO.P,Y1,1,1*%
%TO.N,Net-(U2-XIN)*%
X130180000Y-98070000D03*
D24*
%TO.P,Y1,2,2*%
%TO.N,GND*%
X132480000Y-98070000D03*
%TO.P,Y1,3,3*%
%TO.N,Net-(C4-Pad2)*%
X132480000Y-96320000D03*
%TO.P,Y1,4,4*%
%TO.N,GND*%
X130180000Y-96320000D03*
%TD*%
D34*
%TO.P,C5,1*%
%TO.N,GND*%
X132630000Y-93310000D03*
%TO.P,C5,2*%
%TO.N,+1V1*%
X132630000Y-92495000D03*
%TD*%
D26*
%TO.P,R6,1*%
%TO.N,USB-BOOT*%
X127220000Y-79145000D03*
%TO.P,R6,2*%
%TO.N,Net-(U2-QSPI_SS)*%
X127220000Y-77950000D03*
%TD*%
D35*
%TO.P,U3,1,~{CS}*%
%TO.N,Net-(U2-QSPI_SS)*%
X127005000Y-75860000D03*
D36*
%TO.P,U3,2,DO/IO_{1}*%
%TO.N,Net-(U2-QSPI_SD1)*%
X128275000Y-75860000D03*
%TO.P,U3,3,~{WP}/IO_{2}*%
%TO.N,Net-(U2-QSPI_SD2)*%
X129545000Y-75860000D03*
%TO.P,U3,4,GND*%
%TO.N,GND*%
X130815000Y-75860000D03*
%TO.P,U3,5,DI/IO_{0}*%
%TO.N,Net-(U2-QSPI_SD0)*%
X130815000Y-67960000D03*
%TO.P,U3,6,CLK*%
%TO.N,Net-(U2-QSPI_SCLK)*%
X129545000Y-67960000D03*
%TO.P,U3,7,~{HOLD}/~{RESET}/IO_{3}*%
%TO.N,Net-(U2-QSPI_SD3)*%
X128275000Y-67960000D03*
%TO.P,U3,8,VCC*%
%TO.N,+3V3*%
X127005000Y-67960000D03*
%TD*%
D10*
%TO.P,C14,1*%
%TO.N,+3V3*%
X139065000Y-86360000D03*
%TO.P,C14,2*%
%TO.N,GND*%
X140200000Y-86360000D03*
%TD*%
D37*
%TO.P,R1,1*%
%TO.N,Net-(D1-A)*%
X123972127Y-55467364D03*
%TO.P,R1,2*%
%TO.N,+3V3*%
X126567873Y-53772636D03*
%TD*%
D26*
%TO.P,R4,1*%
%TO.N,Net-(C4-Pad2)*%
X130960000Y-93365000D03*
%TO.P,R4,2*%
%TO.N,Net-(U2-XOUT)*%
X130960000Y-92170000D03*
%TD*%
D38*
%TO.P,SW1,1,A*%
%TO.N,GND*%
X128800000Y-104470000D03*
%TO.P,SW1,2,B*%
%TO.N,RUN*%
X134200000Y-104470000D03*
%TD*%
D12*
%TO.P,R2,1*%
%TO.N,USBD+*%
X134580000Y-75360000D03*
%TO.P,R2,2*%
%TO.N,/UD+*%
X134580000Y-76555000D03*
%TD*%
D29*
%TO.P,C7,1*%
%TO.N,GND*%
X132660000Y-75412500D03*
%TO.P,C7,2*%
%TO.N,+1V1*%
X132660000Y-76547500D03*
%TD*%
D39*
%TO.N,+3V3*%
X136870000Y-69050000D03*
X127220000Y-61770000D03*
X133170000Y-77880000D03*
X131900000Y-91340000D03*
X135960000Y-97750000D03*
X130320000Y-61600000D03*
X136570000Y-79250000D03*
%TO.N,GND*%
X120640000Y-53390000D03*
X136520000Y-73350000D03*
X130480000Y-72190000D03*
X139100000Y-89150000D03*
X129270000Y-91400000D03*
X136890000Y-67210000D03*
X132617000Y-73320000D03*
X134160500Y-97470500D03*
X132250000Y-57720000D03*
X122740000Y-83980000D03*
%TO.N,+1V1*%
X132440000Y-86920000D03*
X133640000Y-92890000D03*
X133190000Y-82350000D03*
X131840000Y-78650000D03*
%TO.N,RUN*%
X134200000Y-101830000D03*
%TD*%
D40*
%TO.N,+3V3*%
X133620000Y-77430000D02*
X133170000Y-77880000D01*
X136910000Y-77780000D02*
X137450000Y-77240000D01*
X135052500Y-85655000D02*
X137995000Y-85655000D01*
D41*
X123772500Y-87210000D02*
X123772500Y-86820000D01*
D40*
X132641000Y-78409000D02*
X133170000Y-77880000D01*
X132641000Y-78981786D02*
X132641000Y-78409000D01*
X139065000Y-86360000D02*
X138700000Y-86360000D01*
D41*
X123772500Y-85860000D02*
X123772500Y-87210000D01*
D40*
X133815000Y-80135000D02*
X136170000Y-77780000D01*
D42*
X139065000Y-86360000D02*
X139065000Y-87320000D01*
D41*
X123772500Y-87770000D02*
X123772500Y-87210000D01*
D40*
X131815000Y-79807786D02*
X132641000Y-78981786D01*
X133620000Y-76557500D02*
X133620000Y-77430000D01*
X131815000Y-81217500D02*
X131815000Y-79807786D01*
X136170000Y-77780000D02*
X136910000Y-77780000D01*
X137450000Y-77240000D02*
X137450000Y-76547500D01*
D42*
X139065000Y-86360000D02*
X139065000Y-85392500D01*
D40*
X138700000Y-86360000D02*
X137995000Y-85655000D01*
X133815000Y-81217500D02*
X133815000Y-80135000D01*
D41*
X139065000Y-85392500D02*
X139062500Y-85390000D01*
D43*
%TO.N,VBUS1*%
X135320000Y-63120000D02*
X138930000Y-59510000D01*
X135320000Y-69940000D02*
X135320000Y-63120000D01*
X136525000Y-71145000D02*
X135320000Y-69940000D01*
X138930000Y-59510000D02*
X137720000Y-58300000D01*
X137720000Y-58300000D02*
X137720000Y-51152283D01*
X142650000Y-61680000D02*
X141100000Y-61680000D01*
X141100000Y-61680000D02*
X138930000Y-59510000D01*
X137720000Y-51152283D02*
X138366594Y-50505689D01*
D42*
%TO.N,GND*%
X130815000Y-75860000D02*
X130815000Y-72525000D01*
D43*
X134562500Y-96090000D02*
X134562500Y-97068500D01*
D42*
X119790000Y-54240000D02*
X120640000Y-53390000D01*
X136560000Y-73390000D02*
X136520000Y-73350000D01*
D44*
X122637500Y-87770000D02*
X122637500Y-86820000D01*
D42*
X138930000Y-64110000D02*
X138930000Y-65170000D01*
D41*
X134790000Y-50330000D02*
X135070000Y-50610000D01*
D40*
X129270000Y-91400000D02*
X129100000Y-91230000D01*
D42*
X139650000Y-88950000D02*
X140200000Y-88400000D01*
X138930000Y-65170000D02*
X136890000Y-67210000D01*
X135070000Y-54900000D02*
X132250000Y-57720000D01*
D40*
X130615000Y-89505000D02*
X130615000Y-88092500D01*
D43*
X133610000Y-75412500D02*
X133620000Y-75422500D01*
X133561000Y-98070000D02*
X134160500Y-97470500D01*
D42*
X119790000Y-59140000D02*
X119790000Y-61680000D01*
D43*
X132230000Y-94460000D02*
X132621500Y-94068500D01*
X136510000Y-75412500D02*
X137450000Y-75412500D01*
X132480000Y-98070000D02*
X133561000Y-98070000D01*
D42*
X139180000Y-89150000D02*
X139380000Y-88950000D01*
D43*
X132630000Y-94060000D02*
X132621500Y-94068500D01*
X136520000Y-72330000D02*
X136525000Y-72325000D01*
X131820000Y-93295000D02*
X132615000Y-93295000D01*
D42*
X136510000Y-75412500D02*
X136560000Y-75362500D01*
X139380000Y-88950000D02*
X139650000Y-88950000D01*
X132790000Y-50330000D02*
X134790000Y-50330000D01*
D43*
X134562500Y-97068500D02*
X134160500Y-97470500D01*
X132660000Y-75412500D02*
X133610000Y-75412500D01*
D42*
X127380000Y-48760000D02*
X124507115Y-48760000D01*
D41*
X121479940Y-52550060D02*
X120640000Y-53390000D01*
D42*
X124507115Y-48760000D02*
X124054474Y-49055526D01*
D43*
X134562500Y-94733034D02*
X133853065Y-94023599D01*
D42*
X119790000Y-56600000D02*
X119790000Y-54240000D01*
D43*
X130180000Y-96320000D02*
X131930000Y-98070000D01*
D44*
X140200000Y-85392500D02*
X140197500Y-85390000D01*
D43*
X132615000Y-93295000D02*
X132630000Y-93310000D01*
D42*
X136560000Y-75362500D02*
X136560000Y-73390000D01*
D45*
X130815000Y-72525000D02*
X130480000Y-72190000D01*
D43*
X130098500Y-99061500D02*
X128800000Y-100360000D01*
D42*
X119790000Y-64220000D02*
X119790000Y-61680000D01*
D43*
X136525000Y-72325000D02*
X136525000Y-71960000D01*
X132621500Y-94068500D02*
X133808164Y-94068500D01*
D42*
X127910000Y-50610000D02*
X127910000Y-49290000D01*
D40*
X129100000Y-91230000D02*
X129100000Y-91020000D01*
D43*
X130587500Y-95912500D02*
X130180000Y-96320000D01*
D42*
X139100000Y-89150000D02*
X139180000Y-89150000D01*
D43*
X134562500Y-96090000D02*
X134562500Y-94733034D01*
D42*
X140200000Y-86360000D02*
X140200000Y-85392500D01*
D43*
X130587500Y-94800000D02*
X130587500Y-95912500D01*
X132230000Y-94770000D02*
X132230000Y-94460000D01*
D44*
X122637500Y-85860000D02*
X122637500Y-84082500D01*
D43*
X132660000Y-73363000D02*
X132617000Y-73320000D01*
D42*
X140200000Y-86360000D02*
X140200000Y-87320000D01*
D43*
X131488500Y-99061500D02*
X130098500Y-99061500D01*
D40*
X129100000Y-91020000D02*
X130615000Y-89505000D01*
D42*
X122557988Y-50552012D02*
X122557988Y-52550060D01*
X127910000Y-49290000D02*
X127380000Y-48760000D01*
X135070000Y-50610000D02*
X135070000Y-54900000D01*
D44*
X122637500Y-85860000D02*
X122637500Y-86820000D01*
D43*
X132660000Y-75412500D02*
X132660000Y-73363000D01*
X132480000Y-98070000D02*
X131488500Y-99061500D01*
X128800000Y-100360000D02*
X128800000Y-104470000D01*
D44*
X122637500Y-84082500D02*
X122740000Y-83980000D01*
D41*
X122557988Y-52550060D02*
X121479940Y-52550060D01*
D42*
X119790000Y-56600000D02*
X119790000Y-59140000D01*
D43*
X131930000Y-98070000D02*
X132480000Y-98070000D01*
X136520000Y-73350000D02*
X136520000Y-72330000D01*
D42*
X124054474Y-49055526D02*
X122557988Y-50552012D01*
X140200000Y-88400000D02*
X140200000Y-87320000D01*
D43*
X132630000Y-93310000D02*
X132630000Y-94060000D01*
D40*
%TO.N,Net-(U2-XIN)*%
X129452500Y-94800000D02*
X129452500Y-93947500D01*
D43*
X129452500Y-94800000D02*
X129088500Y-95164000D01*
X129480000Y-98070000D02*
X130180000Y-98070000D01*
D40*
X130210000Y-90485000D02*
X131015000Y-89680000D01*
D43*
X129088500Y-97678500D02*
X129480000Y-98070000D01*
D40*
X130210000Y-93190000D02*
X130210000Y-90485000D01*
D43*
X129088500Y-95164000D02*
X129088500Y-97678500D01*
D40*
X129452500Y-93947500D02*
X130210000Y-93190000D01*
X131015000Y-89680000D02*
X131015000Y-88092500D01*
D43*
%TO.N,Net-(C4-Pad2)*%
X131471000Y-95311000D02*
X132480000Y-96320000D01*
X133365000Y-95435000D02*
X132480000Y-96320000D01*
X130960000Y-93365000D02*
X130960000Y-94027836D01*
X133365000Y-94770000D02*
X133365000Y-95435000D01*
X131471000Y-94538836D02*
X131471000Y-95311000D01*
X130960000Y-94027836D02*
X131471000Y-94538836D01*
D40*
%TO.N,+1V1*%
X132215000Y-88901900D02*
X132213000Y-88903900D01*
X133415000Y-81217500D02*
X133415000Y-82125000D01*
X132213000Y-90190000D02*
X132213000Y-90533000D01*
X132213000Y-88903900D02*
X132213000Y-90190000D01*
D45*
X132660000Y-76547500D02*
X132660000Y-77257100D01*
D40*
X133415000Y-81217500D02*
X133415000Y-79965000D01*
X133415000Y-79965000D02*
X136450000Y-76930000D01*
X131415000Y-79075000D02*
X131840000Y-78650000D01*
X133005000Y-92495000D02*
X132630000Y-92495000D01*
D45*
X132660000Y-77257100D02*
X131840000Y-78077100D01*
D40*
X133415000Y-82125000D02*
X133190000Y-82350000D01*
X131415000Y-81217500D02*
X131415000Y-79075000D01*
X132215000Y-88092500D02*
X132215000Y-88901900D01*
X133400000Y-92890000D02*
X133005000Y-92495000D01*
X131840000Y-78077100D02*
X131840000Y-78650000D01*
X133640000Y-92890000D02*
X133400000Y-92890000D01*
X132213000Y-90505100D02*
X133640000Y-91932100D01*
X133640000Y-91932100D02*
X133640000Y-92890000D01*
D43*
%TO.N,Net-(D1-A)*%
X124840000Y-51140000D02*
X124840000Y-54599491D01*
X125070000Y-50910000D02*
X124840000Y-51140000D01*
X124840000Y-54599491D02*
X123972127Y-55467364D01*
%TO.N,USBD-*%
X129711811Y-56482600D02*
X129394400Y-56482600D01*
X129162000Y-56250200D02*
X129162000Y-56134000D01*
X129711792Y-57644600D02*
X129394400Y-57644600D01*
X129394400Y-58225600D02*
X129711792Y-58225600D01*
X129162000Y-53008000D02*
X130840000Y-51330000D01*
X129162000Y-55780000D02*
X129162000Y-53008000D01*
X129162000Y-63408928D02*
X129162000Y-59620000D01*
X135550000Y-74058000D02*
X133752000Y-72260000D01*
X129394400Y-59387600D02*
X129711792Y-59387600D01*
X133752000Y-67161800D02*
X131390200Y-64800000D01*
X130573072Y-64820000D02*
X129162000Y-63408928D01*
X131390200Y-64800000D02*
X131260000Y-64800000D01*
X129944192Y-57993200D02*
X129944192Y-57877000D01*
X131240000Y-64820000D02*
X130573072Y-64820000D01*
X129162000Y-58574200D02*
X129162000Y-58458000D01*
X129711792Y-58806600D02*
X129394400Y-58806600D01*
X129944192Y-59155200D02*
X129944192Y-59039000D01*
X135550000Y-75352500D02*
X135550000Y-74058000D01*
X129394400Y-57063600D02*
X129711811Y-57063600D01*
X129162000Y-57412200D02*
X129162000Y-57296000D01*
X129944211Y-56831200D02*
X129944211Y-56715000D01*
X129162000Y-56134000D02*
X129162000Y-55780000D01*
X133752000Y-72260000D02*
X133752000Y-67161800D01*
X131260000Y-64800000D02*
X131240000Y-64820000D01*
X129711792Y-59387600D02*
G75*
G03*
X129944200Y-59155200I8J232400D01*
G01*
X129162000Y-58458000D02*
G75*
G02*
X129394400Y-58225600I232400J0D01*
G01*
X129394400Y-58806600D02*
G75*
G02*
X129162000Y-58574200I0J232400D01*
G01*
X129394400Y-57644600D02*
G75*
G02*
X129162000Y-57412200I0J232400D01*
G01*
X129162000Y-57296000D02*
G75*
G02*
X129394400Y-57063600I232400J0D01*
G01*
X129711792Y-58225600D02*
G75*
G03*
X129944200Y-57993200I8J232400D01*
G01*
X129394400Y-56482600D02*
G75*
G02*
X129162000Y-56250200I0J232400D01*
G01*
X129162000Y-59620000D02*
G75*
G02*
X129394400Y-59387600I232400J0D01*
G01*
X129944211Y-56715000D02*
G75*
G03*
X129711811Y-56482589I-232411J0D01*
G01*
X129944192Y-59039000D02*
G75*
G03*
X129711792Y-58806608I-232392J0D01*
G01*
X129944192Y-57877000D02*
G75*
G03*
X129711792Y-57644608I-232392J0D01*
G01*
X129711811Y-57063600D02*
G75*
G03*
X129944200Y-56831200I-11J232400D01*
G01*
%TO.N,USBD+*%
X128580000Y-52550000D02*
X129040000Y-52090000D01*
X131490000Y-49840000D02*
X131490000Y-50330000D01*
X133170000Y-67402872D02*
X131217128Y-65450000D01*
X128580000Y-63650000D02*
X128580000Y-52550000D01*
X129040000Y-49840000D02*
X129630000Y-49250000D01*
X134580000Y-73960000D02*
X133170000Y-72550000D01*
X130900000Y-49250000D02*
X131490000Y-49840000D01*
X129630000Y-49250000D02*
X130900000Y-49250000D01*
X131217128Y-65450000D02*
X130380000Y-65450000D01*
X130380000Y-65450000D02*
X128580000Y-63650000D01*
X129040000Y-52090000D02*
X129040000Y-49840000D01*
X134580000Y-75360000D02*
X134580000Y-73960000D01*
X133170000Y-72550000D02*
X133170000Y-67402872D01*
D41*
%TO.N,+12V*%
X140493406Y-51894311D02*
X141889547Y-53290453D01*
X142650000Y-56600000D02*
X142650000Y-54050906D01*
X142650000Y-56600000D02*
X142650000Y-59140000D01*
X141889547Y-53290453D02*
X142629095Y-54030000D01*
D40*
%TO.N,GPIO2*%
X120040000Y-74380000D02*
X121770000Y-76110000D01*
X127025000Y-83255000D02*
X128177500Y-83255000D01*
X121770000Y-78000000D02*
X127025000Y-83255000D01*
X121770000Y-76380000D02*
X121770000Y-78000000D01*
X121770000Y-76110000D02*
X121770000Y-76380000D01*
X119790000Y-74380000D02*
X120040000Y-74380000D01*
%TO.N,GPIO10*%
X120330000Y-94700000D02*
X119790000Y-94700000D01*
X128177500Y-86855000D02*
X127592100Y-86855000D01*
X122008550Y-92438550D02*
X122008550Y-93021450D01*
X127592100Y-86855000D02*
X122008550Y-92438550D01*
X122008550Y-93021450D02*
X120330000Y-94700000D01*
%TO.N,GPIO4*%
X126415000Y-84055000D02*
X123450000Y-81090000D01*
X128177500Y-84055000D02*
X126415000Y-84055000D01*
X121060000Y-79460000D02*
X119790000Y-79460000D01*
X122690000Y-81090000D02*
X121060000Y-79460000D01*
X123450000Y-81090000D02*
X122690000Y-81090000D01*
%TO.N,GPIO11*%
X122410000Y-92610000D02*
X122410000Y-94730000D01*
X128177500Y-87255000D02*
X127765000Y-87255000D01*
X122410000Y-94730000D02*
X119900000Y-97240000D01*
X127765000Y-87255000D02*
X122410000Y-92610000D01*
X119900000Y-97240000D02*
X119790000Y-97240000D01*
X128177500Y-87255000D02*
X128055000Y-87255000D01*
%TO.N,GPIO5*%
X121550000Y-81720000D02*
X121270000Y-82000000D01*
X128177500Y-84455000D02*
X126245000Y-84455000D01*
X126245000Y-84455000D02*
X123510000Y-81720000D01*
X123510000Y-81720000D02*
X121550000Y-81720000D01*
X121270000Y-82000000D02*
X119790000Y-82000000D01*
%TO.N,GPIO15*%
X130215000Y-88092500D02*
X130215000Y-89142100D01*
X123003050Y-104616950D02*
X120220000Y-107400000D01*
X123003050Y-98736950D02*
X123003050Y-104616950D01*
X120220000Y-107400000D02*
X119790000Y-107400000D01*
X124760000Y-94597100D02*
X124760000Y-96980000D01*
X124760000Y-96980000D02*
X123003050Y-98736950D01*
X130215000Y-89142100D02*
X124760000Y-94597100D01*
%TO.N,GPIO13*%
X122160000Y-100060000D02*
X119900000Y-102320000D01*
X129415000Y-88628824D02*
X123740000Y-94303824D01*
X122160000Y-98300000D02*
X122160000Y-100060000D01*
X129415000Y-88092500D02*
X129415000Y-88628824D01*
X123740000Y-94303824D02*
X123740000Y-96720000D01*
X119900000Y-102320000D02*
X119790000Y-102320000D01*
X123740000Y-96720000D02*
X122160000Y-98300000D01*
%TO.N,GPIO12*%
X119930000Y-99780000D02*
X119790000Y-99780000D01*
X129015000Y-88455000D02*
X123290000Y-94180000D01*
X123290000Y-94180000D02*
X123290000Y-96420000D01*
X129015000Y-88092500D02*
X129015000Y-88455000D01*
X123290000Y-96420000D02*
X119930000Y-99780000D01*
%TO.N,GPIO8*%
X123350000Y-89710000D02*
X119880000Y-89710000D01*
X119880000Y-89710000D02*
X119790000Y-89620000D01*
X128177500Y-86055000D02*
X127225000Y-86055000D01*
X123570000Y-89710000D02*
X123350000Y-89710000D01*
X127225000Y-86055000D02*
X123570000Y-89710000D01*
%TO.N,GPIO3*%
X119900000Y-76920000D02*
X119740000Y-76920000D01*
X126635000Y-83655000D02*
X119900000Y-76920000D01*
X128177500Y-83655000D02*
X126635000Y-83655000D01*
%TO.N,GPIO14*%
X129815000Y-88975000D02*
X124230000Y-94560000D01*
X120180000Y-104860000D02*
X119790000Y-104860000D01*
X124230000Y-96840000D02*
X122561000Y-98509000D01*
X122561000Y-98509000D02*
X122561000Y-102479000D01*
X129815000Y-88092500D02*
X129815000Y-88975000D01*
X124230000Y-94560000D02*
X124230000Y-96840000D01*
X122561000Y-102479000D02*
X120180000Y-104860000D01*
%TO.N,GPIO9*%
X128177500Y-86455000D02*
X127425000Y-86455000D01*
X121720000Y-92160000D02*
X119790000Y-92160000D01*
X127425000Y-86455000D02*
X121720000Y-92160000D01*
%TO.N,GPIO0*%
X120240000Y-69300000D02*
X119790000Y-69300000D01*
X122620000Y-77550000D02*
X122620000Y-71680000D01*
X128177500Y-82455000D02*
X127525000Y-82455000D01*
X122620000Y-71680000D02*
X120240000Y-69300000D01*
X127525000Y-82455000D02*
X122620000Y-77550000D01*
%TO.N,GPIO7*%
X127521000Y-85255000D02*
X127520000Y-85256000D01*
X122447100Y-82630000D02*
X123072900Y-82630000D01*
X128177500Y-85255000D02*
X127521000Y-85255000D01*
X125698900Y-85256000D02*
X127520000Y-85256000D01*
X123072900Y-82630000D02*
X125698900Y-85256000D01*
X120335201Y-87080000D02*
X121805740Y-85609461D01*
X127520000Y-85256000D02*
X127641226Y-85256000D01*
X119790000Y-87080000D02*
X120335201Y-87080000D01*
X121805740Y-83271360D02*
X122447100Y-82630000D01*
X121805740Y-85609461D02*
X121805740Y-83271360D01*
%TO.N,GPIO1*%
X128177500Y-82855000D02*
X127195000Y-82855000D01*
X119790000Y-71840000D02*
X120840000Y-71840000D01*
X120840000Y-71840000D02*
X122220000Y-73220000D01*
X122220000Y-77880000D02*
X122220000Y-73220000D01*
X127195000Y-82855000D02*
X122220000Y-77880000D01*
%TO.N,GPIO6*%
X125865000Y-84855000D02*
X123140000Y-82130000D01*
X122380000Y-82130000D02*
X119970000Y-84540000D01*
X119970000Y-84540000D02*
X119790000Y-84540000D01*
X128177500Y-84855000D02*
X125865000Y-84855000D01*
X123140000Y-82130000D02*
X122380000Y-82130000D01*
%TO.N,USB-BOOT*%
X127220000Y-79145000D02*
X124782100Y-79145000D01*
X123030000Y-77392900D02*
X123030000Y-68980000D01*
X120810000Y-66760000D02*
X123030000Y-68980000D01*
X119790000Y-66760000D02*
X120810000Y-66760000D01*
X124782100Y-79145000D02*
X123030000Y-77392900D01*
%TO.N,GPIO20*%
X142650000Y-89620000D02*
X141040000Y-89620000D01*
X137510000Y-90120000D02*
X137510000Y-87872900D01*
X137510000Y-87872900D02*
X136093100Y-86456000D01*
X135052500Y-86455000D02*
X136105000Y-86455000D01*
X137960000Y-90570000D02*
X137510000Y-90120000D01*
X140090000Y-90570000D02*
X137960000Y-90570000D01*
X141040000Y-89620000D02*
X140090000Y-90570000D01*
%TO.N,GPIO23*%
X139537100Y-82000000D02*
X142650000Y-82000000D01*
X137240000Y-84297100D02*
X139537100Y-82000000D01*
X136715000Y-84855000D02*
X137240000Y-84330000D01*
X135052500Y-84855000D02*
X136715000Y-84855000D01*
X137240000Y-84330000D02*
X137240000Y-84297100D01*
%TO.N,GPIO26-ADC0*%
X139850000Y-79950000D02*
X139850000Y-75640000D01*
X139850000Y-75640000D02*
X141110000Y-74380000D01*
X136145000Y-83655000D02*
X139850000Y-79950000D01*
X135052500Y-83655000D02*
X136145000Y-83655000D01*
X141110000Y-74380000D02*
X142650000Y-74380000D01*
%TO.N,SWCLK*%
X142650000Y-107400000D02*
X139838000Y-104588000D01*
X136045000Y-93770000D02*
X133042500Y-90767500D01*
X132615000Y-88092500D02*
X132615000Y-89639000D01*
X132614000Y-90339000D02*
X132614000Y-89640000D01*
X136890300Y-96509700D02*
X136130300Y-95749700D01*
X139838000Y-99457400D02*
X136890300Y-96509700D01*
X136045000Y-95664400D02*
X136045000Y-93770000D01*
X139838000Y-104588000D02*
X139838000Y-99457400D01*
X133042500Y-90767500D02*
X132614000Y-90339000D01*
%TO.N,GPIO18*%
X142650000Y-94700000D02*
X142040000Y-94090000D01*
X141930000Y-94090000D02*
X139520000Y-91680000D01*
X135695000Y-87255000D02*
X135052500Y-87255000D01*
X137800000Y-91680000D02*
X136580000Y-90460000D01*
X136580000Y-88140000D02*
X135695000Y-87255000D01*
X142040000Y-94090000D02*
X141930000Y-94090000D01*
X136580000Y-90460000D02*
X136580000Y-88140000D01*
X139520000Y-91680000D02*
X137800000Y-91680000D01*
%TO.N,GPIO29-ADC3*%
X135605000Y-82455000D02*
X135052500Y-82455000D01*
X142650000Y-66760000D02*
X138560000Y-70850000D01*
X138170000Y-79850000D02*
X138170000Y-79890000D01*
X138560000Y-70850000D02*
X138560000Y-79460000D01*
X138170000Y-79890000D02*
X135605000Y-82455000D01*
X138560000Y-79460000D02*
X138170000Y-79850000D01*
%TO.N,GPIO21*%
X140882000Y-88808000D02*
X139740000Y-89950000D01*
X140882000Y-87570000D02*
X140882000Y-88808000D01*
X136842100Y-86625000D02*
X136272100Y-86055000D01*
X136842100Y-86637900D02*
X136842100Y-86625000D01*
X137980000Y-89590000D02*
X137980000Y-87775800D01*
X136272100Y-86055000D02*
X135052500Y-86055000D01*
X137980000Y-87775800D02*
X136842100Y-86637900D01*
X141372000Y-87080000D02*
X140882000Y-87570000D01*
X142650000Y-87080000D02*
X141372000Y-87080000D01*
X139740000Y-89950000D02*
X138340000Y-89950000D01*
X138340000Y-89950000D02*
X137980000Y-89590000D01*
%TO.N,GPIO22*%
X136885000Y-85255000D02*
X138320000Y-83820000D01*
X138320000Y-83820000D02*
X140350000Y-83820000D01*
X140350000Y-83820000D02*
X141070000Y-84540000D01*
X135052500Y-85255000D02*
X136885000Y-85255000D01*
X141070000Y-84540000D02*
X142650000Y-84540000D01*
%TO.N,GPIO16*%
X141861900Y-99780000D02*
X137248000Y-95166100D01*
X142650000Y-99780000D02*
X141861900Y-99780000D01*
X137248000Y-93210100D02*
X133815000Y-89777100D01*
X133815000Y-89777100D02*
X133815000Y-88092500D01*
X137248000Y-95166100D02*
X137248000Y-93210100D01*
%TO.N,SWD*%
X133015000Y-88092500D02*
X133015000Y-90112100D01*
X133256450Y-90353550D02*
X133014000Y-90111100D01*
X136445200Y-93542300D02*
X133256450Y-90353550D01*
X142650000Y-104860000D02*
X140239000Y-102449000D01*
X136446000Y-93542300D02*
X136445200Y-93542300D01*
X140239000Y-102449000D02*
X140239000Y-99460000D01*
X140239000Y-99460000D02*
X140239000Y-99291300D01*
X140239000Y-99291300D02*
X136978850Y-96031150D01*
X136978850Y-96031150D02*
X136446000Y-95498300D01*
X136446000Y-95498300D02*
X136446000Y-93542300D01*
%TO.N,RUN*%
X135050800Y-91580000D02*
X136847000Y-93376200D01*
D43*
X134200000Y-101830000D02*
X134200000Y-104470000D01*
D40*
X140640000Y-100310000D02*
X140640000Y-99520000D01*
X133415000Y-89895000D02*
X133415000Y-89945000D01*
X136847000Y-95332200D02*
X136847000Y-93400000D01*
X133415000Y-88092500D02*
X133415000Y-89895000D01*
D43*
X134200000Y-101480000D02*
X134200000Y-101830000D01*
D40*
X135050000Y-91580000D02*
X135050800Y-91580000D01*
D43*
X132255000Y-100390000D02*
X133110000Y-100390000D01*
D40*
X133415000Y-89945000D02*
X135040000Y-91570000D01*
D43*
X133110000Y-100390000D02*
X134200000Y-101480000D01*
D40*
X142650000Y-102320000D02*
X140640000Y-100310000D01*
X140640000Y-99125200D02*
X136957400Y-95442600D01*
X136957400Y-95442600D02*
X136847000Y-95332200D01*
X140640000Y-99520000D02*
X140640000Y-99125200D01*
X135040000Y-91570000D02*
X135050000Y-91580000D01*
%TO.N,GPIO17*%
X135349000Y-90710000D02*
X137649000Y-93010000D01*
X137649000Y-95000000D02*
X137649000Y-93010000D01*
X134215000Y-88092500D02*
X134215000Y-89610000D01*
X139889000Y-97240000D02*
X137649000Y-95000000D01*
X142650000Y-97240000D02*
X139889000Y-97240000D01*
X135315000Y-90710000D02*
X134215000Y-89610000D01*
X135315000Y-90710000D02*
X135349000Y-90710000D01*
%TO.N,GPIO24*%
X141510000Y-79460000D02*
X142650000Y-79460000D01*
X135052500Y-84455000D02*
X136515000Y-84455000D01*
X136515000Y-84455000D02*
X141510000Y-79460000D01*
%TO.N,GPIO27-ADC1*%
X139440000Y-79760000D02*
X139440000Y-73730000D01*
X135052500Y-83255000D02*
X135945000Y-83255000D01*
X142400000Y-71840000D02*
X142650000Y-71840000D01*
X135945000Y-83255000D02*
X139440000Y-79760000D01*
X142340000Y-71780000D02*
X142400000Y-71840000D01*
X139440000Y-73730000D02*
X141390000Y-71780000D01*
X141390000Y-71780000D02*
X142340000Y-71780000D01*
%TO.N,GPIO28-ADC2*%
X138980000Y-79650000D02*
X138980000Y-70997100D01*
X135775000Y-82855000D02*
X138980000Y-79650000D01*
X135052500Y-82855000D02*
X135775000Y-82855000D01*
X138980000Y-70997100D02*
X140677100Y-69300000D01*
X140677100Y-69300000D02*
X142650000Y-69300000D01*
%TO.N,GPIO19*%
X142650000Y-92160000D02*
X141660000Y-91170000D01*
X141660000Y-91170000D02*
X137990000Y-91170000D01*
X135925000Y-86855000D02*
X135052500Y-86855000D01*
X137990000Y-91170000D02*
X136990000Y-90170000D01*
X136990000Y-87920000D02*
X135925000Y-86855000D01*
X136990000Y-90170000D02*
X136990000Y-87920000D01*
%TO.N,GPIO25*%
X135052500Y-84055000D02*
X136325000Y-84055000D01*
X137150000Y-83230000D02*
X137150000Y-83217100D01*
X142580000Y-76920000D02*
X142600000Y-76900000D01*
X137150000Y-83217100D02*
X140340000Y-80027100D01*
X141340000Y-76920000D02*
X142580000Y-76920000D01*
X142600000Y-76900000D02*
X142600000Y-76920000D01*
X140340000Y-80027100D02*
X140340000Y-77920000D01*
X136325000Y-84055000D02*
X137150000Y-83230000D01*
X140340000Y-77920000D02*
X141340000Y-76920000D01*
%TO.N,/UD+*%
X134580000Y-77612900D02*
X134580000Y-76555000D01*
X133042000Y-79147886D02*
X133045014Y-79147886D01*
X132615000Y-81217500D02*
X132615000Y-79574886D01*
X132615000Y-79574886D02*
X133042000Y-79147886D01*
X133045014Y-79147886D02*
X134580000Y-77612900D01*
%TO.N,/UD-*%
X133015000Y-79745000D02*
X133015000Y-81217500D01*
X135550000Y-77210000D02*
X133015000Y-79745000D01*
X135550000Y-76547500D02*
X135550000Y-77210000D01*
%TO.N,Net-(U2-XOUT)*%
X131415000Y-88092500D02*
X131415000Y-89935000D01*
X131415000Y-89935000D02*
X130960000Y-90390000D01*
X130960000Y-90390000D02*
X130960000Y-92170000D01*
%TO.N,Net-(U2-QSPI_SS)*%
X129010000Y-78620000D02*
X129015000Y-78625000D01*
X129015000Y-78625000D02*
X129015000Y-81217500D01*
X129010000Y-78430000D02*
X129010000Y-78620000D01*
X128520000Y-77940000D02*
X128210000Y-77940000D01*
X127005000Y-75860000D02*
X127005000Y-77735000D01*
X127220000Y-77950000D02*
X128200000Y-77950000D01*
X127005000Y-77735000D02*
X127220000Y-77950000D01*
X128200000Y-77950000D02*
X128210000Y-77940000D01*
X129010000Y-78430000D02*
X128520000Y-77940000D01*
%TO.N,Net-(U2-QSPI_SD2)*%
X129815000Y-77665000D02*
X129545000Y-77395000D01*
X129815000Y-81217500D02*
X129815000Y-77665000D01*
X129545000Y-77395000D02*
X129545000Y-75860000D01*
%TO.N,Net-(U2-QSPI_SD1)*%
X129415000Y-77955000D02*
X128275000Y-76815000D01*
X128275000Y-76815000D02*
X128275000Y-75860000D01*
X129415000Y-81217500D02*
X129415000Y-77955000D01*
%TO.N,Net-(U2-QSPI_SD0)*%
X129670000Y-70060000D02*
X130815000Y-68915000D01*
X130815000Y-68915000D02*
X130815000Y-67960000D01*
X130215000Y-74415000D02*
X129670000Y-73870000D01*
X130215000Y-81217500D02*
X130215000Y-74415000D01*
X129670000Y-73870000D02*
X129670000Y-70060000D01*
%TO.N,Net-(U2-QSPI_SCLK)*%
X130615000Y-81217500D02*
X130615000Y-78165000D01*
X130615000Y-78165000D02*
X131416000Y-77364000D01*
X129545000Y-67160000D02*
X129545000Y-67960000D01*
X130146000Y-66559000D02*
X129545000Y-67160000D01*
X131063942Y-66559000D02*
X130146000Y-66559000D01*
X131416000Y-77364000D02*
X131416000Y-66911058D01*
X131416000Y-66911058D02*
X131063942Y-66559000D01*
%TO.N,Net-(U2-QSPI_SD3)*%
X131817000Y-77533000D02*
X131015000Y-78335000D01*
X131817000Y-66744958D02*
X131817000Y-77533000D01*
X128275000Y-67160000D02*
X129277000Y-66158000D01*
X131230042Y-66158000D02*
X131817000Y-66744958D01*
X129277000Y-66158000D02*
X131230042Y-66158000D01*
X131015000Y-78335000D02*
X131015000Y-81217500D01*
X128275000Y-67960000D02*
X128275000Y-67160000D01*
%TD*%
%TA.AperFunction,Conductor*%
%TO.N,GPIO23*%
G36*
X141911444Y-81340089D02*
G01*
X142641216Y-81991270D01*
X142645107Y-81999335D01*
X142642156Y-82007790D01*
X142641216Y-82008730D01*
X141911444Y-82659910D01*
X141902989Y-82662861D01*
X141898458Y-82661663D01*
X140771876Y-82103223D01*
X140765985Y-82096478D01*
X140765372Y-82092740D01*
X140765372Y-81907259D01*
X140768799Y-81898986D01*
X140771876Y-81896776D01*
X141898459Y-81338335D01*
X141907392Y-81337732D01*
X141911444Y-81340089D01*
G37*
%TD.AperFunction*%
%TD*%
%TA.AperFunction,Conductor*%
%TO.N,GPIO1*%
G36*
X120760867Y-71402878D02*
G01*
X121504698Y-72361451D01*
X121507063Y-72370088D01*
X121503728Y-72376897D01*
X121372550Y-72508075D01*
X121365454Y-72511443D01*
X120253572Y-72623869D01*
X120244996Y-72621291D01*
X120242281Y-72618110D01*
X120092999Y-72361451D01*
X119795768Y-71850426D01*
X119794572Y-71841554D01*
X119800001Y-71834432D01*
X119800982Y-71833922D01*
X120746741Y-71399418D01*
X120755688Y-71399079D01*
X120760867Y-71402878D01*
G37*
%TD.AperFunction*%
%TD*%
%TA.AperFunction,Conductor*%
%TO.N,GPIO12*%
G36*
X121062008Y-98511701D02*
G01*
X121064728Y-98513726D01*
X121196450Y-98645448D01*
X121199877Y-98653721D01*
X121199487Y-98656718D01*
X120877166Y-99873030D01*
X120871734Y-99880149D01*
X120864762Y-99881682D01*
X119796531Y-99781386D01*
X119788615Y-99777201D01*
X119786697Y-99773916D01*
X119487989Y-98992411D01*
X119488236Y-98983461D01*
X119494741Y-98977306D01*
X119495537Y-98977034D01*
X120076958Y-98802990D01*
X120080313Y-98802500D01*
X120212971Y-98802500D01*
X120455886Y-98764026D01*
X120689792Y-98688026D01*
X120908929Y-98576370D01*
X120959809Y-98539403D01*
X120963317Y-98537666D01*
X121053101Y-98510790D01*
X121062008Y-98511701D01*
G37*
%TD.AperFunction*%
%TD*%
%TA.AperFunction,Conductor*%
%TO.N,GPIO0*%
G36*
X120837802Y-69060472D02*
G01*
X120842372Y-69065819D01*
X121353123Y-70267523D01*
X121353205Y-70276478D01*
X121350628Y-70280373D01*
X121219159Y-70411842D01*
X121210886Y-70415269D01*
X121208717Y-70415066D01*
X119551282Y-70102439D01*
X119543788Y-70097538D01*
X119541954Y-70088773D01*
X119542286Y-70087443D01*
X119787290Y-69305681D01*
X119793034Y-69298814D01*
X119795814Y-69297785D01*
X120828970Y-69058997D01*
X120837802Y-69060472D01*
G37*
%TD.AperFunction*%
%TD*%
%TA.AperFunction,Conductor*%
%TO.N,GPIO2*%
G36*
X120873516Y-74238845D02*
G01*
X120877568Y-74244640D01*
X121237810Y-75395976D01*
X121254097Y-75448030D01*
X121253297Y-75456949D01*
X121251204Y-75459797D01*
X121119517Y-75591484D01*
X121111244Y-75594911D01*
X121108317Y-75594539D01*
X120647067Y-75475368D01*
X120644683Y-75474465D01*
X120639798Y-75471976D01*
X120639792Y-75471974D01*
X120405894Y-75395976D01*
X120405878Y-75395972D01*
X120235578Y-75368999D01*
X120234481Y-75368771D01*
X119516230Y-75183201D01*
X119509077Y-75177814D01*
X119507829Y-75168946D01*
X119508129Y-75167963D01*
X119786894Y-74386020D01*
X119792900Y-74379379D01*
X119796370Y-74378353D01*
X120864866Y-74236537D01*
X120873516Y-74238845D01*
G37*
%TD.AperFunction*%
%TD*%
%TA.AperFunction,Conductor*%
%TO.N,VBUS1*%
G36*
X138367379Y-50508024D02*
G01*
X138371013Y-50511647D01*
X138939718Y-51407039D01*
X138941261Y-51415860D01*
X138938504Y-51421177D01*
X137913982Y-52549581D01*
X137905884Y-52553402D01*
X137905320Y-52553416D01*
X137539448Y-52553416D01*
X137531175Y-52549989D01*
X137527900Y-52543598D01*
X137239040Y-50771253D01*
X137241092Y-50762536D01*
X137248002Y-50757960D01*
X138358554Y-50506509D01*
X138367379Y-50508024D01*
G37*
%TD.AperFunction*%
%TD*%
%TA.AperFunction,Conductor*%
%TO.N,+12V*%
G36*
X141773318Y-51764822D02*
G01*
X141777208Y-51770760D01*
X142145711Y-53092857D01*
X142144632Y-53101746D01*
X142142714Y-53104271D01*
X141702320Y-53544667D01*
X141694047Y-53548094D01*
X141693195Y-53548063D01*
X140667078Y-53473141D01*
X140659076Y-53469121D01*
X140656293Y-53462685D01*
X140493913Y-51905250D01*
X140496464Y-51896668D01*
X140504336Y-51892402D01*
X141764736Y-51762263D01*
X141773318Y-51764822D01*
G37*
%TD.AperFunction*%
%TD*%
%TA.AperFunction,Conductor*%
%TO.N,RUN*%
G36*
X141431653Y-101044140D02*
G01*
X141497960Y-101092313D01*
X141531071Y-101116370D01*
X141750208Y-101228026D01*
X141750213Y-101228027D01*
X141750216Y-101228029D01*
X141946917Y-101291940D01*
X141984114Y-101304026D01*
X142082976Y-101319684D01*
X142227028Y-101342500D01*
X142462814Y-101342500D01*
X142466659Y-101343150D01*
X142973040Y-101519336D01*
X142979727Y-101525291D01*
X142980245Y-101534231D01*
X142979986Y-101534908D01*
X142653578Y-102313854D01*
X142647220Y-102320160D01*
X142643283Y-102321021D01*
X141575423Y-102366315D01*
X141567012Y-102363242D01*
X141563444Y-102356868D01*
X141556445Y-102321021D01*
X141326401Y-101142740D01*
X141328179Y-101133964D01*
X141329606Y-101132231D01*
X141416506Y-101045331D01*
X141424776Y-101041906D01*
X141431653Y-101044140D01*
G37*
%TD.AperFunction*%
%TD*%
%TA.AperFunction,Conductor*%
%TO.N,GPIO7*%
G36*
X121260153Y-86019487D02*
G01*
X121261516Y-86020655D01*
X121392888Y-86152027D01*
X121396315Y-86160300D01*
X121395170Y-86165348D01*
X120824509Y-87358437D01*
X120817848Y-87364422D01*
X120810821Y-87364662D01*
X119795557Y-87082448D01*
X119788503Y-87076930D01*
X119787463Y-87074466D01*
X119558314Y-86292809D01*
X119559275Y-86283908D01*
X119566250Y-86278293D01*
X119567747Y-86277958D01*
X121251455Y-86017366D01*
X121260153Y-86019487D01*
G37*
%TD.AperFunction*%
%TD*%
%TA.AperFunction,Conductor*%
%TO.N,GPIO25*%
G36*
X141642261Y-76478960D02*
G01*
X142589000Y-76913914D01*
X142595088Y-76920482D01*
X142594748Y-76929430D01*
X142594230Y-76930428D01*
X142148270Y-77697162D01*
X142141148Y-77702591D01*
X142135515Y-77702678D01*
X140972295Y-77433145D01*
X140966663Y-77430020D01*
X140835842Y-77299199D01*
X140832415Y-77290926D01*
X140835799Y-77282696D01*
X141629065Y-76481360D01*
X141637319Y-76477893D01*
X141642261Y-76478960D01*
G37*
%TD.AperFunction*%
%TD*%
%TA.AperFunction,Conductor*%
%TO.N,SWCLK*%
G36*
X141431653Y-106124140D02*
G01*
X141497960Y-106172313D01*
X141531071Y-106196370D01*
X141750208Y-106308026D01*
X141750213Y-106308027D01*
X141750216Y-106308029D01*
X141946917Y-106371940D01*
X141984114Y-106384026D01*
X142082976Y-106399684D01*
X142227028Y-106422500D01*
X142462814Y-106422500D01*
X142466659Y-106423150D01*
X142973040Y-106599336D01*
X142979727Y-106605291D01*
X142980245Y-106614231D01*
X142979986Y-106614908D01*
X142653578Y-107393854D01*
X142647220Y-107400160D01*
X142643283Y-107401021D01*
X141575423Y-107446315D01*
X141567012Y-107443242D01*
X141563444Y-107436868D01*
X141556445Y-107401021D01*
X141326401Y-106222740D01*
X141328179Y-106213964D01*
X141329606Y-106212231D01*
X141416506Y-106125331D01*
X141424776Y-106121906D01*
X141431653Y-106124140D01*
G37*
%TD.AperFunction*%
%TD*%
%TA.AperFunction,Conductor*%
%TO.N,GPIO28-ADC2*%
G36*
X141911444Y-68640089D02*
G01*
X142641216Y-69291270D01*
X142645107Y-69299335D01*
X142642156Y-69307790D01*
X142641216Y-69308730D01*
X141911444Y-69959910D01*
X141902989Y-69962861D01*
X141898458Y-69961663D01*
X140771876Y-69403223D01*
X140765985Y-69396478D01*
X140765372Y-69392740D01*
X140765372Y-69207259D01*
X140768799Y-69198986D01*
X140771876Y-69196776D01*
X141898459Y-68638335D01*
X141907392Y-68637732D01*
X141911444Y-68640089D01*
G37*
%TD.AperFunction*%
%TD*%
%TA.AperFunction,Conductor*%
%TO.N,GPIO8*%
G36*
X120541774Y-88959029D02*
G01*
X121668757Y-89606626D01*
X121674223Y-89613719D01*
X121674628Y-89616770D01*
X121674628Y-89802200D01*
X121671201Y-89810473D01*
X121667429Y-89813000D01*
X120541252Y-90282343D01*
X120532297Y-90282362D01*
X120528961Y-90280273D01*
X120001931Y-89810000D01*
X119798782Y-89628729D01*
X119794892Y-89620665D01*
X119797843Y-89612210D01*
X119798777Y-89611275D01*
X120528158Y-88960443D01*
X120536612Y-88957493D01*
X120541774Y-88959029D01*
G37*
%TD.AperFunction*%
%TD*%
%TA.AperFunction,Conductor*%
%TO.N,GPIO14*%
G36*
X121187397Y-103716744D02*
G01*
X121189264Y-103718262D01*
X121320812Y-103849810D01*
X121324239Y-103858083D01*
X121323443Y-103862325D01*
X120877995Y-105007415D01*
X120871802Y-105013883D01*
X120865433Y-105014755D01*
X119796500Y-104861738D01*
X119788796Y-104857173D01*
X119787035Y-104853784D01*
X119532213Y-104072410D01*
X119532905Y-104063482D01*
X119539708Y-104057659D01*
X119540929Y-104057332D01*
X121178598Y-103715082D01*
X121187397Y-103716744D01*
G37*
%TD.AperFunction*%
%TD*%
%TA.AperFunction,Conductor*%
%TO.N,GPIO10*%
G36*
X121258622Y-93635806D02*
G01*
X121260005Y-93636989D01*
X121391378Y-93768362D01*
X121394805Y-93776635D01*
X121393670Y-93781661D01*
X120825513Y-94975959D01*
X120818865Y-94981958D01*
X120811843Y-94982213D01*
X119795573Y-94702435D01*
X119788506Y-94696936D01*
X119787454Y-94694459D01*
X119557389Y-93912793D01*
X119558341Y-93903888D01*
X119565309Y-93898265D01*
X119566785Y-93897933D01*
X121249917Y-93633704D01*
X121258622Y-93635806D01*
G37*
%TD.AperFunction*%
%TD*%
%TA.AperFunction,Conductor*%
%TO.N,GPIO13*%
G36*
X121046957Y-101036701D02*
G01*
X121049787Y-101038785D01*
X121181516Y-101170514D01*
X121184943Y-101178787D01*
X121184588Y-101181648D01*
X120877053Y-102401237D01*
X120871707Y-102408421D01*
X120864740Y-102410036D01*
X119796571Y-102321311D01*
X119788609Y-102317211D01*
X119786639Y-102313903D01*
X119481991Y-101532933D01*
X119482177Y-101523980D01*
X119488639Y-101517781D01*
X119489389Y-101517518D01*
X120050451Y-101343027D01*
X120053925Y-101342500D01*
X120212971Y-101342500D01*
X120455886Y-101304026D01*
X120689792Y-101228026D01*
X120908929Y-101116370D01*
X121004426Y-101046987D01*
X121007813Y-101045287D01*
X121038042Y-101035886D01*
X121046957Y-101036701D01*
G37*
%TD.AperFunction*%
%TD*%
%TA.AperFunction,Conductor*%
%TO.N,GPIO15*%
G36*
X121207454Y-106276759D02*
G01*
X121209194Y-106278192D01*
X121340688Y-106409686D01*
X121344115Y-106417959D01*
X121343228Y-106422429D01*
X120878100Y-107547671D01*
X120871772Y-107554007D01*
X120865629Y-107554783D01*
X119796562Y-107401747D01*
X119788858Y-107397182D01*
X119787070Y-107393710D01*
X119538945Y-106612506D01*
X119539707Y-106603585D01*
X119546554Y-106597815D01*
X119547839Y-106597486D01*
X121198678Y-106274982D01*
X121207454Y-106276759D01*
G37*
%TD.AperFunction*%
%TD*%
%TA.AperFunction,Conductor*%
%TO.N,GPIO21*%
G36*
X141877575Y-86457477D02*
G01*
X141878575Y-86458281D01*
X142642868Y-87072988D01*
X142647167Y-87080843D01*
X142645649Y-87087987D01*
X142198312Y-87857090D01*
X142191190Y-87862519D01*
X142185452Y-87862581D01*
X141016959Y-87580433D01*
X141011432Y-87577333D01*
X140880653Y-87446554D01*
X140877226Y-87438281D01*
X140880653Y-87430008D01*
X140880694Y-87429967D01*
X141233279Y-87080843D01*
X141862013Y-86458280D01*
X141870302Y-86454895D01*
X141877575Y-86457477D01*
G37*
%TD.AperFunction*%
%TD*%
%TA.AperFunction,Conductor*%
%TO.N,GPIO6*%
G36*
X121082074Y-83291701D02*
G01*
X121084649Y-83293647D01*
X121216361Y-83425359D01*
X121219788Y-83433632D01*
X121219348Y-83436810D01*
X120877314Y-84648585D01*
X120871769Y-84655616D01*
X120864796Y-84657039D01*
X119796480Y-84541484D01*
X119788623Y-84537187D01*
X119786772Y-84533932D01*
X119495812Y-83751873D01*
X119496139Y-83742924D01*
X119502698Y-83736827D01*
X119503572Y-83736540D01*
X120114679Y-83562944D01*
X120117876Y-83562500D01*
X120212971Y-83562500D01*
X120455886Y-83524026D01*
X120689792Y-83448026D01*
X120903692Y-83339037D01*
X120905782Y-83338218D01*
X121073181Y-83290665D01*
X121082074Y-83291701D01*
G37*
%TD.AperFunction*%
%TD*%
%TA.AperFunction,Conductor*%
%TO.N,GPIO27-ADC1*%
G36*
X141898189Y-71197023D02*
G01*
X142643279Y-71832953D01*
X142647347Y-71840930D01*
X142645797Y-71847734D01*
X142198491Y-72616781D01*
X142191369Y-72622210D01*
X142185193Y-72622158D01*
X142166178Y-72616781D01*
X141021964Y-72293218D01*
X141016875Y-72290232D01*
X140886103Y-72159460D01*
X140882676Y-72151187D01*
X140886103Y-72142914D01*
X140886256Y-72142764D01*
X141882542Y-71197434D01*
X141890900Y-71194226D01*
X141898189Y-71197023D01*
G37*
%TD.AperFunction*%
%TD*%
%TA.AperFunction,Conductor*%
%TO.N,SWD*%
G36*
X141431653Y-103584140D02*
G01*
X141497960Y-103632313D01*
X141531071Y-103656370D01*
X141750208Y-103768026D01*
X141750213Y-103768027D01*
X141750216Y-103768029D01*
X141946917Y-103831940D01*
X141984114Y-103844026D01*
X142082976Y-103859684D01*
X142227028Y-103882500D01*
X142462814Y-103882500D01*
X142466659Y-103883150D01*
X142973040Y-104059336D01*
X142979727Y-104065291D01*
X142980245Y-104074231D01*
X142979986Y-104074908D01*
X142653578Y-104853854D01*
X142647220Y-104860160D01*
X142643283Y-104861021D01*
X141575423Y-104906315D01*
X141567012Y-104903242D01*
X141563444Y-104896868D01*
X141556445Y-104861021D01*
X141326401Y-103682740D01*
X141328179Y-103673964D01*
X141329606Y-103672231D01*
X141416506Y-103585331D01*
X141424776Y-103581906D01*
X141431653Y-103584140D01*
G37*
%TD.AperFunction*%
%TD*%
%TA.AperFunction,Conductor*%
%TO.N,GPIO11*%
G36*
X121046957Y-95956701D02*
G01*
X121049787Y-95958785D01*
X121181516Y-96090514D01*
X121184943Y-96098787D01*
X121184588Y-96101648D01*
X120877053Y-97321237D01*
X120871707Y-97328421D01*
X120864740Y-97330036D01*
X119796571Y-97241311D01*
X119788609Y-97237211D01*
X119786639Y-97233903D01*
X119481991Y-96452933D01*
X119482177Y-96443980D01*
X119488639Y-96437781D01*
X119489389Y-96437518D01*
X120050451Y-96263027D01*
X120053925Y-96262500D01*
X120212971Y-96262500D01*
X120455886Y-96224026D01*
X120689792Y-96148026D01*
X120908929Y-96036370D01*
X121004426Y-95966987D01*
X121007813Y-95965287D01*
X121038042Y-95955886D01*
X121046957Y-95956701D01*
G37*
%TD.AperFunction*%
%TD*%
%TA.AperFunction,Conductor*%
%TO.N,GPIO16*%
G36*
X141116736Y-98888489D02*
G01*
X142827679Y-98979256D01*
X142835759Y-98983117D01*
X142838743Y-98991560D01*
X142838440Y-98993655D01*
X142652113Y-99774812D01*
X142646860Y-99782064D01*
X142645081Y-99782959D01*
X141673763Y-100171825D01*
X141664808Y-100171718D01*
X141659408Y-100167027D01*
X140974870Y-99037483D01*
X140973513Y-99028632D01*
X140976601Y-99023148D01*
X141107849Y-98891900D01*
X141116121Y-98888474D01*
X141116736Y-98888489D01*
G37*
%TD.AperFunction*%
%TD*%
%TA.AperFunction,Conductor*%
%TO.N,GPIO24*%
G36*
X141692842Y-79019227D02*
G01*
X142639000Y-79453914D01*
X142645088Y-79460482D01*
X142644748Y-79469430D01*
X142644230Y-79470428D01*
X142197982Y-80237656D01*
X142190860Y-80243085D01*
X142185970Y-80243319D01*
X141057893Y-80057852D01*
X141051518Y-80054580D01*
X140920421Y-79923483D01*
X140916994Y-79915210D01*
X140919813Y-79907593D01*
X141679079Y-79022242D01*
X141687065Y-79018194D01*
X141692842Y-79019227D01*
G37*
%TD.AperFunction*%
%TD*%
%TA.AperFunction,Conductor*%
%TO.N,+1V1*%
G36*
X133536152Y-82051674D02*
G01*
X133557826Y-82104000D01*
X133557825Y-82104442D01*
X133556829Y-82271377D01*
X133556775Y-82273779D01*
X133540427Y-82698844D01*
X133516758Y-82750298D01*
X133466482Y-82770000D01*
X129770000Y-82770000D01*
X129770000Y-86475179D01*
X132733912Y-86479879D01*
X132786204Y-86501636D01*
X132807795Y-86553996D01*
X132807763Y-86556055D01*
X132790988Y-87126394D01*
X132767785Y-87178060D01*
X132716728Y-87198217D01*
X132157012Y-87196012D01*
X132104772Y-87174132D01*
X132083305Y-87122360D01*
X132081179Y-86668363D01*
X132081179Y-86668362D01*
X132081178Y-86668362D01*
X129610498Y-86669917D01*
X129558158Y-86648276D01*
X129536451Y-86595964D01*
X129555651Y-82602387D01*
X129577576Y-82550167D01*
X129629417Y-82528744D01*
X132756004Y-82518974D01*
X132756004Y-82518973D01*
X132773548Y-82518919D01*
X132795384Y-82510000D01*
X132870000Y-82510000D01*
X132870002Y-82104000D01*
X132891676Y-82051674D01*
X132944002Y-82030000D01*
X133483826Y-82030000D01*
X133536152Y-82051674D01*
G37*
%TD.AperFunction*%
%TD*%
%TA.AperFunction,Conductor*%
%TO.N,GPIO18*%
G36*
X141401952Y-93415884D02*
G01*
X141432178Y-93425285D01*
X141435575Y-93426988D01*
X141531071Y-93496370D01*
X141750208Y-93608026D01*
X141750213Y-93608027D01*
X141750216Y-93608029D01*
X141946917Y-93671940D01*
X141984114Y-93684026D01*
X142082976Y-93699684D01*
X142227028Y-93722500D01*
X142386074Y-93722500D01*
X142389548Y-93723027D01*
X142950583Y-93897510D01*
X142957464Y-93903238D01*
X142958279Y-93912156D01*
X142958007Y-93912933D01*
X142653360Y-94693903D01*
X142647161Y-94700365D01*
X142643428Y-94701311D01*
X141575259Y-94790036D01*
X141566731Y-94787306D01*
X141562946Y-94781237D01*
X141343796Y-93912156D01*
X141255411Y-93561646D01*
X141256711Y-93552788D01*
X141258479Y-93550518D01*
X141390213Y-93418784D01*
X141398485Y-93415358D01*
X141401952Y-93415884D01*
G37*
%TD.AperFunction*%
%TD*%
%TA.AperFunction,Conductor*%
%TO.N,GPIO29-ADC3*%
G36*
X142643283Y-66758978D02*
G01*
X142651403Y-66762752D01*
X142653578Y-66766145D01*
X142979986Y-67545090D01*
X142980023Y-67554045D01*
X142973717Y-67560403D01*
X142973040Y-67560662D01*
X142466657Y-67736850D01*
X142462812Y-67737500D01*
X142227028Y-67737500D01*
X141984121Y-67775972D01*
X141984105Y-67775976D01*
X141750216Y-67851970D01*
X141750212Y-67851972D01*
X141531069Y-67963631D01*
X141431653Y-68035858D01*
X141422945Y-68037948D01*
X141416503Y-68034665D01*
X141329611Y-67947773D01*
X141326184Y-67939500D01*
X141326401Y-67937258D01*
X141343052Y-67851972D01*
X141563444Y-66723129D01*
X141568392Y-66715667D01*
X141575421Y-66713683D01*
X142643283Y-66758978D01*
G37*
%TD.AperFunction*%
%TD*%
%TA.AperFunction,Conductor*%
%TO.N,GPIO19*%
G36*
X141300284Y-91072455D02*
G01*
X142414908Y-91271481D01*
X142897433Y-91357640D01*
X142904975Y-91362468D01*
X142906894Y-91371215D01*
X142906505Y-91372770D01*
X142653249Y-92153068D01*
X142647435Y-92159879D01*
X142643785Y-92161037D01*
X141575663Y-92314592D01*
X141566986Y-92312377D01*
X141562694Y-92306027D01*
X141286927Y-91271481D01*
X141286532Y-91268467D01*
X141286532Y-91083974D01*
X141289959Y-91075701D01*
X141298232Y-91072274D01*
X141300284Y-91072455D01*
G37*
%TD.AperFunction*%
%TD*%
%TA.AperFunction,Conductor*%
%TO.N,GPIO17*%
G36*
X141911444Y-96580089D02*
G01*
X142641216Y-97231270D01*
X142645107Y-97239335D01*
X142642156Y-97247790D01*
X142641216Y-97248730D01*
X141911444Y-97899910D01*
X141902989Y-97902861D01*
X141898458Y-97901663D01*
X140771876Y-97343223D01*
X140765985Y-97336478D01*
X140765372Y-97332740D01*
X140765372Y-97147259D01*
X140768799Y-97138986D01*
X140771876Y-97136776D01*
X141898459Y-96578335D01*
X141907392Y-96577732D01*
X141911444Y-96580089D01*
G37*
%TD.AperFunction*%
%TD*%
%TA.AperFunction,Conductor*%
%TO.N,GPIO9*%
G36*
X120541541Y-91498336D02*
G01*
X121668124Y-92056776D01*
X121674015Y-92063521D01*
X121674628Y-92067259D01*
X121674628Y-92252740D01*
X121671201Y-92261013D01*
X121668124Y-92263223D01*
X120541541Y-92821663D01*
X120532607Y-92822267D01*
X120528555Y-92819910D01*
X119901069Y-92260000D01*
X119798782Y-92168729D01*
X119794892Y-92160665D01*
X119797843Y-92152210D01*
X119798777Y-92151275D01*
X120528555Y-91500088D01*
X120537010Y-91497138D01*
X120541541Y-91498336D01*
G37*
%TD.AperFunction*%
%TD*%
%TA.AperFunction,Conductor*%
%TO.N,GPIO5*%
G36*
X120255200Y-81218583D02*
G01*
X121476779Y-81648407D01*
X121481169Y-81651171D01*
X121611494Y-81781496D01*
X121614921Y-81789769D01*
X121611494Y-81798042D01*
X121610558Y-81798883D01*
X120542179Y-82658958D01*
X120533586Y-82661476D01*
X120527055Y-82658576D01*
X119796422Y-82007064D01*
X119792528Y-81999001D01*
X119794094Y-81992451D01*
X120241205Y-81223738D01*
X120248327Y-81218310D01*
X120255200Y-81218583D01*
G37*
%TD.AperFunction*%
%TD*%
%TA.AperFunction,Conductor*%
%TO.N,GPIO22*%
G36*
X142193536Y-83759207D02*
G01*
X142198976Y-83764051D01*
X142645904Y-84532450D01*
X142647101Y-84541324D01*
X142643577Y-84547064D01*
X141912559Y-85198919D01*
X141904103Y-85201868D01*
X141897923Y-85199673D01*
X141278200Y-84752216D01*
X140795023Y-84403349D01*
X140790323Y-84395729D01*
X140792387Y-84387015D01*
X140793594Y-84385597D01*
X140923585Y-84255606D01*
X140927573Y-84252994D01*
X142184583Y-83759044D01*
X142193536Y-83759207D01*
G37*
%TD.AperFunction*%
%TD*%
%TA.AperFunction,Conductor*%
%TO.N,+3V3*%
G36*
X128547826Y-91338896D02*
G01*
X128569500Y-91391222D01*
X128569500Y-91468991D01*
X128596418Y-91604322D01*
X128596421Y-91604332D01*
X128649223Y-91731808D01*
X128690854Y-91794114D01*
X128725886Y-91846542D01*
X128823458Y-91944114D01*
X128938189Y-92020775D01*
X128938190Y-92020775D01*
X128938191Y-92020776D01*
X129024608Y-92056571D01*
X129065672Y-92073580D01*
X129201007Y-92100500D01*
X129201009Y-92100500D01*
X129338991Y-92100500D01*
X129338993Y-92100500D01*
X129474328Y-92073580D01*
X129601811Y-92020775D01*
X129716542Y-91944114D01*
X129783175Y-91877480D01*
X129835500Y-91855807D01*
X129887826Y-91877481D01*
X129909500Y-91929807D01*
X129909500Y-93034877D01*
X129887826Y-93087203D01*
X129212040Y-93762988D01*
X129172479Y-93831509D01*
X129172477Y-93831514D01*
X129152000Y-93907935D01*
X129152000Y-94246119D01*
X129130326Y-94298445D01*
X129110501Y-94312600D01*
X129030571Y-94351675D01*
X128946675Y-94435571D01*
X128894567Y-94542158D01*
X128884500Y-94611252D01*
X128884500Y-94784390D01*
X128862826Y-94836716D01*
X128775622Y-94923919D01*
X128724146Y-95013078D01*
X128724144Y-95013083D01*
X128710437Y-95064241D01*
X128697500Y-95112521D01*
X128697500Y-97729978D01*
X128724144Y-97829416D01*
X128724148Y-97829425D01*
X128764770Y-97899784D01*
X128775622Y-97918580D01*
X129167120Y-98310078D01*
X129167122Y-98310080D01*
X129239920Y-98382878D01*
X129242498Y-98384366D01*
X129243412Y-98385558D01*
X129243767Y-98385830D01*
X129243694Y-98385924D01*
X129276978Y-98429297D01*
X129279500Y-98448453D01*
X129279500Y-98689748D01*
X129287255Y-98728736D01*
X129291133Y-98748232D01*
X129300399Y-98762099D01*
X129335448Y-98814552D01*
X129373153Y-98839746D01*
X129401767Y-98858866D01*
X129401768Y-98858866D01*
X129401769Y-98858867D01*
X129460252Y-98870500D01*
X129557890Y-98870500D01*
X129610216Y-98892174D01*
X129631890Y-98944500D01*
X129610216Y-98996826D01*
X128487122Y-100119919D01*
X128435648Y-100209074D01*
X128435647Y-100209076D01*
X128411162Y-100300458D01*
X128411161Y-100300461D01*
X128409000Y-100308524D01*
X128409000Y-103114500D01*
X128387326Y-103166826D01*
X128335000Y-103188500D01*
X128063789Y-103188500D01*
X127989637Y-103199304D01*
X127875254Y-103255223D01*
X127785223Y-103345254D01*
X127729304Y-103459637D01*
X127718500Y-103533789D01*
X127718500Y-105406210D01*
X127729304Y-105480362D01*
X127785223Y-105594745D01*
X127785224Y-105594746D01*
X127875254Y-105684776D01*
X127989639Y-105740696D01*
X128063794Y-105751500D01*
X128063800Y-105751500D01*
X129536200Y-105751500D01*
X129536206Y-105751500D01*
X129610361Y-105740696D01*
X129724746Y-105684776D01*
X129814776Y-105594746D01*
X129870696Y-105480361D01*
X129881500Y-105406206D01*
X129881500Y-103533794D01*
X129870696Y-103459639D01*
X129814776Y-103345254D01*
X129724746Y-103255224D01*
X129724745Y-103255223D01*
X129724746Y-103255223D01*
X129610362Y-103199304D01*
X129536210Y-103188500D01*
X129536206Y-103188500D01*
X129265000Y-103188500D01*
X129212674Y-103166826D01*
X129191000Y-103114500D01*
X129191000Y-100552610D01*
X129212674Y-100500284D01*
X129812958Y-99900000D01*
X131660000Y-99900000D01*
X131660000Y-100860000D01*
X131670000Y-100870000D01*
X131874132Y-100870000D01*
X131906632Y-100877519D01*
X131953211Y-100900290D01*
X131953212Y-100900290D01*
X131953214Y-100900291D01*
X132023285Y-100910500D01*
X132486714Y-100910499D01*
X132556780Y-100900292D01*
X132556780Y-100900291D01*
X132556786Y-100900291D01*
X132603367Y-100877519D01*
X132635867Y-100870000D01*
X132780000Y-100870000D01*
X132780000Y-100855000D01*
X132801674Y-100802674D01*
X132854000Y-100781000D01*
X132917390Y-100781000D01*
X132969716Y-100802674D01*
X133570731Y-101403689D01*
X133592405Y-101456015D01*
X133580635Y-101494818D01*
X133580939Y-101494981D01*
X133580123Y-101496506D01*
X133579937Y-101497122D01*
X133579225Y-101498187D01*
X133526421Y-101625667D01*
X133526418Y-101625677D01*
X133499500Y-101761008D01*
X133499500Y-101898991D01*
X133526418Y-102034322D01*
X133526421Y-102034332D01*
X133579223Y-102161808D01*
X133579224Y-102161810D01*
X133579225Y-102161811D01*
X133655886Y-102276542D01*
X133753458Y-102374114D01*
X133776112Y-102389251D01*
X133807578Y-102436341D01*
X133809000Y-102450779D01*
X133809000Y-103114500D01*
X133787326Y-103166826D01*
X133735000Y-103188500D01*
X133463789Y-103188500D01*
X133389637Y-103199304D01*
X133275254Y-103255223D01*
X133185223Y-103345254D01*
X133129304Y-103459637D01*
X133118500Y-103533789D01*
X133118500Y-105406210D01*
X133129304Y-105480362D01*
X133185223Y-105594745D01*
X133185224Y-105594746D01*
X133275254Y-105684776D01*
X133389639Y-105740696D01*
X133463794Y-105751500D01*
X133463800Y-105751500D01*
X134936200Y-105751500D01*
X134936206Y-105751500D01*
X135010361Y-105740696D01*
X135124746Y-105684776D01*
X135214776Y-105594746D01*
X135270696Y-105480361D01*
X135281500Y-105406206D01*
X135281500Y-103533794D01*
X135270696Y-103459639D01*
X135214776Y-103345254D01*
X135124746Y-103255224D01*
X135124745Y-103255223D01*
X135124746Y-103255223D01*
X135010362Y-103199304D01*
X134936210Y-103188500D01*
X134936206Y-103188500D01*
X134665000Y-103188500D01*
X134612674Y-103166826D01*
X134591000Y-103114500D01*
X134591000Y-102450779D01*
X134612674Y-102398453D01*
X134623880Y-102389255D01*
X134646542Y-102374114D01*
X134744114Y-102276542D01*
X134820775Y-102161811D01*
X134873580Y-102034328D01*
X134900500Y-101898993D01*
X134900500Y-101761007D01*
X134873580Y-101625672D01*
X134820775Y-101498189D01*
X134744114Y-101383458D01*
X134646542Y-101285886D01*
X134639818Y-101281393D01*
X134531810Y-101209224D01*
X134460688Y-101179764D01*
X134436681Y-101163723D01*
X133350080Y-100077122D01*
X133260925Y-100025648D01*
X133260916Y-100025644D01*
X133161478Y-99999000D01*
X133161476Y-99999000D01*
X132854000Y-99999000D01*
X132801674Y-99977326D01*
X132780000Y-99925000D01*
X132780000Y-99890000D01*
X132594957Y-99890000D01*
X132562456Y-99882481D01*
X132556786Y-99879709D01*
X132556779Y-99879708D01*
X132486715Y-99869500D01*
X132486714Y-99869500D01*
X132023285Y-99869500D01*
X131953215Y-99879708D01*
X131947544Y-99882481D01*
X131915043Y-99890000D01*
X131670000Y-99890000D01*
X131660000Y-99900000D01*
X129812958Y-99900000D01*
X130238784Y-99474174D01*
X130291110Y-99452500D01*
X131539978Y-99452500D01*
X131539978Y-99452499D01*
X131639421Y-99425854D01*
X131728580Y-99374378D01*
X132210784Y-98892174D01*
X132263110Y-98870500D01*
X133199746Y-98870500D01*
X133199748Y-98870500D01*
X133258231Y-98858867D01*
X133324552Y-98814552D01*
X133368867Y-98748231D01*
X133380500Y-98689748D01*
X133380500Y-98535000D01*
X133402174Y-98482674D01*
X133454500Y-98461000D01*
X133612478Y-98461000D01*
X133612478Y-98460999D01*
X133711921Y-98434354D01*
X133801080Y-98382878D01*
X133998021Y-98185935D01*
X134050346Y-98164262D01*
X134064783Y-98165684D01*
X134091507Y-98171000D01*
X134091508Y-98171000D01*
X134229491Y-98171000D01*
X134229493Y-98171000D01*
X134364828Y-98144080D01*
X134492311Y-98091275D01*
X134607042Y-98014614D01*
X134704614Y-97917042D01*
X134781275Y-97802311D01*
X134834080Y-97674828D01*
X134861000Y-97539493D01*
X134861000Y-97401507D01*
X134855684Y-97374783D01*
X134866733Y-97319235D01*
X134873936Y-97310458D01*
X134875378Y-97308580D01*
X134889449Y-97284208D01*
X134926854Y-97219421D01*
X134953499Y-97119978D01*
X134953500Y-97119978D01*
X134953500Y-96407995D01*
X134965971Y-96366883D01*
X135018227Y-96288677D01*
X135032900Y-96214911D01*
X135032899Y-95965090D01*
X135018227Y-95891323D01*
X134967303Y-95815111D01*
X134956255Y-95759563D01*
X134987721Y-95712471D01*
X135028833Y-95700000D01*
X135686656Y-95700000D01*
X135738982Y-95721674D01*
X135758134Y-95754846D01*
X135764978Y-95780386D01*
X135764979Y-95780390D01*
X135774301Y-95796536D01*
X135804540Y-95848911D01*
X135860489Y-95904860D01*
X135861920Y-95905686D01*
X135863090Y-95906856D01*
X135864336Y-95907812D01*
X135864210Y-95907976D01*
X135886724Y-95930489D01*
X135886888Y-95930364D01*
X135887840Y-95931606D01*
X135889013Y-95932778D01*
X135889840Y-95934211D01*
X139515826Y-99560197D01*
X139537500Y-99612523D01*
X139537500Y-104627564D01*
X139557977Y-104703985D01*
X139557979Y-104703990D01*
X139577055Y-104737030D01*
X139589653Y-104758851D01*
X139599567Y-104796055D01*
X139581070Y-111473399D01*
X139559251Y-111525665D01*
X139506865Y-111547194D01*
X139466492Y-111535076D01*
X131300002Y-106180000D01*
X131299999Y-106180000D01*
X123402023Y-111023012D01*
X123346086Y-111031888D01*
X123300256Y-110998611D01*
X123289341Y-110960040D01*
X123280253Y-104753299D01*
X123282775Y-104734042D01*
X123303550Y-104656513D01*
X123303550Y-98892072D01*
X123325223Y-98839747D01*
X125000460Y-97164511D01*
X125040022Y-97095988D01*
X125060500Y-97019562D01*
X125060500Y-96940438D01*
X125060500Y-94752222D01*
X125082173Y-94699897D01*
X128443174Y-91338895D01*
X128495500Y-91317222D01*
X128547826Y-91338896D01*
G37*
%TD.AperFunction*%
%TA.AperFunction,Conductor*%
G36*
X133256481Y-76022607D02*
G01*
X133989241Y-76047587D01*
X134040797Y-76071031D01*
X134060715Y-76120797D01*
X134062491Y-76296618D01*
X134061722Y-76308033D01*
X134059500Y-76323278D01*
X134059500Y-76786706D01*
X134059502Y-76786722D01*
X134067314Y-76840349D01*
X134068083Y-76850269D01*
X134069999Y-77039999D01*
X134070000Y-77040000D01*
X134170154Y-77040000D01*
X134202654Y-77047519D01*
X134207625Y-77049949D01*
X134236815Y-77064219D01*
X134238000Y-77064798D01*
X134275490Y-77107250D01*
X134279500Y-77131279D01*
X134279500Y-77457776D01*
X134257826Y-77510102D01*
X132871506Y-78896421D01*
X132861217Y-78904317D01*
X132861337Y-78904473D01*
X132857488Y-78907426D01*
X132374540Y-79390374D01*
X132334979Y-79458895D01*
X132334977Y-79458900D01*
X132314500Y-79535321D01*
X132314500Y-79535324D01*
X132314500Y-80805326D01*
X132314500Y-81629674D01*
X132316783Y-81641150D01*
X132329034Y-81702740D01*
X132380656Y-81780000D01*
X132384399Y-81785601D01*
X132467260Y-81840966D01*
X132540326Y-81855500D01*
X132540331Y-81855500D01*
X132543947Y-81855857D01*
X132543805Y-81857289D01*
X132557522Y-81862971D01*
X132576862Y-81865633D01*
X132582772Y-81873429D01*
X132591812Y-81877174D01*
X132599283Y-81895210D01*
X132611076Y-81910768D01*
X132609531Y-81919953D01*
X132613486Y-81929500D01*
X132603353Y-81966876D01*
X132602236Y-81968784D01*
X132569225Y-82018189D01*
X132559295Y-82042160D01*
X132556732Y-82046541D01*
X132537895Y-82060819D01*
X132521181Y-82077533D01*
X132513845Y-82079050D01*
X132511597Y-82080755D01*
X132508000Y-82080259D01*
X132494003Y-82083156D01*
X129345647Y-82131580D01*
X129327678Y-86465167D01*
X129326004Y-86868974D01*
X129576010Y-86869937D01*
X129590105Y-86871348D01*
X129610627Y-86875417D01*
X130802378Y-86874666D01*
X130802655Y-86874666D01*
X131665786Y-86877994D01*
X131718027Y-86899869D01*
X131739500Y-86951993D01*
X131739500Y-86988993D01*
X131748391Y-87033694D01*
X131766418Y-87124322D01*
X131766421Y-87124332D01*
X131819223Y-87251808D01*
X131895883Y-87366538D01*
X131895890Y-87366546D01*
X131909743Y-87380400D01*
X131909744Y-87380400D01*
X131930768Y-87401424D01*
X131930929Y-87408974D01*
X131938213Y-87408869D01*
X131969231Y-87439887D01*
X131990905Y-87492213D01*
X131978434Y-87533324D01*
X131929034Y-87607258D01*
X131923889Y-87633124D01*
X131914608Y-87679786D01*
X131914500Y-87680327D01*
X131914500Y-88847131D01*
X131912872Y-88859492D01*
X131913133Y-88859527D01*
X131912500Y-88864336D01*
X131912500Y-90572564D01*
X131932977Y-90648985D01*
X131932979Y-90648990D01*
X131972540Y-90717511D01*
X132028489Y-90773460D01*
X132086061Y-90806699D01*
X132101388Y-90818459D01*
X133317826Y-92034897D01*
X133339500Y-92087223D01*
X133339500Y-92208749D01*
X133336598Y-92215754D01*
X133338077Y-92223190D01*
X133326085Y-92241134D01*
X133317826Y-92261075D01*
X133306609Y-92270280D01*
X133296341Y-92277140D01*
X133240791Y-92288186D01*
X133202906Y-92267935D01*
X133189512Y-92254541D01*
X133189511Y-92254540D01*
X133186393Y-92252740D01*
X133166291Y-92241134D01*
X133120990Y-92214979D01*
X133120985Y-92214977D01*
X133084847Y-92205294D01*
X133039914Y-92170815D01*
X133030000Y-92133816D01*
X133030000Y-92050000D01*
X132950000Y-91970000D01*
X132100000Y-91970000D01*
X132100000Y-92765280D01*
X132078326Y-92817606D01*
X132026000Y-92839280D01*
X132011564Y-92837858D01*
X131970475Y-92829685D01*
X131944911Y-92824600D01*
X131944910Y-92824600D01*
X131695091Y-92824600D01*
X131621322Y-92839273D01*
X131621320Y-92839274D01*
X131605110Y-92850105D01*
X131549561Y-92861153D01*
X131502470Y-92829685D01*
X131490000Y-92788575D01*
X131490000Y-91910000D01*
X131486656Y-91901928D01*
X131472429Y-91873571D01*
X131471989Y-91873708D01*
X131471172Y-91871065D01*
X131470515Y-91869755D01*
X131470291Y-91868214D01*
X131417449Y-91760125D01*
X131332375Y-91675051D01*
X131332372Y-91675048D01*
X131301998Y-91660199D01*
X131264509Y-91617745D01*
X131260500Y-91593719D01*
X131260500Y-90545123D01*
X131282174Y-90492797D01*
X131358764Y-90416207D01*
X131655460Y-90119511D01*
X131664050Y-90104632D01*
X131695021Y-90050989D01*
X131715499Y-89974564D01*
X131715500Y-89974564D01*
X131715500Y-87680327D01*
X131715394Y-87679792D01*
X131700966Y-87607260D01*
X131645601Y-87524399D01*
X131642874Y-87522577D01*
X131562740Y-87469034D01*
X131545768Y-87465658D01*
X131489674Y-87454500D01*
X131340326Y-87454500D01*
X131303793Y-87461767D01*
X131267258Y-87469034D01*
X131256110Y-87476483D01*
X131200560Y-87487531D01*
X131173890Y-87476483D01*
X131162741Y-87469034D01*
X131136875Y-87463889D01*
X131089674Y-87454500D01*
X130940326Y-87454500D01*
X130903793Y-87461767D01*
X130867258Y-87469034D01*
X130856110Y-87476483D01*
X130800560Y-87487531D01*
X130773890Y-87476483D01*
X130762741Y-87469034D01*
X130736875Y-87463889D01*
X130689674Y-87454500D01*
X130540326Y-87454500D01*
X130503793Y-87461767D01*
X130467258Y-87469034D01*
X130456110Y-87476483D01*
X130400560Y-87487531D01*
X130373890Y-87476483D01*
X130362741Y-87469034D01*
X130336875Y-87463889D01*
X130289674Y-87454500D01*
X130140326Y-87454500D01*
X130103793Y-87461767D01*
X130067258Y-87469034D01*
X130056110Y-87476483D01*
X130000560Y-87487531D01*
X129973890Y-87476483D01*
X129962741Y-87469034D01*
X129936875Y-87463889D01*
X129889674Y-87454500D01*
X129740326Y-87454500D01*
X129703793Y-87461767D01*
X129667258Y-87469034D01*
X129656110Y-87476483D01*
X129600560Y-87487531D01*
X129573890Y-87476483D01*
X129562741Y-87469034D01*
X129536875Y-87463889D01*
X129489674Y-87454500D01*
X129340326Y-87454500D01*
X129303793Y-87461767D01*
X129267258Y-87469034D01*
X129256110Y-87476483D01*
X129200560Y-87487531D01*
X129173890Y-87476483D01*
X129162741Y-87469034D01*
X129136875Y-87463889D01*
X129089674Y-87454500D01*
X128940326Y-87454500D01*
X128918704Y-87458800D01*
X128893124Y-87463889D01*
X128837576Y-87452840D01*
X128806110Y-87405747D01*
X128806110Y-87376879D01*
X128815500Y-87329674D01*
X128815500Y-87180326D01*
X128800966Y-87107260D01*
X128793516Y-87096111D01*
X128782468Y-87040563D01*
X128793517Y-87013888D01*
X128800966Y-87002740D01*
X128815500Y-86929674D01*
X128815500Y-86780326D01*
X128800966Y-86707260D01*
X128793516Y-86696111D01*
X128782468Y-86640563D01*
X128793517Y-86613888D01*
X128800966Y-86602740D01*
X128815500Y-86529674D01*
X128815500Y-86380326D01*
X128800966Y-86307260D01*
X128793516Y-86296111D01*
X128782468Y-86240563D01*
X128793517Y-86213888D01*
X128800966Y-86202740D01*
X128815500Y-86129674D01*
X128815500Y-85980326D01*
X128800966Y-85907260D01*
X128745601Y-85824399D01*
X128730841Y-85814537D01*
X128662740Y-85769034D01*
X128638790Y-85764270D01*
X128589674Y-85754500D01*
X128217062Y-85754500D01*
X127264562Y-85754500D01*
X127185438Y-85754500D01*
X127109012Y-85774978D01*
X127109011Y-85774978D01*
X127109009Y-85774979D01*
X127109007Y-85774980D01*
X127040492Y-85814537D01*
X124630274Y-88224753D01*
X124580906Y-88246368D01*
X123307901Y-88297288D01*
X123254750Y-88277722D01*
X123231002Y-88226305D01*
X123230943Y-88223112D01*
X123231264Y-88122210D01*
X123237083Y-86288823D01*
X123239766Y-85443765D01*
X123261606Y-85391508D01*
X123313766Y-85370000D01*
X125357277Y-85370000D01*
X125409603Y-85391674D01*
X125458440Y-85440511D01*
X125514389Y-85496460D01*
X125582911Y-85536021D01*
X125582912Y-85536021D01*
X125582914Y-85536022D01*
X125621124Y-85546260D01*
X125659335Y-85556499D01*
X125659336Y-85556500D01*
X125659338Y-85556500D01*
X127680790Y-85556500D01*
X127683578Y-85556133D01*
X127693235Y-85555500D01*
X128589672Y-85555500D01*
X128589674Y-85555500D01*
X128662740Y-85540966D01*
X128745601Y-85485601D01*
X128800966Y-85402740D01*
X128815500Y-85329674D01*
X128815500Y-85180326D01*
X128800966Y-85107260D01*
X128793516Y-85096111D01*
X128782468Y-85040563D01*
X128793517Y-85013888D01*
X128800966Y-85002740D01*
X128815500Y-84929674D01*
X128815500Y-84780326D01*
X128800966Y-84707260D01*
X128793516Y-84696111D01*
X128782468Y-84640563D01*
X128793517Y-84613888D01*
X128800966Y-84602740D01*
X128815500Y-84529674D01*
X128815500Y-84380326D01*
X128800966Y-84307260D01*
X128793516Y-84296111D01*
X128782468Y-84240563D01*
X128793517Y-84213888D01*
X128800966Y-84202740D01*
X128815500Y-84129674D01*
X128815500Y-83980326D01*
X128800966Y-83907260D01*
X128793516Y-83896111D01*
X128782468Y-83840563D01*
X128793517Y-83813888D01*
X128800966Y-83802740D01*
X128815500Y-83729674D01*
X128815500Y-83580326D01*
X128800966Y-83507260D01*
X128793516Y-83496111D01*
X128782468Y-83440563D01*
X128793517Y-83413888D01*
X128800966Y-83402740D01*
X128815500Y-83329674D01*
X128815500Y-83180326D01*
X128800966Y-83107260D01*
X128793516Y-83096111D01*
X128782468Y-83040563D01*
X128793517Y-83013888D01*
X128800966Y-83002740D01*
X128815500Y-82929674D01*
X128815500Y-82780326D01*
X128800966Y-82707260D01*
X128793516Y-82696111D01*
X128782468Y-82640563D01*
X128793517Y-82613888D01*
X128800966Y-82602740D01*
X128815500Y-82529674D01*
X128815500Y-82380326D01*
X128800966Y-82307260D01*
X128745601Y-82224399D01*
X128662740Y-82169034D01*
X128589674Y-82154500D01*
X128589672Y-82154500D01*
X127680123Y-82154500D01*
X127627797Y-82132826D01*
X127419811Y-81924840D01*
X127398137Y-81872514D01*
X127419810Y-81820188D01*
X127460000Y-81780000D01*
X127460000Y-79750856D01*
X127464784Y-79739304D01*
X127464010Y-79726827D01*
X127475202Y-79714152D01*
X127481674Y-79698530D01*
X127501497Y-79684376D01*
X127540133Y-79665489D01*
X127556437Y-79657519D01*
X127588937Y-79650000D01*
X127730000Y-79650000D01*
X127750000Y-79630000D01*
X127750000Y-78611500D01*
X127771674Y-78559174D01*
X127824000Y-78537500D01*
X128635500Y-78537500D01*
X128659601Y-78547483D01*
X128684300Y-78555871D01*
X128685327Y-78558139D01*
X128687826Y-78559174D01*
X128709342Y-78606671D01*
X128709500Y-78609087D01*
X128709500Y-78659562D01*
X128713865Y-78675854D01*
X128714342Y-78683135D01*
X128713997Y-78684148D01*
X128714500Y-78687964D01*
X128714500Y-80805326D01*
X128714500Y-81629674D01*
X128716783Y-81641150D01*
X128729034Y-81702740D01*
X128780656Y-81780000D01*
X128784399Y-81785601D01*
X128867260Y-81840966D01*
X128940326Y-81855500D01*
X128940328Y-81855500D01*
X129089672Y-81855500D01*
X129089674Y-81855500D01*
X129162740Y-81840966D01*
X129173888Y-81833516D01*
X129229437Y-81822468D01*
X129256111Y-81833516D01*
X129267260Y-81840966D01*
X129340326Y-81855500D01*
X129340328Y-81855500D01*
X129489672Y-81855500D01*
X129489674Y-81855500D01*
X129562740Y-81840966D01*
X129573888Y-81833516D01*
X129629437Y-81822468D01*
X129656111Y-81833516D01*
X129667260Y-81840966D01*
X129740326Y-81855500D01*
X129740328Y-81855500D01*
X129889672Y-81855500D01*
X129889674Y-81855500D01*
X129962740Y-81840966D01*
X129973888Y-81833516D01*
X130029437Y-81822468D01*
X130056111Y-81833516D01*
X130067260Y-81840966D01*
X130140326Y-81855500D01*
X130140328Y-81855500D01*
X130289672Y-81855500D01*
X130289674Y-81855500D01*
X130362740Y-81840966D01*
X130373888Y-81833516D01*
X130429437Y-81822468D01*
X130456111Y-81833516D01*
X130467260Y-81840966D01*
X130540326Y-81855500D01*
X130540328Y-81855500D01*
X130689672Y-81855500D01*
X130689674Y-81855500D01*
X130762740Y-81840966D01*
X130773888Y-81833516D01*
X130829437Y-81822468D01*
X130856111Y-81833516D01*
X130867260Y-81840966D01*
X130940326Y-81855500D01*
X130940328Y-81855500D01*
X131089672Y-81855500D01*
X131089674Y-81855500D01*
X131162740Y-81840966D01*
X131173888Y-81833516D01*
X131229437Y-81822468D01*
X131256111Y-81833516D01*
X131267260Y-81840966D01*
X131340326Y-81855500D01*
X131340328Y-81855500D01*
X131489672Y-81855500D01*
X131489674Y-81855500D01*
X131562740Y-81840966D01*
X131645601Y-81785601D01*
X131700966Y-81702740D01*
X131715500Y-81629674D01*
X131715500Y-80805326D01*
X131715500Y-79424500D01*
X131737174Y-79372174D01*
X131789500Y-79350500D01*
X131908991Y-79350500D01*
X131908993Y-79350500D01*
X132044328Y-79323580D01*
X132171811Y-79270775D01*
X132286542Y-79194114D01*
X132384114Y-79096542D01*
X132460775Y-78981811D01*
X132513580Y-78854328D01*
X132540500Y-78718993D01*
X132540500Y-78581007D01*
X132513580Y-78445672D01*
X132481127Y-78367324D01*
X132460776Y-78318191D01*
X132456063Y-78311138D01*
X132384114Y-78203458D01*
X132313651Y-78132995D01*
X132291978Y-78080671D01*
X132313651Y-78028346D01*
X132900419Y-77441580D01*
X132939974Y-77373069D01*
X132960448Y-77296657D01*
X132960449Y-77296657D01*
X132960449Y-77152561D01*
X132982123Y-77100235D01*
X133034449Y-77078561D01*
X133035037Y-77078564D01*
X133177803Y-77079978D01*
X133179999Y-77080000D01*
X133179999Y-77079999D01*
X133180000Y-77080000D01*
X133180000Y-76096565D01*
X133201674Y-76044239D01*
X133254000Y-76022565D01*
X133256481Y-76022607D01*
G37*
%TD.AperFunction*%
%TA.AperFunction,Conductor*%
G36*
X139634215Y-60767173D02*
G01*
X140378326Y-61511283D01*
X140400000Y-61563609D01*
X140400000Y-63362554D01*
X140378326Y-63414880D01*
X140326000Y-63436554D01*
X140273674Y-63414880D01*
X140254938Y-63383199D01*
X140245905Y-63352110D01*
X140217869Y-63255607D01*
X140136135Y-63117402D01*
X140022598Y-63003865D01*
X140005065Y-62993496D01*
X139884394Y-62922131D01*
X139730204Y-62877335D01*
X139730207Y-62877335D01*
X139703186Y-62875208D01*
X139694181Y-62874500D01*
X139694180Y-62874500D01*
X138165820Y-62874500D01*
X138129793Y-62877335D01*
X137975605Y-62922131D01*
X137837401Y-63003865D01*
X137723865Y-63117401D01*
X137642131Y-63255605D01*
X137597335Y-63409793D01*
X137594500Y-63445819D01*
X137594500Y-64774179D01*
X137597335Y-64810206D01*
X137642131Y-64964394D01*
X137723865Y-65102598D01*
X137837402Y-65216135D01*
X137893872Y-65249531D01*
X137975606Y-65297869D01*
X137987788Y-65301408D01*
X137997840Y-65304328D01*
X138042042Y-65339739D01*
X138048258Y-65396034D01*
X138029522Y-65427716D01*
X136969414Y-66487826D01*
X136917088Y-66509500D01*
X136821007Y-66509500D01*
X136782642Y-66517131D01*
X136685677Y-66536418D01*
X136685667Y-66536421D01*
X136558191Y-66589223D01*
X136443461Y-66665883D01*
X136345883Y-66763461D01*
X136269223Y-66878191D01*
X136216421Y-67005667D01*
X136216418Y-67005677D01*
X136189500Y-67141008D01*
X136189500Y-67278991D01*
X136216418Y-67414322D01*
X136216421Y-67414332D01*
X136269223Y-67541808D01*
X136269224Y-67541810D01*
X136269225Y-67541811D01*
X136345886Y-67656542D01*
X136443458Y-67754114D01*
X136558189Y-67830775D01*
X136558190Y-67830775D01*
X136558191Y-67830776D01*
X136664625Y-67874862D01*
X136685672Y-67883580D01*
X136821007Y-67910500D01*
X136821009Y-67910500D01*
X136958991Y-67910500D01*
X136958993Y-67910500D01*
X137094328Y-67883580D01*
X137221811Y-67830775D01*
X137336542Y-67754114D01*
X137434114Y-67656542D01*
X137510775Y-67541811D01*
X137563580Y-67414328D01*
X137590500Y-67278993D01*
X137590500Y-67182911D01*
X137612173Y-67130586D01*
X139209067Y-65533692D01*
X139209070Y-65533691D01*
X139293691Y-65449070D01*
X139332125Y-65382498D01*
X139377058Y-65348021D01*
X139396211Y-65345499D01*
X139694180Y-65345499D01*
X139730204Y-65342665D01*
X139884393Y-65297869D01*
X140022598Y-65216135D01*
X140136135Y-65102598D01*
X140217869Y-64964393D01*
X140254938Y-64836799D01*
X140290350Y-64792598D01*
X140346645Y-64786383D01*
X140390847Y-64821795D01*
X140400000Y-64857445D01*
X140400000Y-68554377D01*
X140378326Y-68606703D01*
X138319540Y-70665488D01*
X138279979Y-70734009D01*
X138279977Y-70734014D01*
X138259500Y-70810435D01*
X138259500Y-79304877D01*
X138237826Y-79357203D01*
X137929540Y-79665488D01*
X137889980Y-79734008D01*
X137888126Y-79738486D01*
X137886530Y-79737825D01*
X137871919Y-79763108D01*
X135502203Y-82132826D01*
X135449877Y-82154500D01*
X134640326Y-82154500D01*
X134591615Y-82164189D01*
X134567259Y-82169034D01*
X134484399Y-82224398D01*
X134484398Y-82224399D01*
X134429034Y-82307259D01*
X134414500Y-82380327D01*
X134414500Y-82529672D01*
X134429034Y-82602741D01*
X134436483Y-82613890D01*
X134447531Y-82669440D01*
X134436483Y-82696110D01*
X134429034Y-82707258D01*
X134429034Y-82707260D01*
X134414500Y-82780326D01*
X134414500Y-82929674D01*
X134421087Y-82962786D01*
X134429034Y-83002741D01*
X134436483Y-83013890D01*
X134447531Y-83069440D01*
X134436483Y-83096110D01*
X134429034Y-83107258D01*
X134422861Y-83138293D01*
X134414500Y-83180326D01*
X134414500Y-83329674D01*
X134418770Y-83351138D01*
X134429034Y-83402741D01*
X134436483Y-83413890D01*
X134447531Y-83469440D01*
X134436483Y-83496110D01*
X134429034Y-83507258D01*
X134429034Y-83507260D01*
X134414657Y-83579540D01*
X134414500Y-83580327D01*
X134414500Y-83729672D01*
X134429034Y-83802741D01*
X134436483Y-83813890D01*
X134447531Y-83869440D01*
X134436483Y-83896110D01*
X134429034Y-83907258D01*
X134414500Y-83980327D01*
X134414500Y-84129672D01*
X134429034Y-84202741D01*
X134436483Y-84213890D01*
X134447531Y-84269440D01*
X134436483Y-84296110D01*
X134429034Y-84307258D01*
X134414500Y-84380327D01*
X134414500Y-84529672D01*
X134429034Y-84602741D01*
X134436483Y-84613890D01*
X134447531Y-84669440D01*
X134436483Y-84696110D01*
X134429034Y-84707258D01*
X134414500Y-84780327D01*
X134414500Y-84929672D01*
X134429034Y-85002741D01*
X134436483Y-85013890D01*
X134447531Y-85069440D01*
X134436483Y-85096110D01*
X134429034Y-85107258D01*
X134429034Y-85107260D01*
X134414500Y-85180326D01*
X134414500Y-85329674D01*
X134426800Y-85391508D01*
X134429034Y-85402740D01*
X134483990Y-85484990D01*
X134484399Y-85485601D01*
X134567260Y-85540966D01*
X134640326Y-85555500D01*
X135012938Y-85555500D01*
X136256000Y-85555500D01*
X136308326Y-85577174D01*
X136330000Y-85629500D01*
X136330000Y-85680500D01*
X136308326Y-85732826D01*
X136256000Y-85754500D01*
X135464674Y-85754500D01*
X134640326Y-85754500D01*
X134591615Y-85764189D01*
X134567259Y-85769034D01*
X134484399Y-85824398D01*
X134484398Y-85824399D01*
X134429034Y-85907259D01*
X134414500Y-85980327D01*
X134414500Y-86129672D01*
X134429034Y-86202741D01*
X134436483Y-86213890D01*
X134447531Y-86269440D01*
X134436483Y-86296110D01*
X134429034Y-86307258D01*
X134414500Y-86380327D01*
X134414500Y-86529672D01*
X134429034Y-86602741D01*
X134436483Y-86613890D01*
X134447531Y-86669440D01*
X134436483Y-86696110D01*
X134429034Y-86707258D01*
X134422470Y-86740259D01*
X134414500Y-86780326D01*
X134414500Y-86929674D01*
X134424189Y-86978384D01*
X134429034Y-87002741D01*
X134436483Y-87013890D01*
X134447531Y-87069440D01*
X134436483Y-87096110D01*
X134429034Y-87107258D01*
X134429034Y-87107260D01*
X134414500Y-87180326D01*
X134414500Y-87329674D01*
X134423889Y-87376873D01*
X134423889Y-87376874D01*
X134412840Y-87432423D01*
X134365748Y-87463889D01*
X134336875Y-87463889D01*
X134289674Y-87454500D01*
X134140326Y-87454500D01*
X134103793Y-87461767D01*
X134067258Y-87469034D01*
X134056110Y-87476483D01*
X134000560Y-87487531D01*
X133973890Y-87476483D01*
X133962741Y-87469034D01*
X133936875Y-87463889D01*
X133889674Y-87454500D01*
X133740326Y-87454500D01*
X133703793Y-87461767D01*
X133667258Y-87469034D01*
X133656110Y-87476483D01*
X133600560Y-87487531D01*
X133573890Y-87476483D01*
X133562741Y-87469034D01*
X133536875Y-87463889D01*
X133489674Y-87454500D01*
X133340326Y-87454500D01*
X133336691Y-87454500D01*
X133336691Y-87453034D01*
X133287032Y-87437968D01*
X133260335Y-87388017D01*
X133259979Y-87380940D01*
X133259219Y-87055000D01*
X133258658Y-86814429D01*
X133280210Y-86762055D01*
X133332485Y-86740259D01*
X133333863Y-86740269D01*
X133780069Y-86747938D01*
X133788511Y-82737417D01*
X133800983Y-82696463D01*
X133810775Y-82681811D01*
X133821881Y-82655000D01*
X133863578Y-82554332D01*
X133863580Y-82554328D01*
X133890500Y-82418993D01*
X133890500Y-82281007D01*
X133863580Y-82145672D01*
X133810775Y-82018189D01*
X133734114Y-81903458D01*
X133734110Y-81903452D01*
X133732297Y-81901243D01*
X133715500Y-81854299D01*
X133715500Y-80120123D01*
X133737174Y-80067797D01*
X135198300Y-78606671D01*
X136670530Y-77134440D01*
X136712183Y-77113541D01*
X136767840Y-77105433D01*
X136874429Y-77053324D01*
X136874428Y-77053324D01*
X136879938Y-77050631D01*
X136880435Y-77051649D01*
X136916797Y-77040000D01*
X136919348Y-77040000D01*
X136971674Y-77061674D01*
X137010000Y-77100000D01*
X137045987Y-76101334D01*
X137069531Y-76049824D01*
X137119939Y-76030000D01*
X137840000Y-76030000D01*
X137840957Y-75921795D01*
X137862628Y-75870124D01*
X137898324Y-75834429D01*
X137950433Y-75727840D01*
X137960500Y-75658742D01*
X137960500Y-75166258D01*
X137950433Y-75097160D01*
X137898324Y-74990571D01*
X137871575Y-74963822D01*
X137849901Y-74911496D01*
X137849904Y-74910840D01*
X137850000Y-74900000D01*
X137830000Y-74880000D01*
X137776984Y-74880000D01*
X137744483Y-74872481D01*
X137707841Y-74854567D01*
X137638747Y-74844500D01*
X137638742Y-74844500D01*
X137261258Y-74844500D01*
X137261252Y-74844500D01*
X137192158Y-74854567D01*
X137155517Y-74872481D01*
X137123016Y-74880000D01*
X137088500Y-74880000D01*
X137036174Y-74858326D01*
X137014500Y-74806000D01*
X137014500Y-73876807D01*
X137036173Y-73824482D01*
X137064114Y-73796542D01*
X137140775Y-73681811D01*
X137193580Y-73554328D01*
X137220500Y-73418993D01*
X137220500Y-73281007D01*
X137193580Y-73145672D01*
X137146417Y-73031809D01*
X137140776Y-73018191D01*
X137074793Y-72919441D01*
X137064114Y-72903458D01*
X136967652Y-72806996D01*
X136945979Y-72754672D01*
X136958193Y-72725183D01*
X136954367Y-72723599D01*
X136960000Y-72710000D01*
X136960000Y-70620000D01*
X136940000Y-70600000D01*
X136563610Y-70600000D01*
X136511284Y-70578326D01*
X135732674Y-69799716D01*
X135711000Y-69747390D01*
X135711000Y-63312609D01*
X135732673Y-63260284D01*
X138225784Y-60767172D01*
X138278110Y-60745499D01*
X139581889Y-60745499D01*
X139634215Y-60767173D01*
G37*
%TD.AperFunction*%
%TA.AperFunction,Conductor*%
G36*
X126691355Y-52418056D02*
G01*
X127774435Y-53938534D01*
X128175272Y-54501247D01*
X128189000Y-54544180D01*
X128189000Y-63701478D01*
X128215644Y-63800916D01*
X128215648Y-63800925D01*
X128259155Y-63876281D01*
X128269067Y-63913797D01*
X128250793Y-66536158D01*
X128228755Y-66588331D01*
X128195948Y-66607120D01*
X128060975Y-66643286D01*
X128060970Y-66643288D01*
X127934528Y-66716289D01*
X127831289Y-66819528D01*
X127758288Y-66945970D01*
X127758286Y-66945975D01*
X127720500Y-67086996D01*
X127720500Y-68833003D01*
X127758286Y-68974024D01*
X127758288Y-68974029D01*
X127831289Y-69100471D01*
X127904492Y-69173674D01*
X127926166Y-69226000D01*
X127904492Y-69278326D01*
X127852166Y-69300000D01*
X126129997Y-69300000D01*
X126080344Y-69349654D01*
X126028018Y-69371328D01*
X125975693Y-69349653D01*
X125954020Y-69297605D01*
X125903034Y-55605257D01*
X125924513Y-55552852D01*
X125934130Y-55544689D01*
X126118383Y-55413625D01*
X125908740Y-55002482D01*
X125900666Y-54969143D01*
X125900631Y-54959836D01*
X125900000Y-54790000D01*
X125899999Y-54789999D01*
X125848279Y-54791308D01*
X125795422Y-54770965D01*
X125780483Y-54750947D01*
X125239076Y-53689158D01*
X125231000Y-53655543D01*
X125231000Y-53332682D01*
X125252674Y-53280356D01*
X125264352Y-53270845D01*
X125368552Y-53202350D01*
X126590438Y-52399152D01*
X126646067Y-52388523D01*
X126691355Y-52418056D01*
G37*
%TD.AperFunction*%
%TA.AperFunction,Conductor*%
G36*
X133691392Y-58412604D02*
G01*
X137377419Y-58538544D01*
X137427217Y-58560175D01*
X137584287Y-58717245D01*
X137605961Y-58769571D01*
X137603023Y-58790214D01*
X137597337Y-58809787D01*
X137597335Y-58809796D01*
X137594500Y-58845819D01*
X137594500Y-60174180D01*
X137594501Y-60174184D01*
X137597333Y-60210196D01*
X137597335Y-60210204D01*
X137603023Y-60229782D01*
X137596808Y-60286077D01*
X137584287Y-60302753D01*
X135007122Y-62879919D01*
X134955646Y-62969079D01*
X134929000Y-63068524D01*
X134929000Y-64336000D01*
X134907326Y-64388326D01*
X134855000Y-64410000D01*
X131518240Y-64410000D01*
X131515334Y-64412906D01*
X131467867Y-64416017D01*
X131441677Y-64409000D01*
X131441676Y-64409000D01*
X131311476Y-64409000D01*
X131208524Y-64409000D01*
X131143291Y-64426479D01*
X131124139Y-64429000D01*
X130765682Y-64429000D01*
X130713356Y-64407326D01*
X129574674Y-63268644D01*
X129553000Y-63216318D01*
X129553000Y-59965936D01*
X129574674Y-59913610D01*
X129627000Y-59891936D01*
X129627245Y-59891936D01*
X133486171Y-59909438D01*
X133609999Y-59910000D01*
X133610000Y-59910000D01*
X133610000Y-59900000D01*
X133614908Y-58486304D01*
X133636764Y-58434055D01*
X133689165Y-58412562D01*
X133691392Y-58412604D01*
G37*
%TD.AperFunction*%
%TD*%
%TA.AperFunction,Conductor*%
%TO.N,USB-BOOT*%
G36*
X120760843Y-66323073D02*
G01*
X121504909Y-67311480D01*
X121507147Y-67320151D01*
X121503835Y-67326790D01*
X121372660Y-67457965D01*
X121365289Y-67461357D01*
X120098764Y-67559322D01*
X120090252Y-67556544D01*
X120086909Y-67551770D01*
X120052829Y-67461024D01*
X119793122Y-66769488D01*
X119793421Y-66760541D01*
X119799189Y-66754746D01*
X120746613Y-66319477D01*
X120755560Y-66319138D01*
X120760843Y-66323073D01*
G37*
%TD.AperFunction*%
%TD*%
%TA.AperFunction,Conductor*%
%TO.N,GPIO3*%
G36*
X120823354Y-76813191D02*
G01*
X120827240Y-76819166D01*
X121159418Y-78033234D01*
X121158296Y-78042119D01*
X121156406Y-78044595D01*
X121024688Y-78176313D01*
X121016415Y-78179740D01*
X121013139Y-78179272D01*
X120968944Y-78166382D01*
X120965343Y-78164616D01*
X120908930Y-78123631D01*
X120908931Y-78123631D01*
X120908929Y-78123630D01*
X120689792Y-78011974D01*
X120689789Y-78011973D01*
X120689787Y-78011972D01*
X120689783Y-78011970D01*
X120455894Y-77935976D01*
X120455878Y-77935972D01*
X120212972Y-77897500D01*
X120212971Y-77897500D01*
X120048658Y-77897500D01*
X120045383Y-77897032D01*
X119449660Y-77723293D01*
X119442677Y-77717687D01*
X119441704Y-77708785D01*
X119441982Y-77707950D01*
X119736735Y-76926076D01*
X119742860Y-76919544D01*
X119746500Y-76918564D01*
X120814779Y-76810613D01*
X120823354Y-76813191D01*
G37*
%TD.AperFunction*%
%TD*%
%TA.AperFunction,Conductor*%
%TO.N,VBUS1*%
G36*
X142193770Y-60899052D02*
G01*
X142198767Y-60903692D01*
X142645904Y-61672450D01*
X142647101Y-61681324D01*
X142643577Y-61687064D01*
X141912223Y-62339219D01*
X141903767Y-62342168D01*
X141898047Y-62340289D01*
X140740762Y-61585962D01*
X140735703Y-61578573D01*
X140737349Y-61569771D01*
X140738873Y-61567892D01*
X140996183Y-61310582D01*
X141000630Y-61307799D01*
X142184831Y-60898516D01*
X142193770Y-60899052D01*
G37*
%TD.AperFunction*%
%TD*%
%TA.AperFunction,Conductor*%
%TO.N,GPIO20*%
G36*
X141912442Y-88960975D02*
G01*
X142643577Y-89612935D01*
X142647471Y-89620998D01*
X142645904Y-89627549D01*
X142199037Y-90395843D01*
X142191915Y-90401272D01*
X142184514Y-90400798D01*
X142172335Y-90395843D01*
X141803588Y-90245814D01*
X140918711Y-89885792D01*
X140914847Y-89883228D01*
X140784975Y-89753356D01*
X140781548Y-89745083D01*
X140784975Y-89736810D01*
X140786543Y-89735495D01*
X141897964Y-88960111D01*
X141906708Y-88958189D01*
X141912442Y-88960975D01*
G37*
%TD.AperFunction*%
%TD*%
%TA.AperFunction,Conductor*%
%TO.N,GPIO4*%
G36*
X120580834Y-78841189D02*
G01*
X121557030Y-79815623D01*
X121560464Y-79823892D01*
X121557045Y-79832169D01*
X121557037Y-79832176D01*
X121426241Y-79962972D01*
X121420668Y-79966083D01*
X120254520Y-80242624D01*
X120245679Y-80241199D01*
X120241706Y-80237122D01*
X119794371Y-79468023D01*
X119793174Y-79459149D01*
X119797188Y-79452995D01*
X120565272Y-78840322D01*
X120573877Y-78837843D01*
X120580834Y-78841189D01*
G37*
%TD.AperFunction*%
%TD*%
%TA.AperFunction,Conductor*%
%TO.N,GPIO26-ADC0*%
G36*
X141912713Y-73721217D02*
G01*
X142643577Y-74372935D01*
X142647471Y-74380998D01*
X142645904Y-74387549D01*
X142198892Y-75156091D01*
X142191770Y-75161520D01*
X142184678Y-75161167D01*
X140939399Y-74695288D01*
X140935226Y-74692603D01*
X140805108Y-74562485D01*
X140801681Y-74554212D01*
X140805108Y-74545939D01*
X140806319Y-74544883D01*
X141897878Y-73720612D01*
X141906545Y-73718362D01*
X141912713Y-73721217D01*
G37*
%TD.AperFunction*%
%TD*%
D46*
X117750000Y-52811372D02*
X117750000Y-115452843D01*
X132730000Y-46190486D02*
G75*
G02*
X129730000Y-46190486I-1500000J0D01*
G01*
X129730000Y-46190486D02*
G75*
G02*
X132730000Y-46190486I1500000J0D01*
G01*
X121390486Y-112100000D02*
G75*
G02*
X118390486Y-112100000I-1500000J0D01*
G01*
X118390486Y-112100000D02*
G75*
G02*
X121390486Y-112100000I1500000J0D01*
G01*
X119296690Y-116290178D02*
G75*
G02*
X117749964Y-115452843I-546690J837378D01*
G01*
X130653315Y-108875527D02*
X119296690Y-116290178D01*
X130653315Y-43845523D02*
G75*
G02*
X131746692Y-43845528I546685J-837377D01*
G01*
X144196690Y-51974037D02*
G75*
G02*
X144649985Y-52811372I-546590J-837263D01*
G01*
X133760000Y-45160000D02*
X131746695Y-43845524D01*
X144650000Y-115452842D02*
X144650000Y-52811372D01*
X144196690Y-51974037D02*
X133760000Y-45160000D01*
X118203310Y-51974037D02*
X128640000Y-45160000D01*
X144650000Y-115452842D02*
G75*
G02*
X143103329Y-116290148I-1000000J42D01*
G01*
X128640000Y-45160000D02*
X130653315Y-43845523D01*
X130653315Y-108875527D02*
G75*
G02*
X131746692Y-108875532I546685J-837373D01*
G01*
X143980000Y-112100000D02*
G75*
G02*
X140980000Y-112100000I-1500000J0D01*
G01*
X140980000Y-112100000D02*
G75*
G02*
X143980000Y-112100000I1500000J0D01*
G01*
X117750000Y-52811372D02*
G75*
G02*
X118203298Y-51974019I1000100J-28D01*
G01*
X131746695Y-108875528D02*
X143103310Y-116290177D01*
%TO.C,USB*%
X132340000Y-51330000D02*
G75*
G02*
X131940000Y-51330000I-200000J0D01*
G01*
X131940000Y-51330000D02*
G75*
G02*
X132340000Y-51330000I200000J0D01*
G01*
%TD*%
M02*
