%TF.GenerationSoftware,KiCad,Pcbnew,9.0.3*%
%TF.CreationDate,2025-07-21T11:45:29+05:30*%
%TF.ProjectId,RQF 20251,52514620-3230-4323-9531-2e6b69636164,QUBE 20251*%
%TF.SameCoordinates,Original*%
%TF.FileFunction,Legend,Bot*%
%TF.FilePolarity,Positive*%
%FSLAX46Y46*%
G04 Gerber Fmt 4.6, Leading zero omitted, Abs format (unit mm)*
G04 Created by KiCad (PCBNEW 9.0.3) date 2025-07-21 11:45:29*
%MOMM*%
%LPD*%
G01*
G04 APERTURE LIST*
%ADD10C,0.200000*%
%ADD11C,0.160000*%
%ADD12C,0.300000*%
%TA.AperFunction,Profile*%
%ADD13C,0.050000*%
%TD*%
G04 APERTURE END LIST*
D10*
G36*
X136820807Y-59414371D02*
G01*
X136223450Y-59414371D01*
X136182692Y-60326802D01*
X135763480Y-59414371D01*
X135168138Y-59414371D01*
X135480097Y-60915000D01*
X135850858Y-60915000D01*
X135612721Y-59769378D01*
X136138545Y-60915000D01*
X136474318Y-60915000D01*
X136522770Y-59769378D01*
X136760907Y-60915000D01*
X137132766Y-60915000D01*
X136820807Y-59414371D01*
G37*
G36*
X135294809Y-60915000D02*
G01*
X134830808Y-60915000D01*
X134708351Y-60668803D01*
X134191228Y-60668803D01*
X134170253Y-60915000D01*
X133695171Y-60915000D01*
X133786235Y-60346402D01*
X134219438Y-60346402D01*
X134543121Y-60346402D01*
X134269172Y-59804824D01*
X134219438Y-60346402D01*
X133786235Y-60346402D01*
X133935505Y-59414371D01*
X134430555Y-59414371D01*
X135294809Y-60915000D01*
G37*
G36*
X133507958Y-60915000D02*
G01*
X132833482Y-60915000D01*
X132708440Y-60905547D01*
X132554312Y-60874058D01*
X132479933Y-60848643D01*
X132403756Y-60809458D01*
X132325060Y-60754807D01*
X132253498Y-60691026D01*
X132188564Y-60617266D01*
X132130062Y-60532698D01*
X132083153Y-60441167D01*
X132038950Y-60319020D01*
X131998812Y-60159556D01*
X131976609Y-60007742D01*
X131975750Y-59950091D01*
X132434918Y-59950091D01*
X132436931Y-60041582D01*
X132456859Y-60169265D01*
X132486658Y-60289685D01*
X132516389Y-60373836D01*
X132545245Y-60430025D01*
X132582550Y-60480213D01*
X132621667Y-60517126D01*
X132662848Y-60542773D01*
X132708915Y-60559014D01*
X132776411Y-60570541D01*
X132871950Y-60575013D01*
X132983233Y-60575013D01*
X132812599Y-59754357D01*
X132699392Y-59754357D01*
X132609742Y-59761292D01*
X132544401Y-59779644D01*
X132497594Y-59806922D01*
X132465102Y-59842468D01*
X132445524Y-59886144D01*
X132434918Y-59950091D01*
X131975750Y-59950091D01*
X131974541Y-59868938D01*
X131985717Y-59779050D01*
X132008005Y-59699342D01*
X132040853Y-59628328D01*
X132085574Y-59564983D01*
X132141759Y-59512367D01*
X132210754Y-59469692D01*
X132287113Y-59441007D01*
X132388613Y-59421621D01*
X132521523Y-59414371D01*
X133195999Y-59414371D01*
X133507958Y-60915000D01*
G37*
G36*
X131567418Y-59414371D02*
G01*
X131113493Y-59414371D01*
X131221937Y-59936074D01*
X130725788Y-59936074D01*
X130617344Y-59414371D01*
X130161221Y-59414371D01*
X130473180Y-60915000D01*
X130929303Y-60915000D01*
X130802541Y-60305369D01*
X131298690Y-60305369D01*
X131425452Y-60915000D01*
X131879378Y-60915000D01*
X131567418Y-59414371D01*
G37*
G36*
X130281480Y-60915000D02*
G01*
X129817479Y-60915000D01*
X129695022Y-60668803D01*
X129177899Y-60668803D01*
X129156925Y-60915000D01*
X128681842Y-60915000D01*
X128772906Y-60346402D01*
X129206109Y-60346402D01*
X129529792Y-60346402D01*
X129255843Y-59804824D01*
X129206109Y-60346402D01*
X128772906Y-60346402D01*
X128922177Y-59414371D01*
X129417227Y-59414371D01*
X130281480Y-60915000D01*
G37*
G36*
X128449750Y-59414371D02*
G01*
X127974667Y-59414371D01*
X127868422Y-60494322D01*
X127318142Y-59414371D01*
X126857165Y-59414371D01*
X127714365Y-60915000D01*
X128206484Y-60915000D01*
X128449750Y-59414371D01*
G37*
G36*
X127252380Y-60915000D02*
G01*
X126788380Y-60915000D01*
X126665922Y-60668803D01*
X126148799Y-60668803D01*
X126127825Y-60915000D01*
X125652742Y-60915000D01*
X125743806Y-60346402D01*
X126177009Y-60346402D01*
X126500692Y-60346402D01*
X126226743Y-59804824D01*
X126177009Y-60346402D01*
X125743806Y-60346402D01*
X125893077Y-59414371D01*
X126388127Y-59414371D01*
X127252380Y-60915000D01*
G37*
G36*
X138330251Y-111331828D02*
G01*
X138398095Y-111352189D01*
X138495556Y-111398191D01*
X138631951Y-111480238D01*
X139154841Y-111821626D01*
X138593552Y-113254311D01*
X138345068Y-113092079D01*
X138578748Y-112495586D01*
X138528438Y-112462739D01*
X138446238Y-112415210D01*
X138397080Y-112397213D01*
X138350860Y-112394877D01*
X138299173Y-112407781D01*
X138234862Y-112440267D01*
X138086032Y-112532021D01*
X137784522Y-112726106D01*
X137487414Y-112532128D01*
X137746807Y-112351454D01*
X137893591Y-112255377D01*
X137979158Y-112211864D01*
X138060981Y-112188458D01*
X138159158Y-112178762D01*
X138087706Y-112107427D01*
X138033186Y-112035406D01*
X137993652Y-111962236D01*
X137967759Y-111887210D01*
X137966245Y-111876760D01*
X138222664Y-111876760D01*
X138238170Y-111933456D01*
X138268324Y-111983577D01*
X138325235Y-112035608D01*
X138484583Y-112147084D01*
X138668339Y-112267055D01*
X138812505Y-111899143D01*
X138618703Y-111772612D01*
X138435314Y-111659115D01*
X138391695Y-111646101D01*
X138353747Y-111645191D01*
X138319559Y-111654968D01*
X138289707Y-111674597D01*
X138263210Y-111705739D01*
X138240032Y-111751479D01*
X138222765Y-111816563D01*
X138222664Y-111876760D01*
X137966245Y-111876760D01*
X137952504Y-111781902D01*
X137959928Y-111675976D01*
X137990878Y-111567152D01*
X138030439Y-111486743D01*
X138077898Y-111423929D01*
X138133262Y-111376042D01*
X138197231Y-111342369D01*
X138262153Y-111327977D01*
X138330251Y-111331828D01*
G37*
G36*
X137129626Y-110514329D02*
G01*
X137236154Y-110552209D01*
X137350888Y-110615846D01*
X137446313Y-110686361D01*
X137526888Y-110762918D01*
X137593925Y-110845730D01*
X137655040Y-110951133D01*
X137702350Y-111078736D01*
X137731003Y-111214106D01*
X137739810Y-111350072D01*
X137729958Y-111472286D01*
X137701532Y-111606467D01*
X137652036Y-111754584D01*
X137588451Y-111892088D01*
X137519180Y-111999884D01*
X137444802Y-112082612D01*
X137365183Y-112143931D01*
X137279466Y-112186344D01*
X137186145Y-112210834D01*
X137090302Y-112215345D01*
X136989859Y-112199439D01*
X136882670Y-112161039D01*
X136766663Y-112096562D01*
X136664100Y-112019420D01*
X136578360Y-111933637D01*
X136507982Y-111838760D01*
X136452084Y-111733892D01*
X136410399Y-111617739D01*
X136385643Y-111498466D01*
X136384162Y-111475611D01*
X136655087Y-111475611D01*
X136668833Y-111567371D01*
X136699222Y-111657496D01*
X136741665Y-111733741D01*
X136796139Y-111798094D01*
X136863567Y-111851804D01*
X136940475Y-111891348D01*
X137013650Y-111908985D01*
X137085382Y-111907104D01*
X137158069Y-111885584D01*
X137221865Y-111847394D01*
X137283264Y-111787131D01*
X137342764Y-111699551D01*
X137399880Y-111577703D01*
X137441797Y-111449010D01*
X137462554Y-111335546D01*
X137465142Y-111234814D01*
X137451584Y-111144501D01*
X137421430Y-111056133D01*
X137378474Y-110980237D01*
X137322511Y-110915057D01*
X137252374Y-110859552D01*
X137172463Y-110817969D01*
X137098454Y-110799211D01*
X137027896Y-110800240D01*
X136958305Y-110820586D01*
X136897322Y-110857538D01*
X136837594Y-110917150D01*
X136778604Y-111005242D01*
X136720796Y-111129416D01*
X136678596Y-111259007D01*
X136657679Y-111373585D01*
X136655087Y-111475611D01*
X136384162Y-111475611D01*
X136377656Y-111375176D01*
X136386833Y-111246632D01*
X136414194Y-111111534D01*
X136461351Y-110968559D01*
X136526454Y-110827594D01*
X136596992Y-110717444D01*
X136672367Y-110633238D01*
X136752699Y-110571119D01*
X136838845Y-110528419D01*
X136933042Y-110503568D01*
X137029288Y-110498764D01*
X137129626Y-110514329D01*
G37*
G36*
X135783995Y-111419987D02*
G01*
X136639093Y-110179127D01*
X136384781Y-110013089D01*
X135813703Y-110876057D01*
X135974322Y-109745106D01*
X135678979Y-109552280D01*
X135071188Y-110412171D01*
X135274425Y-109288152D01*
X135024330Y-109124869D01*
X134761836Y-110752633D01*
X135025351Y-110924679D01*
X135690012Y-110013536D01*
X135514650Y-111244136D01*
X135783995Y-111419987D01*
G37*
G36*
X134299533Y-110450801D02*
G01*
X134860822Y-109018116D01*
X133948563Y-108422514D01*
X133854711Y-108662263D01*
X134518639Y-109095733D01*
X134394111Y-109413462D01*
X133776428Y-109010186D01*
X133682499Y-109249885D01*
X134300182Y-109653161D01*
X134145131Y-110048970D01*
X133457735Y-109600178D01*
X133363806Y-109839877D01*
X134299533Y-110450801D01*
G37*
G36*
X132863602Y-107762723D02*
G01*
X132931446Y-107783084D01*
X133028906Y-107829086D01*
X133165301Y-107911133D01*
X133688192Y-108252521D01*
X133126903Y-109685206D01*
X132878418Y-109522974D01*
X133112099Y-108926481D01*
X133061788Y-108893634D01*
X132979588Y-108846105D01*
X132930430Y-108828108D01*
X132884210Y-108825772D01*
X132832523Y-108838676D01*
X132768212Y-108871162D01*
X132619383Y-108962916D01*
X132317872Y-109157001D01*
X132020765Y-108963023D01*
X132280158Y-108782350D01*
X132426942Y-108686272D01*
X132512509Y-108642760D01*
X132594331Y-108619353D01*
X132692508Y-108609658D01*
X132621056Y-108538322D01*
X132566536Y-108466301D01*
X132527002Y-108393132D01*
X132501110Y-108318105D01*
X132499596Y-108307655D01*
X132756015Y-108307655D01*
X132771520Y-108364351D01*
X132801675Y-108414472D01*
X132858586Y-108466503D01*
X133017934Y-108577979D01*
X133201689Y-108697951D01*
X133345855Y-108330038D01*
X133152053Y-108203507D01*
X132968665Y-108090010D01*
X132925046Y-108076997D01*
X132887097Y-108076086D01*
X132852910Y-108085863D01*
X132823058Y-108105492D01*
X132796560Y-108136634D01*
X132773382Y-108182374D01*
X132756115Y-108247458D01*
X132756015Y-108307655D01*
X132499596Y-108307655D01*
X132485854Y-108212797D01*
X132493279Y-108106871D01*
X132524229Y-107998047D01*
X132563790Y-107917638D01*
X132611248Y-107854824D01*
X132666612Y-107806938D01*
X132730581Y-107773264D01*
X132795504Y-107758872D01*
X132863602Y-107762723D01*
G37*
D11*
G36*
X134925901Y-99793949D02*
G01*
X135137110Y-100810000D01*
X135412433Y-100810000D01*
X135274314Y-100145720D01*
X135351711Y-100193497D01*
X135420982Y-100229190D01*
X135494361Y-100259126D01*
X135590364Y-100290251D01*
X135543286Y-100063593D01*
X135445545Y-100028776D01*
X135366879Y-99991791D01*
X135304478Y-99953135D01*
X135247453Y-99906932D01*
X135196421Y-99854022D01*
X135151093Y-99793949D01*
X134925901Y-99793949D01*
G37*
G36*
X134772761Y-100810000D02*
G01*
X134323110Y-100810000D01*
X134239749Y-100803698D01*
X134136997Y-100782705D01*
X134087411Y-100765762D01*
X134036627Y-100739639D01*
X133984162Y-100703204D01*
X133936454Y-100660684D01*
X133893165Y-100611511D01*
X133854164Y-100555132D01*
X133822891Y-100494111D01*
X133793422Y-100412680D01*
X133766664Y-100306371D01*
X133751862Y-100205161D01*
X133751289Y-100166727D01*
X134057401Y-100166727D01*
X134058743Y-100227721D01*
X134072028Y-100312843D01*
X134091894Y-100393123D01*
X134111715Y-100449224D01*
X134130952Y-100486683D01*
X134155822Y-100520142D01*
X134181900Y-100544751D01*
X134209354Y-100561849D01*
X134240066Y-100572676D01*
X134285063Y-100580361D01*
X134348756Y-100583342D01*
X134422944Y-100583342D01*
X134309188Y-100036238D01*
X134233717Y-100036238D01*
X134173951Y-100040861D01*
X134130390Y-100053096D01*
X134099185Y-100071281D01*
X134077524Y-100094979D01*
X134064472Y-100124096D01*
X134057401Y-100166727D01*
X133751289Y-100166727D01*
X133750483Y-100112625D01*
X133757934Y-100052700D01*
X133772792Y-99999561D01*
X133794691Y-99952219D01*
X133824505Y-99909989D01*
X133861962Y-99874911D01*
X133907958Y-99846461D01*
X133958864Y-99827338D01*
X134026531Y-99814414D01*
X134115137Y-99809581D01*
X134564788Y-99809581D01*
X134772761Y-100810000D01*
G37*
G36*
X133671898Y-100476791D02*
G01*
X133380088Y-100458290D01*
X133380631Y-100506230D01*
X133375045Y-100541824D01*
X133364823Y-100567894D01*
X133345075Y-100593985D01*
X133319324Y-100612712D01*
X133286295Y-100624584D01*
X133243862Y-100628893D01*
X133201619Y-100625163D01*
X133166658Y-100614681D01*
X133137555Y-100597997D01*
X133112686Y-100575336D01*
X133096456Y-100551618D01*
X133087547Y-100526372D01*
X133086081Y-100501406D01*
X133092263Y-100478675D01*
X133106536Y-100457069D01*
X133127864Y-100440705D01*
X133171576Y-100421456D01*
X133249602Y-100399366D01*
X133347513Y-100371136D01*
X133420068Y-100341086D01*
X133472270Y-100310023D01*
X133508377Y-100278344D01*
X133537061Y-100238641D01*
X133554208Y-100194382D01*
X133560167Y-100144095D01*
X133553867Y-100085819D01*
X133538960Y-100036486D01*
X133514630Y-99988246D01*
X133479923Y-99940556D01*
X133438058Y-99899076D01*
X133387148Y-99863252D01*
X133325928Y-99833089D01*
X133260703Y-99812529D01*
X133178822Y-99798928D01*
X133076922Y-99793949D01*
X132980367Y-99799509D01*
X132905654Y-99814488D01*
X132848545Y-99836879D01*
X132805507Y-99865512D01*
X132771442Y-99903979D01*
X132747912Y-99952798D01*
X132735290Y-100014669D01*
X132735593Y-100093269D01*
X133024471Y-100110488D01*
X133026720Y-100065940D01*
X133036250Y-100034003D01*
X133051643Y-100011386D01*
X133073669Y-99995085D01*
X133104112Y-99984416D01*
X133145737Y-99980429D01*
X133194884Y-99986586D01*
X133230001Y-100003204D01*
X133255653Y-100028936D01*
X133268225Y-100058525D01*
X133267484Y-100080864D01*
X133255097Y-100101268D01*
X133229434Y-100117647D01*
X133161186Y-100137965D01*
X133034027Y-100171005D01*
X132948830Y-100200343D01*
X132895144Y-100226015D01*
X132848060Y-100259564D01*
X132814802Y-100296266D01*
X132793173Y-100336535D01*
X132781161Y-100381109D01*
X132778112Y-100429911D01*
X132784747Y-100484118D01*
X132803229Y-100545730D01*
X132832584Y-100604470D01*
X132873651Y-100661011D01*
X132923089Y-100710449D01*
X132979880Y-100751267D01*
X133044865Y-100783804D01*
X133114246Y-100806255D01*
X133195132Y-100820557D01*
X133289413Y-100825631D01*
X133396794Y-100820240D01*
X133478341Y-100805865D01*
X133539156Y-100784728D01*
X133583585Y-100758298D01*
X133615050Y-100727140D01*
X133646214Y-100676273D01*
X133666361Y-100618694D01*
X133675309Y-100552848D01*
X133671898Y-100476791D01*
G37*
G36*
X131925867Y-100810000D02*
G01*
X132742370Y-100810000D01*
X132710492Y-100730605D01*
X132666350Y-100653434D01*
X132608953Y-100577969D01*
X132541496Y-100509914D01*
X132438125Y-100425569D01*
X132288750Y-100321758D01*
X132163788Y-100234319D01*
X132107217Y-100184494D01*
X132071321Y-100136508D01*
X132055254Y-100095528D01*
X132052982Y-100065905D01*
X132058706Y-100040423D01*
X132072229Y-100017737D01*
X132091885Y-100000152D01*
X132116836Y-99989317D01*
X132148738Y-99985436D01*
X132182247Y-99989201D01*
X132212708Y-100000309D01*
X132240940Y-100019080D01*
X132264143Y-100044127D01*
X132287241Y-100082385D01*
X132309938Y-100137843D01*
X132577873Y-100115190D01*
X132547048Y-100037899D01*
X132514557Y-99977378D01*
X132480786Y-99930908D01*
X132440233Y-99890448D01*
X132393240Y-99856651D01*
X132339064Y-99829303D01*
X132281136Y-99810763D01*
X132207920Y-99798464D01*
X132116254Y-99793949D01*
X132020007Y-99798481D01*
X131949696Y-99810337D01*
X131899672Y-99827349D01*
X131855139Y-99854016D01*
X131820787Y-99887978D01*
X131795380Y-99929993D01*
X131780139Y-99976948D01*
X131775410Y-100028175D01*
X131781885Y-100085087D01*
X131799637Y-100143726D01*
X131828795Y-100201700D01*
X131870607Y-100259659D01*
X131920769Y-100311290D01*
X131994944Y-100371608D01*
X132099279Y-100441987D01*
X132226041Y-100522892D01*
X132303710Y-100583342D01*
X131878728Y-100583342D01*
X131925867Y-100810000D01*
G37*
G36*
X131730961Y-100394359D02*
G01*
X131778344Y-100622421D01*
X131282592Y-100622421D01*
X131321610Y-100810000D01*
X131084389Y-100810000D01*
X131045371Y-100622421D01*
X130922456Y-100622421D01*
X130877821Y-100407487D01*
X131000736Y-100407487D01*
X130934825Y-100090460D01*
X131172011Y-100090460D01*
X131237957Y-100407487D01*
X131499846Y-100407487D01*
X131172011Y-100090460D01*
X130934825Y-100090460D01*
X130873180Y-99793949D01*
X131110401Y-99793949D01*
X131730961Y-100394359D01*
G37*
G36*
X130604879Y-99809581D02*
G01*
X129793688Y-99809581D01*
X129838384Y-100024515D01*
X130346287Y-100024515D01*
X130379565Y-100184738D01*
X129908482Y-100184738D01*
X129950736Y-100387948D01*
X130421819Y-100387948D01*
X130462424Y-100583342D01*
X129939867Y-100583342D01*
X129987006Y-100810000D01*
X130812852Y-100810000D01*
X130604879Y-99809581D01*
G37*
G36*
X129594691Y-99809581D02*
G01*
X128783499Y-99809581D01*
X128828196Y-100024515D01*
X129336099Y-100024515D01*
X129369377Y-100184738D01*
X128898293Y-100184738D01*
X128940547Y-100387948D01*
X129411631Y-100387948D01*
X129452236Y-100583342D01*
X128929678Y-100583342D01*
X128976817Y-100810000D01*
X129802663Y-100810000D01*
X129594691Y-99809581D01*
G37*
G36*
X128777576Y-100394359D02*
G01*
X128824959Y-100622421D01*
X128329207Y-100622421D01*
X128368225Y-100810000D01*
X128131004Y-100810000D01*
X128091987Y-100622421D01*
X127969071Y-100622421D01*
X127924436Y-100407487D01*
X128047351Y-100407487D01*
X127981440Y-100090460D01*
X128218627Y-100090460D01*
X128284572Y-100407487D01*
X128546461Y-100407487D01*
X128218627Y-100090460D01*
X127981440Y-100090460D01*
X127919795Y-99793949D01*
X128157016Y-99793949D01*
X128777576Y-100394359D01*
G37*
G36*
X127367831Y-99798983D02*
G01*
X127441079Y-99813386D01*
X127505932Y-99836418D01*
X127563540Y-99867771D01*
X127614797Y-99907583D01*
X127657049Y-99953600D01*
X127696933Y-100013598D01*
X127734186Y-100090179D01*
X127768206Y-100186397D01*
X127798101Y-100305699D01*
X127816523Y-100419322D01*
X127822342Y-100517030D01*
X127819290Y-100580837D01*
X127810941Y-100630157D01*
X127798529Y-100667728D01*
X127772410Y-100715951D01*
X127739092Y-100754829D01*
X127698084Y-100785514D01*
X127651023Y-100806413D01*
X127588539Y-100820411D01*
X127506598Y-100825631D01*
X127417270Y-100819902D01*
X127340705Y-100803702D01*
X127274946Y-100778085D01*
X127218375Y-100743491D01*
X127169787Y-100699724D01*
X127119950Y-100634925D01*
X127073955Y-100549939D01*
X127032530Y-100440649D01*
X126996924Y-100302280D01*
X126978979Y-100182100D01*
X126976604Y-100093002D01*
X127241506Y-100093002D01*
X127246531Y-100176314D01*
X127269682Y-100312355D01*
X127300008Y-100438032D01*
X127325369Y-100511290D01*
X127356866Y-100568910D01*
X127389544Y-100604652D01*
X127427902Y-100627005D01*
X127467458Y-100634145D01*
X127496106Y-100629798D01*
X127518391Y-100617456D01*
X127535911Y-100596562D01*
X127548852Y-100564596D01*
X127554680Y-100516779D01*
X127549919Y-100435063D01*
X127527908Y-100304844D01*
X127497259Y-100178457D01*
X127469283Y-100096584D01*
X127444316Y-100047229D01*
X127410432Y-100007130D01*
X127373648Y-99984940D01*
X127332330Y-99977620D01*
X127301801Y-99982012D01*
X127278414Y-99994345D01*
X127260380Y-100014899D01*
X127247334Y-100045886D01*
X127241506Y-100093002D01*
X126976604Y-100093002D01*
X126975980Y-100069577D01*
X126981085Y-100013090D01*
X126991734Y-99967178D01*
X127009845Y-99924818D01*
X127037468Y-99883464D01*
X127074665Y-99848289D01*
X127127594Y-99818801D01*
X127167323Y-99805860D01*
X127218852Y-99797172D01*
X127284825Y-99793949D01*
X127367831Y-99798983D01*
G37*
G36*
X126448953Y-99798111D02*
G01*
X126514911Y-99810027D01*
X126573519Y-99829060D01*
X126625736Y-99854888D01*
X126687661Y-99899539D01*
X126733224Y-99948045D01*
X126764805Y-100000787D01*
X126783700Y-100058770D01*
X126789366Y-100108991D01*
X126785032Y-100153212D01*
X126771488Y-100192859D01*
X126754934Y-100218884D01*
X126729729Y-100244548D01*
X126693941Y-100270040D01*
X126751702Y-100296335D01*
X126799000Y-100327913D01*
X126837250Y-100364684D01*
X126868201Y-100407747D01*
X126891937Y-100457191D01*
X126908386Y-100514038D01*
X126915803Y-100573985D01*
X126912608Y-100628004D01*
X126899593Y-100677376D01*
X126876166Y-100721919D01*
X126842635Y-100758530D01*
X126797622Y-100788079D01*
X126746249Y-100807079D01*
X126671902Y-100820463D01*
X126567606Y-100825631D01*
X126485721Y-100821392D01*
X126408054Y-100808900D01*
X126335117Y-100786938D01*
X126274942Y-100756632D01*
X126222000Y-100714854D01*
X126171200Y-100655821D01*
X126142939Y-100610770D01*
X126122078Y-100564089D01*
X126108246Y-100515382D01*
X126102077Y-100463661D01*
X126102350Y-100459852D01*
X126374768Y-100459852D01*
X126378989Y-100503230D01*
X126391995Y-100544680D01*
X126412293Y-100580341D01*
X126440172Y-100611125D01*
X126473670Y-100635733D01*
X126505473Y-100649339D01*
X126536526Y-100653684D01*
X126568298Y-100648994D01*
X126595031Y-100635320D01*
X126618042Y-100611857D01*
X126633155Y-100582550D01*
X126639185Y-100547293D01*
X126635017Y-100503902D01*
X126621383Y-100459706D01*
X126601141Y-100423376D01*
X126574323Y-100393627D01*
X126541781Y-100370249D01*
X126509704Y-100357064D01*
X126477236Y-100352777D01*
X126445112Y-100357534D01*
X126418339Y-100371358D01*
X126395537Y-100395031D01*
X126380653Y-100424499D01*
X126374768Y-100459852D01*
X126102350Y-100459852D01*
X126105448Y-100416649D01*
X126117772Y-100373232D01*
X126139363Y-100334078D01*
X126171179Y-100299834D01*
X126214919Y-100270040D01*
X126151862Y-100226893D01*
X126109223Y-100186081D01*
X126079653Y-100145434D01*
X126058745Y-100103824D01*
X126045781Y-100060785D01*
X126044115Y-100043753D01*
X126305307Y-100043753D01*
X126308403Y-100077332D01*
X126318315Y-100108507D01*
X126333829Y-100135024D01*
X126355176Y-100157627D01*
X126380888Y-100174978D01*
X126408406Y-100185196D01*
X126438463Y-100188646D01*
X126472191Y-100184766D01*
X126497515Y-100174156D01*
X126516498Y-100157322D01*
X126528969Y-100135176D01*
X126534107Y-100108234D01*
X126531031Y-100074645D01*
X126520945Y-100043089D01*
X126505057Y-100016251D01*
X126483098Y-99993374D01*
X126456628Y-99975898D01*
X126427866Y-99965518D01*
X126396025Y-99961988D01*
X126365102Y-99965847D01*
X126341181Y-99976592D01*
X126322569Y-99994045D01*
X126310311Y-100016577D01*
X126305307Y-100043753D01*
X126044115Y-100043753D01*
X126040226Y-100003980D01*
X126047656Y-99954455D01*
X126067281Y-99910202D01*
X126100003Y-99869787D01*
X126140673Y-99839760D01*
X126196916Y-99816056D01*
X126273092Y-99799988D01*
X126374532Y-99793949D01*
X126448953Y-99798111D01*
G37*
G36*
X132045901Y-97573949D02*
G01*
X132257110Y-98590000D01*
X132532433Y-98590000D01*
X132394314Y-97925720D01*
X132471711Y-97973497D01*
X132540982Y-98009190D01*
X132614361Y-98039126D01*
X132710364Y-98070251D01*
X132663286Y-97843593D01*
X132565545Y-97808776D01*
X132486879Y-97771791D01*
X132424478Y-97733135D01*
X132367453Y-97686932D01*
X132316421Y-97634022D01*
X132271093Y-97573949D01*
X132045901Y-97573949D01*
G37*
G36*
X131892761Y-98590000D02*
G01*
X131443110Y-98590000D01*
X131359749Y-98583698D01*
X131256997Y-98562705D01*
X131207411Y-98545762D01*
X131156627Y-98519639D01*
X131104162Y-98483204D01*
X131056454Y-98440684D01*
X131013165Y-98391511D01*
X130974164Y-98335132D01*
X130942891Y-98274111D01*
X130913422Y-98192680D01*
X130886664Y-98086371D01*
X130871862Y-97985161D01*
X130871289Y-97946727D01*
X131177401Y-97946727D01*
X131178743Y-98007721D01*
X131192028Y-98092843D01*
X131211894Y-98173123D01*
X131231715Y-98229224D01*
X131250952Y-98266683D01*
X131275822Y-98300142D01*
X131301900Y-98324751D01*
X131329354Y-98341849D01*
X131360066Y-98352676D01*
X131405063Y-98360361D01*
X131468756Y-98363342D01*
X131542944Y-98363342D01*
X131429188Y-97816238D01*
X131353717Y-97816238D01*
X131293951Y-97820861D01*
X131250390Y-97833096D01*
X131219185Y-97851281D01*
X131197524Y-97874979D01*
X131184472Y-97904096D01*
X131177401Y-97946727D01*
X130871289Y-97946727D01*
X130870483Y-97892625D01*
X130877934Y-97832700D01*
X130892792Y-97779561D01*
X130914691Y-97732219D01*
X130944505Y-97689989D01*
X130981962Y-97654911D01*
X131027958Y-97626461D01*
X131078864Y-97607338D01*
X131146531Y-97594414D01*
X131235137Y-97589581D01*
X131684788Y-97589581D01*
X131892761Y-98590000D01*
G37*
G36*
X130791898Y-98256791D02*
G01*
X130500088Y-98238290D01*
X130500631Y-98286230D01*
X130495045Y-98321824D01*
X130484823Y-98347894D01*
X130465075Y-98373985D01*
X130439324Y-98392712D01*
X130406295Y-98404584D01*
X130363862Y-98408893D01*
X130321619Y-98405163D01*
X130286658Y-98394681D01*
X130257555Y-98377997D01*
X130232686Y-98355336D01*
X130216456Y-98331618D01*
X130207547Y-98306372D01*
X130206081Y-98281406D01*
X130212263Y-98258675D01*
X130226536Y-98237069D01*
X130247864Y-98220705D01*
X130291576Y-98201456D01*
X130369602Y-98179366D01*
X130467513Y-98151136D01*
X130540068Y-98121086D01*
X130592270Y-98090023D01*
X130628377Y-98058344D01*
X130657061Y-98018641D01*
X130674208Y-97974382D01*
X130680167Y-97924095D01*
X130673867Y-97865819D01*
X130658960Y-97816486D01*
X130634630Y-97768246D01*
X130599923Y-97720556D01*
X130558058Y-97679076D01*
X130507148Y-97643252D01*
X130445928Y-97613089D01*
X130380703Y-97592529D01*
X130298822Y-97578928D01*
X130196922Y-97573949D01*
X130100367Y-97579509D01*
X130025654Y-97594488D01*
X129968545Y-97616879D01*
X129925507Y-97645512D01*
X129891442Y-97683979D01*
X129867912Y-97732798D01*
X129855290Y-97794669D01*
X129855593Y-97873269D01*
X130144471Y-97890488D01*
X130146720Y-97845940D01*
X130156250Y-97814003D01*
X130171643Y-97791386D01*
X130193669Y-97775085D01*
X130224112Y-97764416D01*
X130265737Y-97760429D01*
X130314884Y-97766586D01*
X130350001Y-97783204D01*
X130375653Y-97808936D01*
X130388225Y-97838525D01*
X130387484Y-97860864D01*
X130375097Y-97881268D01*
X130349434Y-97897647D01*
X130281186Y-97917965D01*
X130154027Y-97951005D01*
X130068830Y-97980343D01*
X130015144Y-98006015D01*
X129968060Y-98039564D01*
X129934802Y-98076266D01*
X129913173Y-98116535D01*
X129901161Y-98161109D01*
X129898112Y-98209911D01*
X129904747Y-98264118D01*
X129923229Y-98325730D01*
X129952584Y-98384470D01*
X129993651Y-98441011D01*
X130043089Y-98490449D01*
X130099880Y-98531267D01*
X130164865Y-98563804D01*
X130234246Y-98586255D01*
X130315132Y-98600557D01*
X130409413Y-98605631D01*
X130516794Y-98600240D01*
X130598341Y-98585865D01*
X130659156Y-98564728D01*
X130703585Y-98538298D01*
X130735050Y-98507140D01*
X130766214Y-98456273D01*
X130786361Y-98398694D01*
X130795309Y-98332848D01*
X130791898Y-98256791D01*
G37*
G36*
X129045867Y-98590000D02*
G01*
X129862370Y-98590000D01*
X129830492Y-98510605D01*
X129786350Y-98433434D01*
X129728953Y-98357969D01*
X129661496Y-98289914D01*
X129558125Y-98205569D01*
X129408750Y-98101758D01*
X129283788Y-98014319D01*
X129227217Y-97964494D01*
X129191321Y-97916508D01*
X129175254Y-97875528D01*
X129172982Y-97845905D01*
X129178706Y-97820423D01*
X129192229Y-97797737D01*
X129211885Y-97780152D01*
X129236836Y-97769317D01*
X129268738Y-97765436D01*
X129302247Y-97769201D01*
X129332708Y-97780309D01*
X129360940Y-97799080D01*
X129384143Y-97824127D01*
X129407241Y-97862385D01*
X129429938Y-97917843D01*
X129697873Y-97895190D01*
X129667048Y-97817899D01*
X129634557Y-97757378D01*
X129600786Y-97710908D01*
X129560233Y-97670448D01*
X129513240Y-97636651D01*
X129459064Y-97609303D01*
X129401136Y-97590763D01*
X129327920Y-97578464D01*
X129236254Y-97573949D01*
X129140007Y-97578481D01*
X129069696Y-97590337D01*
X129019672Y-97607349D01*
X128975139Y-97634016D01*
X128940787Y-97667978D01*
X128915380Y-97709993D01*
X128900139Y-97756948D01*
X128895410Y-97808175D01*
X128901885Y-97865087D01*
X128919637Y-97923726D01*
X128948795Y-97981700D01*
X128990607Y-98039659D01*
X129040769Y-98091290D01*
X129114944Y-98151608D01*
X129219279Y-98221987D01*
X129346041Y-98302892D01*
X129423710Y-98363342D01*
X128998728Y-98363342D01*
X129045867Y-98590000D01*
G37*
G36*
X128850961Y-98174359D02*
G01*
X128898344Y-98402421D01*
X128402592Y-98402421D01*
X128441610Y-98590000D01*
X128204389Y-98590000D01*
X128165371Y-98402421D01*
X128042456Y-98402421D01*
X127997821Y-98187487D01*
X128120736Y-98187487D01*
X128054825Y-97870460D01*
X128292011Y-97870460D01*
X128357957Y-98187487D01*
X128619846Y-98187487D01*
X128292011Y-97870460D01*
X128054825Y-97870460D01*
X127993180Y-97573949D01*
X128230401Y-97573949D01*
X128850961Y-98174359D01*
G37*
G36*
X127724879Y-97589581D02*
G01*
X126913688Y-97589581D01*
X126958384Y-97804515D01*
X127466287Y-97804515D01*
X127499565Y-97964738D01*
X127028482Y-97964738D01*
X127070736Y-98167948D01*
X127541819Y-98167948D01*
X127582424Y-98363342D01*
X127059867Y-98363342D01*
X127107006Y-98590000D01*
X127932852Y-98590000D01*
X127724879Y-97589581D01*
G37*
G36*
X126714691Y-97589581D02*
G01*
X125903499Y-97589581D01*
X125948196Y-97804515D01*
X126456099Y-97804515D01*
X126489377Y-97964738D01*
X126018293Y-97964738D01*
X126060547Y-98167948D01*
X126531631Y-98167948D01*
X126572236Y-98363342D01*
X126049678Y-98363342D01*
X126096817Y-98590000D01*
X126922663Y-98590000D01*
X126714691Y-97589581D01*
G37*
G36*
X125897576Y-98174359D02*
G01*
X125944959Y-98402421D01*
X125449207Y-98402421D01*
X125488225Y-98590000D01*
X125251004Y-98590000D01*
X125211987Y-98402421D01*
X125089071Y-98402421D01*
X125044436Y-98187487D01*
X125167351Y-98187487D01*
X125101440Y-97870460D01*
X125338627Y-97870460D01*
X125404572Y-98187487D01*
X125666461Y-98187487D01*
X125338627Y-97870460D01*
X125101440Y-97870460D01*
X125039795Y-97573949D01*
X125277016Y-97573949D01*
X125897576Y-98174359D01*
G37*
G36*
X124487831Y-97578983D02*
G01*
X124561079Y-97593386D01*
X124625932Y-97616418D01*
X124683540Y-97647771D01*
X124734797Y-97687583D01*
X124777049Y-97733600D01*
X124816933Y-97793598D01*
X124854186Y-97870179D01*
X124888206Y-97966397D01*
X124918101Y-98085699D01*
X124936523Y-98199322D01*
X124942342Y-98297030D01*
X124939290Y-98360837D01*
X124930941Y-98410157D01*
X124918529Y-98447728D01*
X124892410Y-98495951D01*
X124859092Y-98534829D01*
X124818084Y-98565514D01*
X124771023Y-98586413D01*
X124708539Y-98600411D01*
X124626598Y-98605631D01*
X124537270Y-98599902D01*
X124460705Y-98583702D01*
X124394946Y-98558085D01*
X124338375Y-98523491D01*
X124289787Y-98479724D01*
X124239950Y-98414925D01*
X124193955Y-98329939D01*
X124152530Y-98220649D01*
X124116924Y-98082280D01*
X124098979Y-97962100D01*
X124096604Y-97873002D01*
X124361506Y-97873002D01*
X124366531Y-97956314D01*
X124389682Y-98092355D01*
X124420008Y-98218032D01*
X124445369Y-98291290D01*
X124476866Y-98348910D01*
X124509544Y-98384652D01*
X124547902Y-98407005D01*
X124587458Y-98414145D01*
X124616106Y-98409798D01*
X124638391Y-98397456D01*
X124655911Y-98376562D01*
X124668852Y-98344596D01*
X124674680Y-98296779D01*
X124669919Y-98215063D01*
X124647908Y-98084844D01*
X124617259Y-97958457D01*
X124589283Y-97876584D01*
X124564316Y-97827229D01*
X124530432Y-97787130D01*
X124493648Y-97764940D01*
X124452330Y-97757620D01*
X124421801Y-97762012D01*
X124398414Y-97774345D01*
X124380380Y-97794899D01*
X124367334Y-97825886D01*
X124361506Y-97873002D01*
X124096604Y-97873002D01*
X124095980Y-97849577D01*
X124101085Y-97793090D01*
X124111734Y-97747178D01*
X124129845Y-97704818D01*
X124157468Y-97663464D01*
X124194665Y-97628289D01*
X124247594Y-97598801D01*
X124287323Y-97585860D01*
X124338852Y-97577172D01*
X124404825Y-97573949D01*
X124487831Y-97578983D01*
G37*
G36*
X123877260Y-97589581D02*
G01*
X123082800Y-97589581D01*
X123121756Y-97777037D01*
X123201563Y-97843340D01*
X123273427Y-97912260D01*
X123337789Y-97983850D01*
X123408854Y-98076579D01*
X123474021Y-98176768D01*
X123533306Y-98284879D01*
X123573642Y-98372179D01*
X123612284Y-98473374D01*
X123648893Y-98590000D01*
X123920247Y-98590000D01*
X123859599Y-98428123D01*
X123797327Y-98292167D01*
X123733890Y-98179061D01*
X123660318Y-98072182D01*
X123564231Y-97954256D01*
X123442203Y-97824054D01*
X123925987Y-97824054D01*
X123877260Y-97589581D01*
G37*
D12*
G36*
X128949982Y-108111786D02*
G01*
X129068287Y-108137004D01*
X129184072Y-108179401D01*
X129298315Y-108239935D01*
X129411804Y-108320172D01*
X129525114Y-108422241D01*
X129628945Y-108539402D01*
X129702015Y-108648515D01*
X129749161Y-108751044D01*
X129774008Y-108848687D01*
X129778791Y-108943328D01*
X129763834Y-109037644D01*
X129728989Y-109127183D01*
X129672724Y-109213688D01*
X129591893Y-109298297D01*
X129481948Y-109381486D01*
X129381144Y-109438627D01*
X129276636Y-109481143D01*
X129167638Y-109509573D01*
X129097546Y-109713172D01*
X129065909Y-109771558D01*
X129027650Y-109825090D01*
X128775577Y-109723641D01*
X128839592Y-109615581D01*
X128883262Y-109502062D01*
X128739618Y-109465404D01*
X128619011Y-109414798D01*
X128522351Y-109357852D01*
X128425686Y-109285729D01*
X128328656Y-109196910D01*
X128225941Y-109080997D01*
X128153630Y-108972843D01*
X128106972Y-108871014D01*
X128082414Y-108773839D01*
X128078197Y-108687781D01*
X128399120Y-108687781D01*
X128408085Y-108759071D01*
X128438376Y-108838104D01*
X128495044Y-108927677D01*
X128585186Y-109030415D01*
X128678749Y-109114002D01*
X128770019Y-109176310D01*
X128865981Y-109222414D01*
X128961318Y-109249510D01*
X128991477Y-109153319D01*
X129032073Y-109065033D01*
X129083171Y-108983788D01*
X129279468Y-109065647D01*
X129231973Y-109145160D01*
X129194743Y-109234937D01*
X129255951Y-109214532D01*
X129311960Y-109184444D01*
X129377036Y-109131486D01*
X129421200Y-109073031D01*
X129447418Y-109007928D01*
X129456428Y-108933928D01*
X129446841Y-108861773D01*
X129415742Y-108781705D01*
X129358020Y-108690921D01*
X129266545Y-108586785D01*
X129166355Y-108497383D01*
X129071270Y-108433242D01*
X128980228Y-108390691D01*
X128891943Y-108367020D01*
X128798748Y-108359255D01*
X128712184Y-108368064D01*
X128630554Y-108392865D01*
X128552433Y-108434225D01*
X128483142Y-108490002D01*
X128436478Y-108549995D01*
X128408896Y-108615226D01*
X128399120Y-108687781D01*
X128078197Y-108687781D01*
X128077789Y-108679457D01*
X128092633Y-108585004D01*
X128126743Y-108496118D01*
X128181383Y-108411077D01*
X128259353Y-108328757D01*
X128364806Y-108248699D01*
X128478978Y-108184388D01*
X128593497Y-108139479D01*
X128709372Y-108112675D01*
X128827773Y-108103393D01*
X128949982Y-108111786D01*
G37*
G36*
X127564366Y-108799278D02*
G01*
X127315956Y-108961455D01*
X127909378Y-109557272D01*
X128035767Y-109689182D01*
X128083321Y-109747137D01*
X128110209Y-109800808D01*
X128120427Y-109852825D01*
X128115386Y-109905154D01*
X128095201Y-109953773D01*
X128055884Y-110002766D01*
X127991972Y-110053215D01*
X127919123Y-110092846D01*
X127853826Y-110113615D01*
X127794132Y-110118607D01*
X127734293Y-110110903D01*
X127681693Y-110093258D01*
X127635001Y-110065862D01*
X127561689Y-110004920D01*
X127437943Y-109886164D01*
X126831790Y-109277549D01*
X126583303Y-109439777D01*
X127155036Y-110013766D01*
X127342132Y-110191508D01*
X127452128Y-110278665D01*
X127521511Y-110319309D01*
X127591598Y-110348632D01*
X127662941Y-110367346D01*
X127736228Y-110375801D01*
X127813799Y-110374192D01*
X127896507Y-110361869D01*
X127976659Y-110338579D01*
X128066000Y-110299110D01*
X128166118Y-110240542D01*
X128280583Y-110157552D01*
X128354308Y-110088124D01*
X128397517Y-110029857D01*
X128428291Y-109964430D01*
X128444564Y-109902223D01*
X128447819Y-109842021D01*
X128432560Y-109753642D01*
X128396862Y-109675338D01*
X128310007Y-109559777D01*
X128144956Y-109382142D01*
X127564366Y-108799278D01*
G37*
G36*
X127378942Y-110719457D02*
G01*
X126960196Y-110992840D01*
X126741052Y-111130645D01*
X126653183Y-111181027D01*
X126579224Y-111212295D01*
X126506779Y-111231050D01*
X126435048Y-111238120D01*
X126326663Y-111228611D01*
X126216529Y-111195270D01*
X126114865Y-111142187D01*
X126033320Y-111075989D01*
X125978327Y-111008821D01*
X125944814Y-110941373D01*
X125929956Y-110872094D01*
X125933726Y-110801767D01*
X125935104Y-110797722D01*
X126224316Y-110797722D01*
X126241031Y-110847115D01*
X126280629Y-110898889D01*
X126342777Y-110946242D01*
X126408168Y-110969088D01*
X126476341Y-110971240D01*
X126541862Y-110953886D01*
X126594739Y-110926762D01*
X126718866Y-110849375D01*
X126948793Y-110699264D01*
X126657278Y-110406550D01*
X126456725Y-110537484D01*
X126306203Y-110644329D01*
X126252086Y-110697009D01*
X126227302Y-110747476D01*
X126224316Y-110797722D01*
X125935104Y-110797722D01*
X125957540Y-110731882D01*
X126004167Y-110660227D01*
X125929984Y-110667681D01*
X125856347Y-110663276D01*
X125782366Y-110646865D01*
X125711816Y-110619355D01*
X125650010Y-110582735D01*
X125595892Y-110536825D01*
X125553622Y-110486947D01*
X125524426Y-110436482D01*
X125506790Y-110384764D01*
X125498723Y-110308459D01*
X125819357Y-110308459D01*
X125830662Y-110357838D01*
X125869056Y-110410553D01*
X125925916Y-110452197D01*
X125989853Y-110471262D01*
X126057606Y-110468940D01*
X126128612Y-110444550D01*
X126312873Y-110330379D01*
X126475616Y-110224130D01*
X126226347Y-109973840D01*
X126083697Y-110066971D01*
X125875057Y-110209310D01*
X125842565Y-110243482D01*
X125824994Y-110276117D01*
X125819357Y-110308459D01*
X125498723Y-110308459D01*
X125498331Y-110304753D01*
X125510595Y-110232097D01*
X125542174Y-110165261D01*
X125594219Y-110103341D01*
X125667295Y-110043104D01*
X125801259Y-109950343D01*
X126293095Y-109629243D01*
X127378942Y-110719457D01*
G37*
G36*
X126110892Y-111547319D02*
G01*
X125025045Y-110457104D01*
X124112776Y-111052690D01*
X124294514Y-111235061D01*
X124958450Y-110801602D01*
X125199240Y-111043427D01*
X124581551Y-111446693D01*
X124763213Y-111629113D01*
X125380902Y-111225847D01*
X125680897Y-111527026D01*
X124993493Y-111975806D01*
X125175155Y-112158226D01*
X126110892Y-111547319D01*
G37*
D11*
G36*
X130115901Y-94703949D02*
G01*
X130327110Y-95720000D01*
X130602433Y-95720000D01*
X130464314Y-95055720D01*
X130541711Y-95103497D01*
X130610982Y-95139190D01*
X130684361Y-95169126D01*
X130780364Y-95200251D01*
X130733286Y-94973593D01*
X130635545Y-94938776D01*
X130556879Y-94901791D01*
X130494478Y-94863135D01*
X130437453Y-94816932D01*
X130386421Y-94764022D01*
X130341093Y-94703949D01*
X130115901Y-94703949D01*
G37*
G36*
X129351177Y-94719581D02*
G01*
X129047827Y-94719581D01*
X129160668Y-95262349D01*
X129188331Y-95376303D01*
X129216500Y-95461147D01*
X129244504Y-95522468D01*
X129281597Y-95577552D01*
X129331326Y-95627850D01*
X129395507Y-95673654D01*
X129466358Y-95707437D01*
X129546704Y-95728341D01*
X129638529Y-95735631D01*
X129737550Y-95730088D01*
X129809272Y-95715604D01*
X129859935Y-95694720D01*
X129903822Y-95663068D01*
X129937204Y-95623571D01*
X129961051Y-95575102D01*
X129974351Y-95521887D01*
X129978892Y-95457800D01*
X129973019Y-95380502D01*
X129675409Y-95340935D01*
X129684460Y-95402100D01*
X129684202Y-95437472D01*
X129675589Y-95466267D01*
X129658679Y-95488396D01*
X129641166Y-95497528D01*
X129611906Y-95501158D01*
X129579836Y-95496803D01*
X129552756Y-95484177D01*
X129529413Y-95462812D01*
X129511703Y-95435337D01*
X129494596Y-95393697D01*
X129478794Y-95333424D01*
X129351177Y-94719581D01*
G37*
G36*
X129033112Y-95720000D02*
G01*
X128510554Y-95720000D01*
X128372069Y-95706322D01*
X128298226Y-95691883D01*
X128250375Y-95673471D01*
X128206638Y-95646444D01*
X128167618Y-95613751D01*
X128132955Y-95575041D01*
X128104281Y-95531766D01*
X128082836Y-95485213D01*
X128068414Y-95434846D01*
X128061414Y-95371560D01*
X128362447Y-95371560D01*
X128364619Y-95400408D01*
X128374498Y-95430434D01*
X128390353Y-95455588D01*
X128412552Y-95476673D01*
X128439478Y-95491359D01*
X128477088Y-95501300D01*
X128528689Y-95505066D01*
X128683051Y-95505066D01*
X128640797Y-95301856D01*
X128487107Y-95301856D01*
X128434322Y-95305774D01*
X128401139Y-95315482D01*
X128381472Y-95328906D01*
X128368227Y-95348296D01*
X128362447Y-95371560D01*
X128061414Y-95371560D01*
X128061406Y-95371488D01*
X128067554Y-95319391D01*
X128085144Y-95275844D01*
X128114522Y-95239690D01*
X128158706Y-95209795D01*
X128221920Y-95186573D01*
X128173633Y-95167397D01*
X128134243Y-95145072D01*
X128102486Y-95119834D01*
X128062826Y-95074522D01*
X128034502Y-95024248D01*
X128022601Y-94986422D01*
X128320772Y-94986422D01*
X128323159Y-95014565D01*
X128339053Y-95056292D01*
X128365718Y-95085762D01*
X128389020Y-95098391D01*
X128422458Y-95107053D01*
X128469338Y-95110369D01*
X128600985Y-95110369D01*
X128562028Y-94922791D01*
X128428428Y-94922791D01*
X128382798Y-94926293D01*
X128354029Y-94934991D01*
X128336898Y-94947093D01*
X128325621Y-94964541D01*
X128320772Y-94986422D01*
X128022601Y-94986422D01*
X128016817Y-94968037D01*
X128010996Y-94915446D01*
X128015945Y-94869425D01*
X128030801Y-94828380D01*
X128055835Y-94791083D01*
X128088564Y-94761697D01*
X128131456Y-94739489D01*
X128187007Y-94724935D01*
X128258496Y-94719581D01*
X128825139Y-94719581D01*
X129033112Y-95720000D01*
G37*
G36*
X127193047Y-95720000D02*
G01*
X128009551Y-95720000D01*
X127977673Y-95640605D01*
X127933531Y-95563434D01*
X127876133Y-95487969D01*
X127808676Y-95419914D01*
X127705306Y-95335569D01*
X127555931Y-95231758D01*
X127430969Y-95144319D01*
X127374398Y-95094494D01*
X127338502Y-95046508D01*
X127322435Y-95005528D01*
X127320162Y-94975905D01*
X127325887Y-94950423D01*
X127339410Y-94927737D01*
X127359066Y-94910152D01*
X127384017Y-94899317D01*
X127415919Y-94895436D01*
X127449428Y-94899201D01*
X127479889Y-94910309D01*
X127508121Y-94929080D01*
X127531324Y-94954127D01*
X127554421Y-94992385D01*
X127577119Y-95047843D01*
X127845054Y-95025190D01*
X127814229Y-94947899D01*
X127781738Y-94887378D01*
X127747967Y-94840908D01*
X127707413Y-94800448D01*
X127660421Y-94766651D01*
X127606245Y-94739303D01*
X127548316Y-94720763D01*
X127475101Y-94708464D01*
X127383435Y-94703949D01*
X127287188Y-94708481D01*
X127216877Y-94720337D01*
X127166852Y-94737349D01*
X127122320Y-94764016D01*
X127087968Y-94797978D01*
X127062561Y-94839993D01*
X127047320Y-94886948D01*
X127042591Y-94938175D01*
X127049066Y-94995087D01*
X127066818Y-95053726D01*
X127095976Y-95111700D01*
X127137787Y-95169659D01*
X127187950Y-95221290D01*
X127262125Y-95281608D01*
X127366460Y-95351987D01*
X127493222Y-95432892D01*
X127570891Y-95493342D01*
X127145908Y-95493342D01*
X127193047Y-95720000D01*
G37*
G36*
X126644661Y-95008764D02*
G01*
X126892201Y-94961992D01*
X126859415Y-94901846D01*
X126821396Y-94850435D01*
X126778087Y-94806863D01*
X126729169Y-94770505D01*
X126675884Y-94742688D01*
X126613795Y-94721880D01*
X126541431Y-94708642D01*
X126457083Y-94703949D01*
X126357605Y-94709843D01*
X126284455Y-94725379D01*
X126231798Y-94748049D01*
X126194888Y-94776489D01*
X126165614Y-94814870D01*
X126148088Y-94857078D01*
X126141690Y-94904466D01*
X126147260Y-94958878D01*
X126159656Y-95000178D01*
X126179161Y-95038871D01*
X126206245Y-95075443D01*
X126238810Y-95107583D01*
X126279695Y-95138116D01*
X126330137Y-95166973D01*
X126280420Y-95183722D01*
X126250209Y-95200434D01*
X126224779Y-95223120D01*
X126205248Y-95249890D01*
X126191224Y-95281339D01*
X126183782Y-95315108D01*
X126182702Y-95354604D01*
X126189026Y-95401140D01*
X126205557Y-95457544D01*
X126231805Y-95513240D01*
X126268649Y-95568752D01*
X126313092Y-95618076D01*
X126364393Y-95659102D01*
X126423255Y-95692278D01*
X126486840Y-95715436D01*
X126562804Y-95730307D01*
X126653454Y-95735631D01*
X126742837Y-95731358D01*
X126809305Y-95720091D01*
X126857641Y-95703757D01*
X126901607Y-95678739D01*
X126937136Y-95647742D01*
X126965230Y-95610396D01*
X126985800Y-95567947D01*
X127000829Y-95516961D01*
X127009621Y-95455851D01*
X126729963Y-95419092D01*
X126727002Y-95474840D01*
X126717789Y-95511770D01*
X126704378Y-95535230D01*
X126684301Y-95552771D01*
X126658517Y-95563666D01*
X126625244Y-95567592D01*
X126590223Y-95563148D01*
X126557266Y-95549770D01*
X126525471Y-95526559D01*
X126499377Y-95496778D01*
X126479640Y-95460668D01*
X126466303Y-95417016D01*
X126461273Y-95370806D01*
X126466110Y-95335770D01*
X126478942Y-95308939D01*
X126499786Y-95288248D01*
X126528036Y-95275320D01*
X126566198Y-95270593D01*
X126601315Y-95274034D01*
X126657850Y-95287018D01*
X126602285Y-95087472D01*
X126567602Y-95090830D01*
X126533134Y-95087013D01*
X126501275Y-95075684D01*
X126471249Y-95056453D01*
X126445739Y-95031422D01*
X126428473Y-95004427D01*
X126418492Y-94974937D01*
X126415694Y-94945319D01*
X126419917Y-94921863D01*
X126430277Y-94902885D01*
X126446276Y-94888469D01*
X126468236Y-94879288D01*
X126498176Y-94875896D01*
X126529164Y-94879233D01*
X126556999Y-94889011D01*
X126582440Y-94905389D01*
X126603501Y-94927407D01*
X126624321Y-94960758D01*
X126644661Y-95008764D01*
G37*
G36*
X125872060Y-94719581D02*
G01*
X125060868Y-94719581D01*
X125105565Y-94934515D01*
X125613468Y-94934515D01*
X125646746Y-95094738D01*
X125175662Y-95094738D01*
X125217916Y-95297948D01*
X125689000Y-95297948D01*
X125729605Y-95493342D01*
X125207048Y-95493342D01*
X125254187Y-95720000D01*
X126080033Y-95720000D01*
X125872060Y-94719581D01*
G37*
G36*
X124331742Y-95309672D02*
G01*
X124083592Y-95391920D01*
X124120812Y-95465410D01*
X124162089Y-95528341D01*
X124207301Y-95581819D01*
X124258842Y-95628847D01*
X124314211Y-95667017D01*
X124373813Y-95696857D01*
X124437143Y-95717633D01*
X124511486Y-95730908D01*
X124598700Y-95735631D01*
X124704829Y-95729509D01*
X124786985Y-95713019D01*
X124849842Y-95688370D01*
X124891466Y-95661391D01*
X124928569Y-95625550D01*
X124961462Y-95579679D01*
X124990038Y-95522102D01*
X125007973Y-95463172D01*
X125016620Y-95394144D01*
X125014662Y-95312985D01*
X125000174Y-95217409D01*
X124973877Y-95118414D01*
X124939560Y-95032260D01*
X124897723Y-94957423D01*
X124848525Y-94892639D01*
X124791774Y-94836939D01*
X124727065Y-94789845D01*
X124656305Y-94753036D01*
X124578661Y-94726253D01*
X124493075Y-94709682D01*
X124398299Y-94703949D01*
X124303900Y-94709689D01*
X124228834Y-94725364D01*
X124169564Y-94749193D01*
X124123159Y-94780214D01*
X124084351Y-94821094D01*
X124053074Y-94872360D01*
X124029473Y-94935958D01*
X124014471Y-95014443D01*
X124294373Y-95075198D01*
X124301191Y-95032758D01*
X124309883Y-95008276D01*
X124331695Y-94976682D01*
X124360624Y-94953627D01*
X124395699Y-94939513D01*
X124438904Y-94934515D01*
X124488279Y-94939758D01*
X124533252Y-94955199D01*
X124574948Y-94981166D01*
X124614087Y-95018961D01*
X124644807Y-95063735D01*
X124672639Y-95127563D01*
X124696458Y-95215699D01*
X124710669Y-95304790D01*
X124712857Y-95368625D01*
X124706579Y-95413163D01*
X124694382Y-95443456D01*
X124673420Y-95469768D01*
X124646396Y-95488707D01*
X124612011Y-95500716D01*
X124568169Y-95505066D01*
X124512218Y-95499148D01*
X124465670Y-95482354D01*
X124426509Y-95455057D01*
X124393426Y-95419036D01*
X124361767Y-95371332D01*
X124331742Y-95309672D01*
G37*
G36*
X123489862Y-94708983D02*
G01*
X123563110Y-94723386D01*
X123627963Y-94746418D01*
X123685570Y-94777771D01*
X123736828Y-94817583D01*
X123779079Y-94863600D01*
X123818964Y-94923598D01*
X123856217Y-95000179D01*
X123890237Y-95096397D01*
X123920132Y-95215699D01*
X123938554Y-95329322D01*
X123944373Y-95427030D01*
X123941321Y-95490837D01*
X123932972Y-95540157D01*
X123920560Y-95577728D01*
X123894441Y-95625951D01*
X123861122Y-95664829D01*
X123820115Y-95695514D01*
X123773054Y-95716413D01*
X123710570Y-95730411D01*
X123628628Y-95735631D01*
X123539301Y-95729902D01*
X123462736Y-95713702D01*
X123396977Y-95688085D01*
X123340406Y-95653491D01*
X123291817Y-95609724D01*
X123241981Y-95544925D01*
X123195986Y-95459939D01*
X123154561Y-95350649D01*
X123118954Y-95212280D01*
X123101010Y-95092100D01*
X123098635Y-95003002D01*
X123363536Y-95003002D01*
X123368562Y-95086314D01*
X123391713Y-95222355D01*
X123422038Y-95348032D01*
X123447400Y-95421290D01*
X123478897Y-95478910D01*
X123511575Y-95514652D01*
X123549932Y-95537005D01*
X123589488Y-95544145D01*
X123618136Y-95539798D01*
X123640422Y-95527456D01*
X123657942Y-95506562D01*
X123670882Y-95474596D01*
X123676710Y-95426779D01*
X123671949Y-95345063D01*
X123649938Y-95214844D01*
X123619290Y-95088457D01*
X123591313Y-95006584D01*
X123566346Y-94957229D01*
X123532463Y-94917130D01*
X123495679Y-94894940D01*
X123454361Y-94887620D01*
X123423831Y-94892012D01*
X123400445Y-94904345D01*
X123382411Y-94924899D01*
X123369364Y-94955886D01*
X123363536Y-95003002D01*
X123098635Y-95003002D01*
X123098011Y-94979577D01*
X123103116Y-94923090D01*
X123113764Y-94877178D01*
X123131876Y-94834818D01*
X123159499Y-94793464D01*
X123196696Y-94758289D01*
X123249624Y-94728801D01*
X123289353Y-94715860D01*
X123340883Y-94707172D01*
X123406856Y-94703949D01*
X123489862Y-94708983D01*
G37*
G36*
X122773717Y-94719581D02*
G01*
X122127573Y-94719581D01*
X122174651Y-94946238D01*
X122612334Y-94946238D01*
X122666739Y-95095409D01*
X122616765Y-95076026D01*
X122570080Y-95062681D01*
X122523637Y-95054417D01*
X122479954Y-95051751D01*
X122407259Y-95058078D01*
X122348051Y-95075723D01*
X122299659Y-95103582D01*
X122260197Y-95141816D01*
X122230688Y-95188529D01*
X122213244Y-95240743D01*
X122207848Y-95300093D01*
X122215806Y-95368656D01*
X122233771Y-95430819D01*
X122261975Y-95492250D01*
X122301290Y-95553487D01*
X122348743Y-95608315D01*
X122402487Y-95653224D01*
X122463101Y-95688920D01*
X122528845Y-95714088D01*
X122605262Y-95730003D01*
X122694277Y-95735631D01*
X122787080Y-95730526D01*
X122856454Y-95717008D01*
X122916972Y-95693084D01*
X122962517Y-95661503D01*
X122998480Y-95621724D01*
X123023639Y-95577850D01*
X123039719Y-95527736D01*
X123049467Y-95461285D01*
X122767855Y-95430816D01*
X122766410Y-95474684D01*
X122757499Y-95507788D01*
X122742332Y-95532726D01*
X122720583Y-95551917D01*
X122694288Y-95563516D01*
X122662037Y-95567592D01*
X122625843Y-95562890D01*
X122591869Y-95548732D01*
X122559150Y-95524117D01*
X122532822Y-95492378D01*
X122511252Y-95449956D01*
X122495036Y-95394302D01*
X122487904Y-95335279D01*
X122492454Y-95293796D01*
X122505539Y-95264853D01*
X122527715Y-95242523D01*
X122557227Y-95228709D01*
X122596519Y-95223698D01*
X122635620Y-95228419D01*
X122676753Y-95243237D01*
X122707319Y-95261493D01*
X122747522Y-95294528D01*
X122972348Y-95260762D01*
X122773717Y-94719581D01*
G37*
G36*
X121330975Y-94703949D02*
G01*
X121542184Y-95720000D01*
X121817506Y-95720000D01*
X121679387Y-95055720D01*
X121756784Y-95103497D01*
X121826055Y-95139190D01*
X121899435Y-95169126D01*
X121995437Y-95200251D01*
X121948360Y-94973593D01*
X121850618Y-94938776D01*
X121771952Y-94901791D01*
X121709551Y-94863135D01*
X121652527Y-94816932D01*
X121601494Y-94764022D01*
X121556167Y-94703949D01*
X121330975Y-94703949D01*
G37*
D10*
G36*
X138623338Y-66355000D02*
G01*
X138167398Y-66355000D01*
X138051627Y-65798126D01*
X137802957Y-65798126D01*
X137664981Y-65789076D01*
X137548734Y-65763672D01*
X137450698Y-65723778D01*
X137367991Y-65670173D01*
X137295927Y-65601207D01*
X137237531Y-65520182D01*
X137192229Y-65425521D01*
X137160354Y-65314983D01*
X137156110Y-65281647D01*
X137600937Y-65281647D01*
X137605028Y-65327806D01*
X137620319Y-65373096D01*
X137645950Y-65412449D01*
X137682972Y-65446874D01*
X137727442Y-65470813D01*
X137790188Y-65487110D01*
X137876962Y-65493311D01*
X137988246Y-65493311D01*
X137918819Y-65159187D01*
X137789493Y-65159187D01*
X137705661Y-65166331D01*
X137654904Y-65183870D01*
X137626278Y-65208279D01*
X137608255Y-65242475D01*
X137600937Y-65281647D01*
X137156110Y-65281647D01*
X137145983Y-65202107D01*
X137151769Y-65110583D01*
X137174308Y-65035827D01*
X137212286Y-64974173D01*
X137265118Y-64925447D01*
X137336590Y-64888232D01*
X137431623Y-64863547D01*
X137556668Y-64854371D01*
X138311379Y-64854371D01*
X138623338Y-66355000D01*
G37*
G36*
X137100087Y-66355000D02*
G01*
X136643963Y-66355000D01*
X136517201Y-65745369D01*
X136477176Y-65745369D01*
X136419187Y-65754368D01*
X136373129Y-65780174D01*
X136346586Y-65816224D01*
X136315060Y-65895945D01*
X136167965Y-66355000D01*
X135654780Y-66355000D01*
X135784106Y-65921316D01*
X135797764Y-65885599D01*
X135828253Y-65827527D01*
X135863014Y-65772841D01*
X135884490Y-65748209D01*
X135922260Y-65722758D01*
X135991102Y-65692521D01*
X135890928Y-65664434D01*
X135819461Y-65633170D01*
X135724309Y-65568117D01*
X135645621Y-65486350D01*
X135603907Y-65423174D01*
X135571562Y-65351771D01*
X135548717Y-65270928D01*
X135547669Y-65262162D01*
X136008573Y-65262162D01*
X136012718Y-65309579D01*
X136029340Y-65355597D01*
X136059429Y-65396499D01*
X136099000Y-65427454D01*
X136142869Y-65443577D01*
X136267341Y-65464002D01*
X136458766Y-65464002D01*
X136395385Y-65159187D01*
X136195991Y-65159187D01*
X136113034Y-65164988D01*
X136062855Y-65179098D01*
X136034700Y-65198113D01*
X136016433Y-65226118D01*
X136008573Y-65262162D01*
X135547669Y-65262162D01*
X135537334Y-65175716D01*
X135544004Y-65095810D01*
X135566394Y-65027845D01*
X135604504Y-64967943D01*
X135654249Y-64922928D01*
X135717337Y-64891191D01*
X135787999Y-64872625D01*
X135889774Y-64859453D01*
X136031402Y-64854371D01*
X136788128Y-64854371D01*
X137100087Y-66355000D01*
G37*
G36*
X135621899Y-66355000D02*
G01*
X135157898Y-66355000D01*
X135035441Y-66108803D01*
X134518318Y-66108803D01*
X134497344Y-66355000D01*
X134022261Y-66355000D01*
X134113325Y-65786402D01*
X134546528Y-65786402D01*
X134870211Y-65786402D01*
X134596262Y-65244824D01*
X134546528Y-65786402D01*
X134113325Y-65786402D01*
X134262596Y-64854371D01*
X134757645Y-64854371D01*
X135621899Y-66355000D01*
G37*
G36*
X133835049Y-66355000D02*
G01*
X133160572Y-66355000D01*
X133035530Y-66345547D01*
X132881402Y-66314058D01*
X132807023Y-66288643D01*
X132730847Y-66249458D01*
X132652150Y-66194807D01*
X132580588Y-66131026D01*
X132515654Y-66057266D01*
X132457153Y-65972698D01*
X132410243Y-65881167D01*
X132366040Y-65759020D01*
X132325903Y-65599556D01*
X132303699Y-65447742D01*
X132302840Y-65390091D01*
X132762008Y-65390091D01*
X132764022Y-65481582D01*
X132783949Y-65609265D01*
X132813748Y-65729685D01*
X132843479Y-65813836D01*
X132872335Y-65870025D01*
X132909640Y-65920213D01*
X132948757Y-65957126D01*
X132989938Y-65982773D01*
X133036006Y-65999014D01*
X133103501Y-66010541D01*
X133199040Y-66015013D01*
X133310323Y-66015013D01*
X133139689Y-65194357D01*
X133026483Y-65194357D01*
X132936833Y-65201292D01*
X132871492Y-65219644D01*
X132824684Y-65246922D01*
X132792193Y-65282468D01*
X132772614Y-65326144D01*
X132762008Y-65390091D01*
X132302840Y-65390091D01*
X132301631Y-65308938D01*
X132312807Y-65219050D01*
X132335095Y-65139342D01*
X132367943Y-65068328D01*
X132412665Y-65004983D01*
X132468849Y-64952367D01*
X132537844Y-64909692D01*
X132614203Y-64881007D01*
X132715704Y-64861621D01*
X132848613Y-64854371D01*
X133523089Y-64854371D01*
X133835049Y-66355000D01*
G37*
G36*
X132116709Y-64854371D02*
G01*
X131612591Y-64854371D01*
X131421074Y-65360046D01*
X131019173Y-64854371D01*
X130518170Y-64854371D01*
X131270590Y-65726502D01*
X131401291Y-66355000D01*
X131856407Y-66355000D01*
X131725706Y-65726502D01*
X132116709Y-64854371D01*
G37*
G36*
X129379693Y-64854371D02*
G01*
X128926683Y-64854371D01*
X129112247Y-65747201D01*
X129149303Y-65876335D01*
X129205028Y-65997978D01*
X129252732Y-66073203D01*
X129309263Y-66141842D01*
X129375113Y-66204332D01*
X129482678Y-66281335D01*
X129582933Y-66328438D01*
X129679258Y-66355468D01*
X129788043Y-66372485D01*
X129911012Y-66378447D01*
X130020082Y-66374751D01*
X130141914Y-66363060D01*
X130258047Y-66338849D01*
X130341307Y-66302335D01*
X130410437Y-66248270D01*
X130470267Y-66173191D01*
X130512453Y-66086967D01*
X130530992Y-66000450D01*
X130534413Y-65861679D01*
X130520459Y-65747201D01*
X130334896Y-64854371D01*
X129881886Y-64854371D01*
X130071572Y-65766802D01*
X130079785Y-65847406D01*
X130069823Y-65909451D01*
X130044644Y-65957952D01*
X130004756Y-65994685D01*
X129949622Y-66018079D01*
X129874010Y-66026737D01*
X129798331Y-66018864D01*
X129733065Y-65996208D01*
X129675990Y-65958960D01*
X129629388Y-65909067D01*
X129593765Y-65845945D01*
X129569378Y-65766802D01*
X129379693Y-64854371D01*
G37*
G36*
X128592559Y-64854371D02*
G01*
X127995202Y-64854371D01*
X127954444Y-65766802D01*
X127535232Y-64854371D01*
X126939890Y-64854371D01*
X127251849Y-66355000D01*
X127622610Y-66355000D01*
X127384473Y-65209378D01*
X127910297Y-66355000D01*
X128246070Y-66355000D01*
X128294522Y-65209378D01*
X128532658Y-66355000D01*
X128904518Y-66355000D01*
X128592559Y-64854371D01*
G37*
G36*
X126603201Y-64854371D02*
G01*
X126179318Y-64854371D01*
X125798573Y-65684370D01*
X125626016Y-64854371D01*
X125198011Y-64854371D01*
X125509970Y-66355000D01*
X125937975Y-66355000D01*
X126316704Y-65529672D01*
X126488254Y-66355000D01*
X126915160Y-66355000D01*
X126603201Y-64854371D01*
G37*
G36*
X125338786Y-66355000D02*
G01*
X124874786Y-66355000D01*
X124752329Y-66108803D01*
X124235206Y-66108803D01*
X124214231Y-66355000D01*
X123739148Y-66355000D01*
X123830212Y-65786402D01*
X124263416Y-65786402D01*
X124587098Y-65786402D01*
X124313150Y-65244824D01*
X124263416Y-65786402D01*
X123830212Y-65786402D01*
X123979483Y-64854371D01*
X124474533Y-64854371D01*
X125338786Y-66355000D01*
G37*
G36*
X136220884Y-62384371D02*
G01*
X135797001Y-62384371D01*
X135416257Y-63214370D01*
X135243699Y-62384371D01*
X134815694Y-62384371D01*
X135127653Y-63885000D01*
X135555658Y-63885000D01*
X135934387Y-63059672D01*
X136105937Y-63885000D01*
X136532843Y-63885000D01*
X136220884Y-62384371D01*
G37*
G36*
X134956470Y-63885000D02*
G01*
X134492469Y-63885000D01*
X134370012Y-63638803D01*
X133852889Y-63638803D01*
X133831914Y-63885000D01*
X133356832Y-63885000D01*
X133447896Y-63316402D01*
X133881099Y-63316402D01*
X134204782Y-63316402D01*
X133930833Y-62774824D01*
X133881099Y-63316402D01*
X133447896Y-63316402D01*
X133597167Y-62384371D01*
X134092216Y-62384371D01*
X134956470Y-63885000D01*
G37*
G36*
X132860591Y-62384371D02*
G01*
X132436708Y-62384371D01*
X132055964Y-63214370D01*
X131883406Y-62384371D01*
X131455401Y-62384371D01*
X131767360Y-63885000D01*
X132195365Y-63885000D01*
X132574094Y-63059672D01*
X132745644Y-63885000D01*
X133172550Y-63885000D01*
X132860591Y-62384371D01*
G37*
G36*
X131421329Y-63885000D02*
G01*
X130746853Y-63885000D01*
X130621811Y-63875547D01*
X130467683Y-63844058D01*
X130393304Y-63818643D01*
X130317127Y-63779458D01*
X130238431Y-63724807D01*
X130166869Y-63661026D01*
X130101935Y-63587266D01*
X130043433Y-63502698D01*
X129996524Y-63411167D01*
X129952320Y-63289020D01*
X129912183Y-63129556D01*
X129889980Y-62977742D01*
X129889121Y-62920091D01*
X130348288Y-62920091D01*
X130350302Y-63011582D01*
X130370230Y-63139265D01*
X130400028Y-63259685D01*
X130429760Y-63343836D01*
X130458615Y-63400025D01*
X130495921Y-63450213D01*
X130535038Y-63487126D01*
X130576218Y-63512773D01*
X130622286Y-63529014D01*
X130689782Y-63540541D01*
X130785321Y-63545013D01*
X130896604Y-63545013D01*
X130725970Y-62724357D01*
X130612763Y-62724357D01*
X130523113Y-62731292D01*
X130457772Y-62749644D01*
X130410965Y-62776922D01*
X130378473Y-62812468D01*
X130358895Y-62856144D01*
X130348288Y-62920091D01*
X129889121Y-62920091D01*
X129887912Y-62838938D01*
X129899088Y-62749050D01*
X129921376Y-62669342D01*
X129954223Y-62598328D01*
X129998945Y-62534983D01*
X130055130Y-62482367D01*
X130124125Y-62439692D01*
X130200484Y-62411007D01*
X130301984Y-62391621D01*
X130434893Y-62384371D01*
X131109370Y-62384371D01*
X131421329Y-63885000D01*
G37*
G36*
X130032534Y-63885000D02*
G01*
X129568533Y-63885000D01*
X129446076Y-63638803D01*
X128928953Y-63638803D01*
X128907979Y-63885000D01*
X128432896Y-63885000D01*
X128523960Y-63316402D01*
X128957163Y-63316402D01*
X129280846Y-63316402D01*
X129006897Y-62774824D01*
X128957163Y-63316402D01*
X128523960Y-63316402D01*
X128673231Y-62384371D01*
X129168280Y-62384371D01*
X130032534Y-63885000D01*
G37*
G36*
X127936655Y-62384371D02*
G01*
X127512772Y-62384371D01*
X127132028Y-63214370D01*
X126959470Y-62384371D01*
X126531465Y-62384371D01*
X126843424Y-63885000D01*
X127271429Y-63885000D01*
X127650159Y-63059672D01*
X127821709Y-63885000D01*
X128248615Y-63885000D01*
X127936655Y-62384371D01*
G37*
G36*
X125479122Y-83357955D02*
G01*
X125541648Y-83401369D01*
X125578029Y-83432701D01*
X125594527Y-83450889D01*
X125611584Y-83480460D01*
X125631652Y-83531489D01*
X125650511Y-83466795D01*
X125671219Y-83422862D01*
X125699033Y-83384094D01*
X125731546Y-83351729D01*
X125769099Y-83325226D01*
X125810713Y-83305899D01*
X125858186Y-83293890D01*
X125912714Y-83289689D01*
X125974964Y-83295177D01*
X126028431Y-83310842D01*
X126074769Y-83336156D01*
X126114711Y-83370619D01*
X126144817Y-83411073D01*
X126165872Y-83458400D01*
X126178370Y-83509871D01*
X126187096Y-83581286D01*
X126190418Y-83677669D01*
X126190418Y-84193449D01*
X125190000Y-84193449D01*
X125190000Y-83882588D01*
X125596420Y-83882588D01*
X125596420Y-83855294D01*
X125590561Y-83814958D01*
X125573217Y-83779457D01*
X125548960Y-83756065D01*
X125542527Y-83752102D01*
X125783998Y-83752102D01*
X125783998Y-83882588D01*
X125987208Y-83882588D01*
X125987208Y-83746667D01*
X125983471Y-83690160D01*
X125974140Y-83653650D01*
X125961257Y-83631263D01*
X125942058Y-83614515D01*
X125917808Y-83604186D01*
X125886946Y-83600488D01*
X125855998Y-83605390D01*
X125829000Y-83619966D01*
X125808511Y-83642308D01*
X125797615Y-83670158D01*
X125783998Y-83752102D01*
X125542527Y-83752102D01*
X125496036Y-83723464D01*
X125190000Y-83558112D01*
X125190000Y-83208356D01*
X125479122Y-83357955D01*
G37*
G36*
X125286598Y-82172278D02*
G01*
X125336912Y-82248115D01*
X125391032Y-82210241D01*
X125452357Y-82180105D01*
X125521901Y-82157784D01*
X125600909Y-82143742D01*
X125690819Y-82138817D01*
X125791763Y-82145011D01*
X125878475Y-82162528D01*
X125953076Y-82190199D01*
X126017342Y-82227469D01*
X126072632Y-82274433D01*
X126118782Y-82330442D01*
X126155460Y-82395400D01*
X126182707Y-82470656D01*
X126199954Y-82557954D01*
X126206050Y-82659359D01*
X126199894Y-82758348D01*
X126182414Y-82844155D01*
X126154664Y-82918715D01*
X126117107Y-82983651D01*
X126069579Y-83040195D01*
X126013028Y-83087586D01*
X125947926Y-83125083D01*
X125873010Y-83152822D01*
X125786623Y-83170317D01*
X125686789Y-83176482D01*
X125584803Y-83169558D01*
X125496290Y-83149846D01*
X125419165Y-83118400D01*
X125351729Y-83075517D01*
X125292765Y-83020717D01*
X125251708Y-82966610D01*
X125219099Y-82904811D01*
X125194943Y-82834204D01*
X125179721Y-82753383D01*
X125174368Y-82660703D01*
X125174552Y-82657283D01*
X125404933Y-82657283D01*
X125409351Y-82705088D01*
X125421937Y-82745799D01*
X125442287Y-82780799D01*
X125470818Y-82811034D01*
X125504578Y-82832983D01*
X125551433Y-82850535D01*
X125615050Y-82862514D01*
X125699795Y-82867027D01*
X125771298Y-82862669D01*
X125827621Y-82850818D01*
X125871614Y-82832885D01*
X125905631Y-82809630D01*
X125934512Y-82778716D01*
X125954860Y-82744052D01*
X125967272Y-82704872D01*
X125971577Y-82660031D01*
X125967214Y-82611417D01*
X125954821Y-82570184D01*
X125934866Y-82534918D01*
X125907035Y-82504631D01*
X125873817Y-82482224D01*
X125828985Y-82464585D01*
X125769491Y-82452706D01*
X125691674Y-82448272D01*
X125604225Y-82453236D01*
X125540303Y-82466264D01*
X125494631Y-82485153D01*
X125517041Y-82519286D01*
X125574132Y-82608435D01*
X125583546Y-82633789D01*
X125592451Y-82672304D01*
X125481687Y-82720786D01*
X125444959Y-82643887D01*
X125411039Y-82597871D01*
X125404933Y-82657283D01*
X125174552Y-82657283D01*
X125179867Y-82558236D01*
X125195106Y-82473546D01*
X125218576Y-82403820D01*
X125154279Y-82315038D01*
X125114200Y-82250691D01*
X125080579Y-82186627D01*
X125251915Y-82100532D01*
X125286598Y-82172278D01*
G37*
G36*
X125662854Y-82043745D02*
G01*
X125662854Y-81639340D01*
X125447920Y-81639340D01*
X125447920Y-82043745D01*
X125662854Y-82043745D01*
G37*
G36*
X125190000Y-80736802D02*
G01*
X125190000Y-81571563D01*
X125270092Y-81555655D01*
X125347150Y-81526858D01*
X125422030Y-81484490D01*
X125489874Y-81430176D01*
X125574122Y-81342569D01*
X125678241Y-81211549D01*
X125765870Y-81102165D01*
X125815505Y-81055111D01*
X125863048Y-81028814D01*
X125904471Y-81020978D01*
X125933407Y-81024750D01*
X125959032Y-81035855D01*
X125982262Y-81054806D01*
X126000061Y-81079023D01*
X126010822Y-81107009D01*
X126014563Y-81139863D01*
X126010639Y-81173968D01*
X125999413Y-81202579D01*
X125980919Y-81226936D01*
X125956120Y-81245221D01*
X125918059Y-81260749D01*
X125862156Y-81272365D01*
X125884809Y-81551046D01*
X125962682Y-81535831D01*
X126023038Y-81515451D01*
X126069091Y-81490963D01*
X126109363Y-81458292D01*
X126143135Y-81417563D01*
X126170696Y-81367681D01*
X126189006Y-81313298D01*
X126201412Y-81241271D01*
X126206050Y-81147374D01*
X126201625Y-81049085D01*
X126189857Y-80974463D01*
X126172650Y-80918885D01*
X126146033Y-80867768D01*
X126111963Y-80825303D01*
X126070006Y-80790474D01*
X126022097Y-80764485D01*
X125970749Y-80748926D01*
X125914912Y-80743640D01*
X125855528Y-80749475D01*
X125797661Y-80767080D01*
X125740340Y-80797252D01*
X125688824Y-80837482D01*
X125628579Y-80900382D01*
X125558012Y-80992280D01*
X125477107Y-81104692D01*
X125416657Y-81171249D01*
X125416657Y-80736802D01*
X125190000Y-80736802D01*
G37*
G36*
X125817150Y-79806796D02*
G01*
X125930422Y-79827730D01*
X125986560Y-79844853D01*
X126032821Y-79865648D01*
X126074981Y-79892985D01*
X126116535Y-79930190D01*
X126151805Y-79975841D01*
X126181198Y-80036069D01*
X126194278Y-80080029D01*
X126202903Y-80134666D01*
X126206050Y-80202032D01*
X126200736Y-80288002D01*
X126185845Y-80360355D01*
X126162544Y-80421231D01*
X126131416Y-80472421D01*
X126092416Y-80515273D01*
X126047166Y-80548239D01*
X125988074Y-80576090D01*
X125912077Y-80598033D01*
X125815532Y-80612659D01*
X125694300Y-80618039D01*
X125581309Y-80612779D01*
X125482969Y-80597889D01*
X125419875Y-80581459D01*
X125370410Y-80562480D01*
X125332271Y-80541530D01*
X125284215Y-80504731D01*
X125245218Y-80462310D01*
X125214485Y-80413790D01*
X125193314Y-80360339D01*
X125179435Y-80293253D01*
X125174409Y-80210214D01*
X125365854Y-80210214D01*
X125370048Y-80239927D01*
X125382344Y-80265561D01*
X125403440Y-80288225D01*
X125435403Y-80308278D01*
X125484237Y-80324634D01*
X125566353Y-80337016D01*
X125695155Y-80342044D01*
X125822628Y-80337473D01*
X125904153Y-80326203D01*
X125952770Y-80311331D01*
X125984340Y-80292685D01*
X126005463Y-80270313D01*
X126018015Y-80243749D01*
X126022379Y-80211618D01*
X126018147Y-80180028D01*
X126005875Y-80153280D01*
X125985125Y-80130154D01*
X125954113Y-80110197D01*
X125905961Y-80093961D01*
X125822214Y-80081488D01*
X125687644Y-80076369D01*
X125561471Y-80080748D01*
X125488709Y-80091085D01*
X125447288Y-80103732D01*
X125416941Y-80119141D01*
X125395347Y-80136819D01*
X125373204Y-80170766D01*
X125365854Y-80210214D01*
X125174409Y-80210214D01*
X125174368Y-80209542D01*
X125180434Y-80116998D01*
X125197202Y-80041698D01*
X125223099Y-79980610D01*
X125257398Y-79931265D01*
X125300275Y-79891905D01*
X125349778Y-79861969D01*
X125411715Y-79836840D01*
X125488466Y-79817260D01*
X125582780Y-79804381D01*
X125697719Y-79799703D01*
X125817150Y-79806796D01*
G37*
G36*
X125190000Y-78870786D02*
G01*
X125190000Y-79705547D01*
X125270092Y-79689640D01*
X125347150Y-79660842D01*
X125422030Y-79618475D01*
X125489874Y-79564160D01*
X125574122Y-79476553D01*
X125678241Y-79345533D01*
X125765870Y-79236149D01*
X125815505Y-79189096D01*
X125863048Y-79162799D01*
X125904471Y-79154963D01*
X125933407Y-79158734D01*
X125959032Y-79169840D01*
X125982262Y-79188790D01*
X126000061Y-79213008D01*
X126010822Y-79240994D01*
X126014563Y-79273848D01*
X126010639Y-79307953D01*
X125999413Y-79336564D01*
X125980919Y-79360921D01*
X125956120Y-79379205D01*
X125918059Y-79394733D01*
X125862156Y-79406350D01*
X125884809Y-79685031D01*
X125962682Y-79669816D01*
X126023038Y-79649436D01*
X126069091Y-79624947D01*
X126109363Y-79592277D01*
X126143135Y-79551548D01*
X126170696Y-79501666D01*
X126189006Y-79447283D01*
X126201412Y-79375255D01*
X126206050Y-79281359D01*
X126201625Y-79183070D01*
X126189857Y-79108448D01*
X126172650Y-79052869D01*
X126146033Y-79001753D01*
X126111963Y-78959288D01*
X126070006Y-78924459D01*
X126022097Y-78898470D01*
X125970749Y-78882911D01*
X125914912Y-78877625D01*
X125855528Y-78883459D01*
X125797661Y-78901065D01*
X125740340Y-78931236D01*
X125688824Y-78971466D01*
X125628579Y-79034366D01*
X125558012Y-79126264D01*
X125477107Y-79238677D01*
X125416657Y-79305233D01*
X125416657Y-78870786D01*
X125190000Y-78870786D01*
G37*
G36*
X126190418Y-78639305D02*
G01*
X126190418Y-77978750D01*
X125963761Y-77978750D01*
X125963761Y-78426203D01*
X125814590Y-78450078D01*
X125833893Y-78403331D01*
X125847318Y-78358182D01*
X125855549Y-78312734D01*
X125858248Y-78268361D01*
X125852190Y-78194231D01*
X125834874Y-78129976D01*
X125806948Y-78073850D01*
X125768183Y-78024546D01*
X125720220Y-77983585D01*
X125667199Y-77954655D01*
X125608070Y-77937028D01*
X125541343Y-77930940D01*
X125478454Y-77936231D01*
X125417106Y-77952132D01*
X125356512Y-77979117D01*
X125301804Y-78015867D01*
X125256957Y-78061125D01*
X125221079Y-78115710D01*
X125196247Y-78176490D01*
X125180176Y-78251019D01*
X125174368Y-78342184D01*
X125179405Y-78437534D01*
X125192991Y-78511933D01*
X125216763Y-78578570D01*
X125248496Y-78632161D01*
X125288393Y-78677470D01*
X125332149Y-78712395D01*
X125382688Y-78739679D01*
X125448714Y-78763625D01*
X125479183Y-78482196D01*
X125436096Y-78471637D01*
X125402762Y-78455547D01*
X125377273Y-78434385D01*
X125357856Y-78407671D01*
X125346338Y-78378169D01*
X125342407Y-78344931D01*
X125347315Y-78308184D01*
X125361619Y-78276632D01*
X125385882Y-78248944D01*
X125417148Y-78229002D01*
X125459319Y-78215901D01*
X125515697Y-78211025D01*
X125573470Y-78216042D01*
X125615306Y-78229338D01*
X125645146Y-78249310D01*
X125667736Y-78277139D01*
X125681472Y-78310498D01*
X125686301Y-78351038D01*
X125681475Y-78390416D01*
X125666762Y-78428890D01*
X125648416Y-78456384D01*
X125615471Y-78490378D01*
X125649237Y-78727416D01*
X126190418Y-78639305D01*
G37*
G36*
X126206050Y-77188503D02*
G01*
X125190000Y-77188503D01*
X125190000Y-77469931D01*
X125854279Y-77469931D01*
X125806623Y-77538716D01*
X125770809Y-77602128D01*
X125740982Y-77670530D01*
X125709748Y-77762351D01*
X125936406Y-77762351D01*
X125971526Y-77669144D01*
X126008517Y-77596750D01*
X126046864Y-77541678D01*
X126093068Y-77493215D01*
X126145910Y-77452333D01*
X126206050Y-77418702D01*
X126206050Y-77188503D01*
G37*
G36*
X125662854Y-76912691D02*
G01*
X125662854Y-76508286D01*
X125447920Y-76508286D01*
X125447920Y-76912691D01*
X125662854Y-76912691D01*
G37*
G36*
X126190418Y-75762185D02*
G01*
X126190418Y-76099607D01*
X125190000Y-76476046D01*
X125190000Y-76159752D01*
X125354131Y-76111209D01*
X125354131Y-76044286D01*
X125569064Y-76044286D01*
X125930116Y-75934316D01*
X125569064Y-75823674D01*
X125569064Y-76044286D01*
X125354131Y-76044286D01*
X125354131Y-75758766D01*
X125190000Y-75709551D01*
X125190000Y-75385746D01*
X126190418Y-75762185D01*
G37*
G36*
X125817150Y-74520404D02*
G01*
X125930422Y-74541338D01*
X125986560Y-74558461D01*
X126032821Y-74579256D01*
X126074981Y-74606593D01*
X126116535Y-74643797D01*
X126151805Y-74689448D01*
X126181198Y-74749677D01*
X126194278Y-74793637D01*
X126202903Y-74848274D01*
X126206050Y-74915640D01*
X126200736Y-75001610D01*
X126185845Y-75073962D01*
X126162544Y-75134839D01*
X126131416Y-75186029D01*
X126092416Y-75228881D01*
X126047166Y-75261847D01*
X125988074Y-75289698D01*
X125912077Y-75311641D01*
X125815532Y-75326267D01*
X125694300Y-75331646D01*
X125581309Y-75326387D01*
X125482969Y-75311496D01*
X125419875Y-75295066D01*
X125370410Y-75276087D01*
X125332271Y-75255137D01*
X125284215Y-75218339D01*
X125245218Y-75175917D01*
X125214485Y-75127398D01*
X125193314Y-75073947D01*
X125179435Y-75006861D01*
X125174409Y-74923822D01*
X125365854Y-74923822D01*
X125370048Y-74953535D01*
X125382344Y-74979169D01*
X125403440Y-75001833D01*
X125435403Y-75021885D01*
X125484237Y-75038242D01*
X125566353Y-75050624D01*
X125695155Y-75055652D01*
X125822628Y-75051080D01*
X125904153Y-75039811D01*
X125952770Y-75024938D01*
X125984340Y-75006293D01*
X126005463Y-74983920D01*
X126018015Y-74957357D01*
X126022379Y-74925226D01*
X126018147Y-74893636D01*
X126005875Y-74866888D01*
X125985125Y-74843762D01*
X125954113Y-74823804D01*
X125905961Y-74807569D01*
X125822214Y-74795096D01*
X125687644Y-74789977D01*
X125561471Y-74794356D01*
X125488709Y-74804692D01*
X125447288Y-74817340D01*
X125416941Y-74832749D01*
X125395347Y-74850427D01*
X125373204Y-74884374D01*
X125365854Y-74923822D01*
X125174409Y-74923822D01*
X125174368Y-74923150D01*
X125180434Y-74830606D01*
X125197202Y-74755306D01*
X125223099Y-74694218D01*
X125257398Y-74644873D01*
X125300275Y-74605512D01*
X125349778Y-74575577D01*
X125411715Y-74550448D01*
X125488466Y-74530868D01*
X125582780Y-74517989D01*
X125697719Y-74513311D01*
X125817150Y-74520404D01*
G37*
D13*
X117750000Y-52811372D02*
X117750000Y-115452843D01*
X132730000Y-46190486D02*
G75*
G02*
X129730000Y-46190486I-1500000J0D01*
G01*
X129730000Y-46190486D02*
G75*
G02*
X132730000Y-46190486I1500000J0D01*
G01*
X121390486Y-112100000D02*
G75*
G02*
X118390486Y-112100000I-1500000J0D01*
G01*
X118390486Y-112100000D02*
G75*
G02*
X121390486Y-112100000I1500000J0D01*
G01*
X119296690Y-116290178D02*
G75*
G02*
X117749964Y-115452843I-546690J837378D01*
G01*
X130653315Y-108875527D02*
X119296690Y-116290178D01*
X130653315Y-43845523D02*
G75*
G02*
X131746692Y-43845528I546685J-837377D01*
G01*
X144196690Y-51974037D02*
G75*
G02*
X144649985Y-52811372I-546590J-837263D01*
G01*
X133760000Y-45160000D02*
X131746695Y-43845524D01*
X144650000Y-115452842D02*
X144650000Y-52811372D01*
X144196690Y-51974037D02*
X133760000Y-45160000D01*
X118203310Y-51974037D02*
X128640000Y-45160000D01*
X144650000Y-115452842D02*
G75*
G02*
X143103329Y-116290148I-1000000J42D01*
G01*
X128640000Y-45160000D02*
X130653315Y-43845523D01*
X130653315Y-108875527D02*
G75*
G02*
X131746692Y-108875532I546685J-837373D01*
G01*
X143980000Y-112100000D02*
G75*
G02*
X140980000Y-112100000I-1500000J0D01*
G01*
X140980000Y-112100000D02*
G75*
G02*
X143980000Y-112100000I1500000J0D01*
G01*
X117750000Y-52811372D02*
G75*
G02*
X118203298Y-51974019I1000100J-28D01*
G01*
X131746695Y-108875528D02*
X143103310Y-116290177D01*
%TO.C,USB*%
X132340000Y-51330000D02*
G75*
G02*
X131940000Y-51330000I-200000J0D01*
G01*
X131940000Y-51330000D02*
G75*
G02*
X132340000Y-51330000I200000J0D01*
G01*
%TD*%
M02*
