%TF.GenerationSoftware,KiCad,Pcbnew,9.0.3*%
%TF.CreationDate,2025-07-21T11:45:29+05:30*%
%TF.ProjectId,RQF 20251,52514620-3230-4323-9531-2e6b69636164,QUBE 20251*%
%TF.SameCoordinates,Original*%
%TF.FileFunction,Soldermask,Top*%
%TF.FilePolarity,Negative*%
%FSLAX46Y46*%
G04 Gerber Fmt 4.6, Leading zero omitted, Abs format (unit mm)*
G04 Created by KiCad (PCBNEW 9.0.3) date 2025-07-21 11:45:29*
%MOMM*%
%LPD*%
G01*
G04 APERTURE LIST*
G04 Aperture macros list*
%AMRoundRect*
0 Rectangle with rounded corners*
0 $1 Rounding radius*
0 $2 $3 $4 $5 $6 $7 $8 $9 X,Y pos of 4 corners*
0 Add a 4 corners polygon primitive as box body*
4,1,4,$2,$3,$4,$5,$6,$7,$8,$9,$2,$3,0*
0 Add four circle primitives for the rounded corners*
1,1,$1+$1,$2,$3*
1,1,$1+$1,$4,$5*
1,1,$1+$1,$6,$7*
1,1,$1+$1,$8,$9*
0 Add four rect primitives between the rounded corners*
20,1,$1+$1,$2,$3,$4,$5,0*
20,1,$1+$1,$4,$5,$6,$7,0*
20,1,$1+$1,$6,$7,$8,$9,0*
20,1,$1+$1,$8,$9,$2,$3,0*%
%AMHorizOval*
0 Thick line with rounded ends*
0 $1 width*
0 $2 $3 position (X,Y) of the first rounded end (center of the circle)*
0 $4 $5 position (X,Y) of the second rounded end (center of the circle)*
0 Add line between two ends*
20,1,$1,$2,$3,$4,$5,0*
0 Add two circle primitives to create the rounded ends*
1,1,$1,$2,$3*
1,1,$1,$4,$5*%
%AMRotRect*
0 Rectangle, with rotation*
0 The origin of the aperture is its center*
0 $1 length*
0 $2 width*
0 $3 Rotation angle, in degrees counterclockwise*
0 Add horizontal line*
21,1,$1,$2,0,0,$3*%
%AMOutline5P*
0 Free polygon, 5 corners , with rotation*
0 The origin of the aperture is its center*
0 number of corners: always 5*
0 $1 to $10 corner X, Y*
0 $11 Rotation angle, in degrees counterclockwise*
0 create outline with 5 corners*
4,1,5,$1,$2,$3,$4,$5,$6,$7,$8,$9,$10,$1,$2,$11*%
%AMOutline6P*
0 Free polygon, 6 corners , with rotation*
0 The origin of the aperture is its center*
0 number of corners: always 6*
0 $1 to $12 corner X, Y*
0 $13 Rotation angle, in degrees counterclockwise*
0 create outline with 6 corners*
4,1,6,$1,$2,$3,$4,$5,$6,$7,$8,$9,$10,$11,$12,$1,$2,$13*%
%AMOutline7P*
0 Free polygon, 7 corners , with rotation*
0 The origin of the aperture is its center*
0 number of corners: always 7*
0 $1 to $14 corner X, Y*
0 $15 Rotation angle, in degrees counterclockwise*
0 create outline with 7 corners*
4,1,7,$1,$2,$3,$4,$5,$6,$7,$8,$9,$10,$11,$12,$13,$14,$1,$2,$15*%
%AMOutline8P*
0 Free polygon, 8 corners , with rotation*
0 The origin of the aperture is its center*
0 number of corners: always 8*
0 $1 to $16 corner X, Y*
0 $17 Rotation angle, in degrees counterclockwise*
0 create outline with 8 corners*
4,1,8,$1,$2,$3,$4,$5,$6,$7,$8,$9,$10,$11,$12,$13,$14,$15,$16,$1,$2,$17*%
G04 Aperture macros list end*
%ADD10RoundRect,0.155000X-0.212500X-0.155000X0.212500X-0.155000X0.212500X0.155000X-0.212500X0.155000X0*%
%ADD11RoundRect,0.155000X0.212500X0.155000X-0.212500X0.155000X-0.212500X-0.155000X0.212500X-0.155000X0*%
%ADD12RoundRect,0.160000X-0.160000X0.197500X-0.160000X-0.197500X0.160000X-0.197500X0.160000X0.197500X0*%
%ADD13RoundRect,0.050000X-0.387500X-0.050000X0.387500X-0.050000X0.387500X0.050000X-0.387500X0.050000X0*%
%ADD14RoundRect,0.050000X-0.050000X-0.387500X0.050000X-0.387500X0.050000X0.387500X-0.050000X0.387500X0*%
%ADD15RoundRect,0.144000X-1.456000X-1.456000X1.456000X-1.456000X1.456000X1.456000X-1.456000X1.456000X0*%
%ADD16RoundRect,0.155000X0.155000X-0.212500X0.155000X0.212500X-0.155000X0.212500X-0.155000X-0.212500X0*%
%ADD17RoundRect,0.050000X-0.329056X-1.050820X1.094417X-0.121452X0.329056X1.050820X-1.094417X0.121452X0*%
%ADD18RoundRect,0.100000X-0.100000X0.217500X-0.100000X-0.217500X0.100000X-0.217500X0.100000X0.217500X0*%
%ADD19RoundRect,0.160000X-0.197500X-0.160000X0.197500X-0.160000X0.197500X0.160000X-0.197500X0.160000X0*%
%ADD20R,2.200000X1.600000*%
%ADD21O,2.200000X1.600000*%
%ADD22RoundRect,0.100000X-0.217500X-0.100000X0.217500X-0.100000X0.217500X0.100000X-0.217500X0.100000X0*%
%ADD23R,1.400000X1.200000*%
%ADD24R,1.400000X3.500000*%
%ADD25RoundRect,0.160000X0.160000X-0.197500X0.160000X0.197500X-0.160000X0.197500X-0.160000X-0.197500X0*%
%ADD26RotRect,2.000000X2.500000X146.859000*%
%ADD27HorizOval,2.000000X0.136675X0.209332X-0.136675X-0.209332X0*%
%ADD28RoundRect,0.155000X-0.155000X0.212500X-0.155000X-0.212500X0.155000X-0.212500X0.155000X0.212500X0*%
%ADD29C,0.900000*%
%ADD30C,0.700000*%
%ADD31RoundRect,0.250000X-0.250000X-0.800000X0.250000X-0.800000X0.250000X0.800000X-0.250000X0.800000X0*%
%ADD32Outline5P,-0.700000X0.600000X0.400000X0.600000X0.700000X0.300000X0.700000X-0.600000X-0.700000X-0.600000X0.000000*%
%ADD33RoundRect,0.100000X0.100000X-0.217500X0.100000X0.217500X-0.100000X0.217500X-0.100000X-0.217500X0*%
%ADD34R,0.600000X2.200000*%
%ADD35O,0.600000X2.200000*%
%ADD36RoundRect,0.250000X0.006744X-0.742010X0.676614X-0.304661X-0.006744X0.742010X-0.676614X0.304661X0*%
%ADD37R,1.400000X1.800000*%
%ADD38C,1.000000*%
%TA.AperFunction,Profile*%
%ADD39C,0.050000*%
%TD*%
G04 APERTURE END LIST*
D10*
%TO.C,C4*%
X132230000Y-94770000D03*
X133365000Y-94770000D03*
%TD*%
D11*
%TO.C,C12*%
X123772500Y-87770000D03*
X122637500Y-87770000D03*
%TD*%
D12*
%TO.C,R3*%
X135550000Y-75352500D03*
X135550000Y-76547500D03*
%TD*%
D13*
%TO.C,U2*%
X128177500Y-82055000D03*
X128177500Y-82455000D03*
X128177500Y-82855000D03*
X128177500Y-83255000D03*
X128177500Y-83655000D03*
X128177500Y-84055000D03*
X128177500Y-84455000D03*
X128177500Y-84855000D03*
X128177500Y-85255000D03*
X128177500Y-85655000D03*
X128177500Y-86055000D03*
X128177500Y-86455000D03*
X128177500Y-86855000D03*
X128177500Y-87255000D03*
D14*
X129015000Y-88092500D03*
X129415000Y-88092500D03*
X129815000Y-88092500D03*
X130215000Y-88092500D03*
X130615000Y-88092500D03*
X131015000Y-88092500D03*
X131415000Y-88092500D03*
X131815000Y-88092500D03*
X132215000Y-88092500D03*
X132615000Y-88092500D03*
X133015000Y-88092500D03*
X133415000Y-88092500D03*
X133815000Y-88092500D03*
X134215000Y-88092500D03*
D13*
X135052500Y-87255000D03*
X135052500Y-86855000D03*
X135052500Y-86455000D03*
X135052500Y-86055000D03*
X135052500Y-85655000D03*
X135052500Y-85255000D03*
X135052500Y-84855000D03*
X135052500Y-84455000D03*
X135052500Y-84055000D03*
X135052500Y-83655000D03*
X135052500Y-83255000D03*
X135052500Y-82855000D03*
X135052500Y-82455000D03*
X135052500Y-82055000D03*
D14*
X134215000Y-81217500D03*
X133815000Y-81217500D03*
X133415000Y-81217500D03*
X133015000Y-81217500D03*
X132615000Y-81217500D03*
X132215000Y-81217500D03*
X131815000Y-81217500D03*
X131415000Y-81217500D03*
X131015000Y-81217500D03*
X130615000Y-81217500D03*
X130215000Y-81217500D03*
X129815000Y-81217500D03*
X129415000Y-81217500D03*
X129015000Y-81217500D03*
D15*
X131615000Y-84655000D03*
%TD*%
D16*
%TO.C,C11*%
X137450000Y-76547500D03*
X137450000Y-75412500D03*
%TD*%
D10*
%TO.C,C13*%
X139062500Y-85390000D03*
X140197500Y-85390000D03*
%TD*%
%TO.C,C10*%
X139065000Y-87320000D03*
X140200000Y-87320000D03*
%TD*%
D17*
%TO.C,LED*%
X122557988Y-52550060D03*
X125070000Y-50910000D03*
%TD*%
D18*
%TO.C,C2*%
X136525000Y-71145000D03*
X136525000Y-71960000D03*
%TD*%
D19*
%TO.C,R7*%
X131060000Y-100390000D03*
X132255000Y-100390000D03*
%TD*%
D20*
%TO.C,J5*%
X142650000Y-56600000D03*
D21*
X142650000Y-59140000D03*
X142650000Y-61680000D03*
X142650000Y-64220000D03*
X142650000Y-66760000D03*
X142650000Y-69300000D03*
X142650000Y-71840000D03*
X142650000Y-74380000D03*
X142600000Y-76920000D03*
X142650000Y-79460000D03*
X142650000Y-82000000D03*
X142650000Y-84540000D03*
X142650000Y-87080000D03*
X142650000Y-89620000D03*
X142650000Y-92160000D03*
X142650000Y-94700000D03*
X142650000Y-97240000D03*
X142650000Y-99780000D03*
X142650000Y-102320000D03*
X142650000Y-104860000D03*
X142650000Y-107400000D03*
%TD*%
D22*
%TO.C,C1*%
X134562500Y-96090000D03*
X135377500Y-96090000D03*
%TD*%
D23*
%TO.C,VR*%
X138930000Y-64110000D03*
X138930000Y-61810000D03*
X138930000Y-59510000D03*
D24*
X132230000Y-61810000D03*
%TD*%
D18*
%TO.C,C8*%
X131820000Y-92480000D03*
X131820000Y-93295000D03*
%TD*%
D20*
%TO.C,J4*%
X119790000Y-56600000D03*
D21*
X119790000Y-59140000D03*
X119790000Y-61680000D03*
X119790000Y-64220000D03*
X119790000Y-66760000D03*
X119790000Y-69300000D03*
X119790000Y-71840000D03*
X119790000Y-74380000D03*
X119740000Y-76920000D03*
X119790000Y-79460000D03*
X119790000Y-82000000D03*
X119790000Y-84540000D03*
X119790000Y-87080000D03*
X119790000Y-89620000D03*
X119790000Y-92160000D03*
X119790000Y-94700000D03*
X119790000Y-97240000D03*
X119790000Y-99780000D03*
X119790000Y-102320000D03*
X119790000Y-104860000D03*
X119790000Y-107400000D03*
%TD*%
D25*
%TO.C,R5*%
X128210000Y-79135000D03*
X128210000Y-77940000D03*
%TD*%
D26*
%TO.C,EXT SOURCE*%
X140493406Y-51894311D03*
D27*
X138366594Y-50505689D03*
%TD*%
D11*
%TO.C,C16*%
X123772500Y-86820000D03*
X122637500Y-86820000D03*
%TD*%
D28*
%TO.C,C6*%
X136510000Y-75412500D03*
X136510000Y-76547500D03*
%TD*%
D10*
%TO.C,C3*%
X129452500Y-94800000D03*
X130587500Y-94800000D03*
%TD*%
D16*
%TO.C,C15*%
X133620000Y-76557500D03*
X133620000Y-75422500D03*
%TD*%
D11*
%TO.C,C9*%
X123772500Y-85860000D03*
X122637500Y-85860000D03*
%TD*%
D29*
%TO.C,USB*%
X130190000Y-50330000D03*
D30*
X130840000Y-51330000D03*
D29*
X131490000Y-50330000D03*
X132790000Y-50330000D03*
D31*
X127910000Y-50610000D03*
X135070000Y-50610000D03*
%TD*%
D32*
%TO.C,Y1*%
X130180000Y-98070000D03*
D23*
X132480000Y-98070000D03*
X132480000Y-96320000D03*
X130180000Y-96320000D03*
%TD*%
D33*
%TO.C,C5*%
X132630000Y-93310000D03*
X132630000Y-92495000D03*
%TD*%
D25*
%TO.C,R6*%
X127220000Y-79145000D03*
X127220000Y-77950000D03*
%TD*%
D34*
%TO.C,U3*%
X127005000Y-75860000D03*
D35*
X128275000Y-75860000D03*
X129545000Y-75860000D03*
X130815000Y-75860000D03*
X130815000Y-67960000D03*
X129545000Y-67960000D03*
X128275000Y-67960000D03*
X127005000Y-67960000D03*
%TD*%
D10*
%TO.C,C14*%
X139065000Y-86360000D03*
X140200000Y-86360000D03*
%TD*%
D36*
%TO.C,R1*%
X123972127Y-55467364D03*
X126567873Y-53772636D03*
%TD*%
D25*
%TO.C,R4*%
X130960000Y-93365000D03*
X130960000Y-92170000D03*
%TD*%
D37*
%TO.C,SW1*%
X128800000Y-104470000D03*
X134200000Y-104470000D03*
%TD*%
D12*
%TO.C,R2*%
X134580000Y-75360000D03*
X134580000Y-76555000D03*
%TD*%
D28*
%TO.C,C7*%
X132660000Y-75412500D03*
X132660000Y-76547500D03*
%TD*%
D38*
X136870000Y-69050000D03*
X127220000Y-61770000D03*
X133170000Y-77880000D03*
X131900000Y-91340000D03*
X135960000Y-97750000D03*
X130320000Y-61600000D03*
X136570000Y-79250000D03*
X120640000Y-53390000D03*
X136520000Y-73350000D03*
X130480000Y-72190000D03*
X139100000Y-89150000D03*
X129270000Y-91400000D03*
X136890000Y-67210000D03*
X132617000Y-73320000D03*
X134160500Y-97470500D03*
X132250000Y-57720000D03*
X122740000Y-83980000D03*
X132440000Y-86920000D03*
X133640000Y-92890000D03*
X133190000Y-82350000D03*
X131840000Y-78650000D03*
X134200000Y-101830000D03*
D39*
X117750000Y-52811372D02*
X117750000Y-115452843D01*
X132730000Y-46190486D02*
G75*
G02*
X129730000Y-46190486I-1500000J0D01*
G01*
X129730000Y-46190486D02*
G75*
G02*
X132730000Y-46190486I1500000J0D01*
G01*
X121390486Y-112100000D02*
G75*
G02*
X118390486Y-112100000I-1500000J0D01*
G01*
X118390486Y-112100000D02*
G75*
G02*
X121390486Y-112100000I1500000J0D01*
G01*
X119296690Y-116290178D02*
G75*
G02*
X117749964Y-115452843I-546690J837378D01*
G01*
X130653315Y-108875527D02*
X119296690Y-116290178D01*
X130653315Y-43845523D02*
G75*
G02*
X131746692Y-43845528I546685J-837377D01*
G01*
X144196690Y-51974037D02*
G75*
G02*
X144649985Y-52811372I-546590J-837263D01*
G01*
X133760000Y-45160000D02*
X131746695Y-43845524D01*
X144650000Y-115452842D02*
X144650000Y-52811372D01*
X144196690Y-51974037D02*
X133760000Y-45160000D01*
X118203310Y-51974037D02*
X128640000Y-45160000D01*
X144650000Y-115452842D02*
G75*
G02*
X143103329Y-116290148I-1000000J42D01*
G01*
X128640000Y-45160000D02*
X130653315Y-43845523D01*
X130653315Y-108875527D02*
G75*
G02*
X131746692Y-108875532I546685J-837373D01*
G01*
X143980000Y-112100000D02*
G75*
G02*
X140980000Y-112100000I-1500000J0D01*
G01*
X140980000Y-112100000D02*
G75*
G02*
X143980000Y-112100000I1500000J0D01*
G01*
X117750000Y-52811372D02*
G75*
G02*
X118203298Y-51974019I1000100J-28D01*
G01*
X131746695Y-108875528D02*
X143103310Y-116290177D01*
%TO.C,USB*%
X132340000Y-51330000D02*
G75*
G02*
X131940000Y-51330000I-200000J0D01*
G01*
X131940000Y-51330000D02*
G75*
G02*
X132340000Y-51330000I200000J0D01*
G01*
%TD*%
M02*
