%TF.GenerationSoftware,KiCad,Pcbnew,9.0.3*%
%TF.CreationDate,2025-07-21T11:45:29+05:30*%
%TF.ProjectId,RQF 20251,52514620-3230-4323-9531-2e6b69636164,QUBE 20251*%
%TF.SameCoordinates,Original*%
%TF.FileFunction,Profile,NP*%
%FSLAX46Y46*%
G04 Gerber Fmt 4.6, Leading zero omitted, Abs format (unit mm)*
G04 Created by KiCad (PCBNEW 9.0.3) date 2025-07-21 11:45:29*
%MOMM*%
%LPD*%
G01*
G04 APERTURE LIST*
%TA.AperFunction,Profile*%
%ADD10C,0.050000*%
%TD*%
G04 APERTURE END LIST*
D10*
X117750000Y-52811372D02*
X117750000Y-115452843D01*
X132730000Y-46190486D02*
G75*
G02*
X129730000Y-46190486I-1500000J0D01*
G01*
X129730000Y-46190486D02*
G75*
G02*
X132730000Y-46190486I1500000J0D01*
G01*
X121390486Y-112100000D02*
G75*
G02*
X118390486Y-112100000I-1500000J0D01*
G01*
X118390486Y-112100000D02*
G75*
G02*
X121390486Y-112100000I1500000J0D01*
G01*
X119296690Y-116290178D02*
G75*
G02*
X117749964Y-115452843I-546690J837378D01*
G01*
X130653315Y-108875527D02*
X119296690Y-116290178D01*
X130653315Y-43845523D02*
G75*
G02*
X131746692Y-43845528I546685J-837377D01*
G01*
X144196690Y-51974037D02*
G75*
G02*
X144649985Y-52811372I-546590J-837263D01*
G01*
X133760000Y-45160000D02*
X131746695Y-43845524D01*
X144650000Y-115452842D02*
X144650000Y-52811372D01*
X144196690Y-51974037D02*
X133760000Y-45160000D01*
X118203310Y-51974037D02*
X128640000Y-45160000D01*
X144650000Y-115452842D02*
G75*
G02*
X143103329Y-116290148I-1000000J42D01*
G01*
X128640000Y-45160000D02*
X130653315Y-43845523D01*
X130653315Y-108875527D02*
G75*
G02*
X131746692Y-108875532I546685J-837373D01*
G01*
X143980000Y-112100000D02*
G75*
G02*
X140980000Y-112100000I-1500000J0D01*
G01*
X140980000Y-112100000D02*
G75*
G02*
X143980000Y-112100000I1500000J0D01*
G01*
X117750000Y-52811372D02*
G75*
G02*
X118203298Y-51974019I1000100J-28D01*
G01*
X131746695Y-108875528D02*
X143103310Y-116290177D01*
%TO.C,USB*%
X132340000Y-51330000D02*
G75*
G02*
X131940000Y-51330000I-200000J0D01*
G01*
X131940000Y-51330000D02*
G75*
G02*
X132340000Y-51330000I200000J0D01*
G01*
%TD*%
M02*
