%TF.GenerationSoftware,KiCad,Pcbnew,9.0.3*%
%TF.CreationDate,2025-07-21T11:45:29+05:30*%
%TF.ProjectId,RQF 20251,52514620-3230-4323-9531-2e6b69636164,QUBE 20251*%
%TF.SameCoordinates,Original*%
%TF.FileFunction,Soldermask,Bot*%
%TF.FilePolarity,Negative*%
%FSLAX46Y46*%
G04 Gerber Fmt 4.6, Leading zero omitted, Abs format (unit mm)*
G04 Created by KiCad (PCBNEW 9.0.3) date 2025-07-21 11:45:29*
%MOMM*%
%LPD*%
G01*
G04 APERTURE LIST*
G04 Aperture macros list*
%AMRoundRect*
0 Rectangle with rounded corners*
0 $1 Rounding radius*
0 $2 $3 $4 $5 $6 $7 $8 $9 X,Y pos of 4 corners*
0 Add a 4 corners polygon primitive as box body*
4,1,4,$2,$3,$4,$5,$6,$7,$8,$9,$2,$3,0*
0 Add four circle primitives for the rounded corners*
1,1,$1+$1,$2,$3*
1,1,$1+$1,$4,$5*
1,1,$1+$1,$6,$7*
1,1,$1+$1,$8,$9*
0 Add four rect primitives between the rounded corners*
20,1,$1+$1,$2,$3,$4,$5,0*
20,1,$1+$1,$4,$5,$6,$7,0*
20,1,$1+$1,$6,$7,$8,$9,0*
20,1,$1+$1,$8,$9,$2,$3,0*%
%AMHorizOval*
0 Thick line with rounded ends*
0 $1 width*
0 $2 $3 position (X,Y) of the first rounded end (center of the circle)*
0 $4 $5 position (X,Y) of the second rounded end (center of the circle)*
0 Add line between two ends*
20,1,$1,$2,$3,$4,$5,0*
0 Add two circle primitives to create the rounded ends*
1,1,$1,$2,$3*
1,1,$1,$4,$5*%
%AMRotRect*
0 Rectangle, with rotation*
0 The origin of the aperture is its center*
0 $1 length*
0 $2 width*
0 $3 Rotation angle, in degrees counterclockwise*
0 Add horizontal line*
21,1,$1,$2,0,0,$3*%
G04 Aperture macros list end*
%ADD10R,2.200000X1.600000*%
%ADD11O,2.200000X1.600000*%
%ADD12RotRect,2.000000X2.500000X146.859000*%
%ADD13HorizOval,2.000000X0.136675X0.209332X-0.136675X-0.209332X0*%
%ADD14C,0.900000*%
%ADD15C,0.700000*%
%ADD16RoundRect,0.250000X-0.250000X-0.800000X0.250000X-0.800000X0.250000X0.800000X-0.250000X0.800000X0*%
%ADD17C,1.000000*%
%TA.AperFunction,Profile*%
%ADD18C,0.050000*%
%TD*%
G04 APERTURE END LIST*
D10*
%TO.C,J5*%
X142650000Y-56600000D03*
D11*
X142650000Y-59140000D03*
X142650000Y-61680000D03*
X142650000Y-64220000D03*
X142650000Y-66760000D03*
X142650000Y-69300000D03*
X142650000Y-71840000D03*
X142650000Y-74380000D03*
X142600000Y-76920000D03*
X142650000Y-79460000D03*
X142650000Y-84540000D03*
X142650000Y-87080000D03*
X142650000Y-89620000D03*
X142650000Y-92160000D03*
X142650000Y-94700000D03*
X142650000Y-97240000D03*
X142650000Y-99780000D03*
X142650000Y-102320000D03*
X142650000Y-104860000D03*
X142650000Y-107400000D03*
%TD*%
D10*
%TO.C,J4*%
X119790000Y-56600000D03*
D11*
X119790000Y-59140000D03*
X119790000Y-61680000D03*
X119790000Y-64220000D03*
X119790000Y-66760000D03*
X119790000Y-69300000D03*
X119790000Y-71840000D03*
X119790000Y-74380000D03*
X119740000Y-76920000D03*
X119790000Y-79460000D03*
X119790000Y-84540000D03*
X119790000Y-87080000D03*
X119790000Y-89620000D03*
X119790000Y-92160000D03*
X119790000Y-94700000D03*
X119790000Y-97240000D03*
X119790000Y-99780000D03*
X119790000Y-102320000D03*
X119790000Y-104860000D03*
X119790000Y-107400000D03*
%TD*%
D12*
%TO.C,EXT SOURCE*%
X140493406Y-51894311D03*
D13*
X138366594Y-50505689D03*
%TD*%
D14*
%TO.C,USB*%
X130190000Y-50330000D03*
D15*
X130840000Y-51330000D03*
D14*
X131490000Y-50330000D03*
X132790000Y-50330000D03*
D16*
X127910000Y-50610000D03*
X135070000Y-50610000D03*
%TD*%
D17*
X136870000Y-69050000D03*
X127220000Y-61770000D03*
X133170000Y-77880000D03*
X131900000Y-91340000D03*
X135960000Y-97750000D03*
X130320000Y-61600000D03*
X136570000Y-79250000D03*
X120640000Y-53390000D03*
X136520000Y-73350000D03*
X130480000Y-72190000D03*
X139100000Y-89150000D03*
X129270000Y-91400000D03*
X136890000Y-67210000D03*
X132617000Y-73320000D03*
X134160500Y-97470500D03*
X132250000Y-57720000D03*
X122740000Y-83980000D03*
X132440000Y-86920000D03*
X133640000Y-92890000D03*
X133190000Y-82350000D03*
X131840000Y-78650000D03*
X134200000Y-101830000D03*
D18*
X117750000Y-52811372D02*
X117750000Y-115452843D01*
X132730000Y-46190486D02*
G75*
G02*
X129730000Y-46190486I-1500000J0D01*
G01*
X129730000Y-46190486D02*
G75*
G02*
X132730000Y-46190486I1500000J0D01*
G01*
X121390486Y-112100000D02*
G75*
G02*
X118390486Y-112100000I-1500000J0D01*
G01*
X118390486Y-112100000D02*
G75*
G02*
X121390486Y-112100000I1500000J0D01*
G01*
X119296690Y-116290178D02*
G75*
G02*
X117749964Y-115452843I-546690J837378D01*
G01*
X130653315Y-108875527D02*
X119296690Y-116290178D01*
X130653315Y-43845523D02*
G75*
G02*
X131746692Y-43845528I546685J-837377D01*
G01*
X144196690Y-51974037D02*
G75*
G02*
X144649985Y-52811372I-546590J-837263D01*
G01*
X133760000Y-45160000D02*
X131746695Y-43845524D01*
X144650000Y-115452842D02*
X144650000Y-52811372D01*
X144196690Y-51974037D02*
X133760000Y-45160000D01*
X118203310Y-51974037D02*
X128640000Y-45160000D01*
X144650000Y-115452842D02*
G75*
G02*
X143103329Y-116290148I-1000000J42D01*
G01*
X128640000Y-45160000D02*
X130653315Y-43845523D01*
X130653315Y-108875527D02*
G75*
G02*
X131746692Y-108875532I546685J-837373D01*
G01*
X143980000Y-112100000D02*
G75*
G02*
X140980000Y-112100000I-1500000J0D01*
G01*
X140980000Y-112100000D02*
G75*
G02*
X143980000Y-112100000I1500000J0D01*
G01*
X117750000Y-52811372D02*
G75*
G02*
X118203298Y-51974019I1000100J-28D01*
G01*
X131746695Y-108875528D02*
X143103310Y-116290177D01*
%TO.C,USB*%
X132340000Y-51330000D02*
G75*
G02*
X131940000Y-51330000I-200000J0D01*
G01*
X131940000Y-51330000D02*
G75*
G02*
X132340000Y-51330000I200000J0D01*
G01*
%TD*%
M02*
